ExpletusSans-Medium.ufo
<glyph name="exclam" format="1">
  <advance width="351"/>
  <unicode hex="0021"/>
  <outline>
    <contour>
      <point x="49" y="51" type="curve" name="hr00"/>
      <point x="49" y="89"/>
      <point x="77" y="119"/>
      <point x="115" y="119" type="curve" smooth="yes"/>
      <point x="153" y="119"/>
      <point x="182" y="89"/>
      <point x="182" y="51" type="curve" smooth="yes"/>
      <point x="182" y="13"/>
      <point x="153" y="-15"/>
      <point x="115" y="-15" type="curve" smooth="yes"/>
      <point x="77" y="-15"/>
      <point x="48" y="13"/>
    </contour>
    <contour>
      <point x="63" y="727" type="line"/>
      <point x="171" y="727" type="line"/>
      <point x="155" y="198" type="line"/>
      <point x="77" y="198" type="line"/>
    </contour>
  </outline>
</glyph>
<glyph name="numbersign" format="1">
  <advance width="894"/>
  <unicode hex="0023"/>
  <outline>
    <contour>
      <point x="465" y="0" type="line"/>
      <point x="472" y="43"/>
      <point x="481" y="86"/>
      <point x="489" y="129" type="curve" smooth="yes"/>
      <point x="497" y="162" type="line" name="hr01"/>
      <point x="309" y="162" type="line"/>
      <point x="327" y="212"/>
      <point x="353" y="233"/>
      <point x="431" y="233" type="curve" smooth="yes"/>
      <point x="508" y="233" type="line"/>
      <point x="546" y="432" type="line"/>
      <point x="555" y="471" type="line"/>
      <point x="334" y="471" type="line"/>
      <point x="244" y="0" type="line" name="hr02"/>
      <point x="158" y="0" type="line"/>
      <point x="166" y="43"/>
      <point x="174" y="87"/>
      <point x="183" y="130" type="curve" smooth="yes"/>
      <point x="190" y="162" type="line" name="hr03"/>
      <point x="77" y="162" type="line"/>
      <point x="77" y="233" type="line"/>
      <point x="201" y="233" type="line"/>
      <point x="240" y="433" type="line"/>
      <point x="248" y="471" type="line"/>
      <point x="136" y="471" type="line"/>
      <point x="136" y="542" type="line"/>
      <point x="261" y="542" type="line"/>
      <point x="291" y="702" type="line" name="hr04"/>
      <point x="377" y="702" type="line"/>
      <point x="347" y="542" type="line" name="hr05"/>
      <point x="567" y="542" type="line"/>
      <point x="598" y="702" type="line" name="hr06"/>
      <point x="684" y="702" type="line"/>
      <point x="654" y="542" type="line" name="hr07"/>
      <point x="764" y="542" type="line"/>
      <point x="764" y="471" type="line"/>
      <point x="640" y="471" type="line"/>
      <point x="595" y="233" type="line"/>
      <point x="705" y="233" type="line"/>
      <point x="705" y="162" type="line" name="hr08"/>
      <point x="582" y="162" type="line"/>
      <point x="551" y="0" type="line" name="hr09"/>
    </contour>
  </outline>
</glyph>
<glyph name="dollar" format="1">
  <advance width="514"/>
  <unicode hex="0024"/>
  <outline>
    <contour>
      <point x="261" y="630" type="curve" smooth="yes"/>
      <point x="196" y="630"/>
      <point x="156" y="590"/>
      <point x="156" y="542" type="curve" smooth="yes"/>
      <point x="156" y="396"/>
      <point x="483" y="398"/>
      <point x="483" y="177" type="curve" smooth="yes"/>
      <point x="483" y="90"/>
      <point x="418" y="13"/>
      <point x="304" y="-7" type="curve"/>
      <point x="304" y="-107" type="line"/>
      <point x="222" y="-107" type="line"/>
      <point x="222" y="-11" type="line" name="hr01"/>
      <point x="168" y="-7"/>
      <point x="104" y="6"/>
      <point x="39" y="37" type="curve"/>
      <point x="69" y="111" type="line"/>
      <point x="134" y="81"/>
      <point x="191" y="70"/>
      <point x="240" y="70" type="curve" smooth="yes"/>
      <point x="321" y="70"/>
      <point x="375" y="122"/>
      <point x="375" y="179" type="curve" smooth="yes"/>
      <point x="375" y="338"/>
      <point x="51" y="324"/>
      <point x="51" y="540" type="curve" smooth="yes"/>
      <point x="51" y="632"/>
      <point x="122" y="700"/>
      <point x="222" y="710" type="curve"/>
      <point x="222" y="810" type="line"/>
      <point x="304" y="810" type="line"/>
      <point x="304" y="709" type="line"/>
      <point x="342" y="705"/>
      <point x="380" y="696"/>
      <point x="432" y="681" type="curve"/>
      <point x="401" y="608" type="line"/>
      <point x="343" y="625"/>
      <point x="301" y="630"/>
    </contour>
  </outline>
</glyph>
<glyph name="percent" format="1">
  <advance width="814"/>
  <unicode hex="0025"/>
  <outline>
    <contour>
      <point x="710" y="191" type="curve" smooth="yes"/>
      <point x="710" y="283"/>
      <point x="683" y="329"/>
      <point x="638" y="329" type="curve" smooth="yes"/>
      <point x="595" y="329"/>
      <point x="567" y="283"/>
      <point x="567" y="191" type="curve" smooth="yes"/>
      <point x="567" y="97"/>
      <point x="595" y="52"/>
      <point x="638" y="52" type="curve" smooth="yes"/>
      <point x="683" y="52"/>
      <point x="710" y="97"/>
    </contour>
    <contour>
      <point x="803" y="191" type="curve" smooth="yes"/>
      <point x="803" y="62"/>
      <point x="735" y="-13"/>
      <point x="638" y="-13" type="curve" smooth="yes"/>
      <point x="540" y="-13"/>
      <point x="474" y="61"/>
      <point x="474" y="191" type="curve" smooth="yes"/>
      <point x="474" y="319"/>
      <point x="540" y="394"/>
      <point x="638" y="394" type="curve" smooth="yes"/>
      <point x="735" y="394"/>
      <point x="803" y="319"/>
    </contour>
    <contour>
      <point x="258" y="513" type="curve" smooth="yes"/>
      <point x="258" y="606"/>
      <point x="231" y="651"/>
      <point x="187" y="651" type="curve" smooth="yes"/>
      <point x="143" y="651"/>
      <point x="115" y="606"/>
      <point x="115" y="513" type="curve" smooth="yes"/>
      <point x="115" y="420"/>
      <point x="143" y="375"/>
      <point x="187" y="375" type="curve" smooth="yes" name="hr01"/>
      <point x="231" y="375"/>
      <point x="258" y="420"/>
    </contour>
    <contour>
      <point x="351" y="513" type="curve" smooth="yes"/>
      <point x="351" y="384"/>
      <point x="283" y="309"/>
      <point x="187" y="309" type="curve" smooth="yes"/>
      <point x="88" y="309"/>
      <point x="22" y="383"/>
      <point x="22" y="513" type="curve" smooth="yes"/>
      <point x="22" y="642"/>
      <point x="88" y="717"/>
      <point x="187" y="717" type="curve" smooth="yes"/>
      <point x="283" y="717"/>
      <point x="351" y="642"/>
    </contour>
    <contour>
      <point x="152" y="0" type="line"/>
      <point x="590" y="702" type="line"/>
      <point x="672" y="702" type="line"/>
      <point x="234" y="0" type="line"/>
    </contour>
  </outline>
</glyph>
<glyph name="ampersand" format="1">
  <advance width="761"/>
  <unicode hex="0026"/>
  <outline>
    <contour>
      <point x="393" y="78" type="curve" smooth="yes"/>
      <point x="437" y="89"/>
      <point x="472" y="76"/>
      <point x="502" y="48" type="curve"/>
      <point x="455" y="11"/>
      <point x="404" y="-11"/>
      <point x="335" y="-11" type="curve" smooth="yes"/>
      <point x="200" y="-11"/>
      <point x="119" y="91"/>
      <point x="119" y="209" type="curve" smooth="yes"/>
      <point x="119" y="300"/>
      <point x="173" y="367"/>
      <point x="238" y="416" type="curve"/>
      <point x="200" y="471"/>
      <point x="184" y="515"/>
      <point x="184" y="559" type="curve" smooth="yes" name="hr01"/>
      <point x="184" y="664"/>
      <point x="263" y="737"/>
      <point x="387" y="737" type="curve" smooth="yes"/>
      <point x="431" y="737"/>
      <point x="488" y="726"/>
      <point x="534" y="703" type="curve"/>
      <point x="508" y="632" type="line"/>
      <point x="471" y="648"/>
      <point x="421" y="656"/>
      <point x="385" y="656" type="curve" smooth="yes"/>
      <point x="325" y="656"/>
      <point x="282" y="619"/>
      <point x="282" y="568" type="curve" smooth="yes"/>
      <point x="282" y="510"/>
      <point x="316" y="469"/>
      <point x="372" y="404" type="curve" smooth="yes"/>
      <point x="535" y="212" type="line"/>
      <point x="562" y="268"/>
      <point x="581" y="316"/>
      <point x="591" y="379" type="curve"/>
      <point x="675" y="379" type="line"/>
      <point x="657" y="291"/>
      <point x="633" y="213"/>
      <point x="592" y="146" type="curve"/>
      <point x="719" y="0" type="line"/>
      <point x="589" y="0" type="line"/>
      <point x="318" y="316" type="line"/>
      <point x="289" y="353" type="line"/>
      <point x="254" y="316"/>
      <point x="227" y="280"/>
      <point x="227" y="222" type="curve" smooth="yes" name="hr02"/>
      <point x="227" y="133"/>
      <point x="270" y="70"/>
      <point x="350" y="70" type="curve" smooth="yes"/>
      <point x="364" y="70"/>
      <point x="376" y="73"/>
    </contour>
  </outline>
</glyph>
<glyph name="quotesingle" format="1">
  <advance width="191"/>
  <unicode hex="0027"/>
  <outline>
    <contour>
      <point x="46" y="522" type="curve" name="hr00"/>
      <point x="46" y="727" type="line"/>
      <point x="140" y="727" type="line"/>
      <point x="140" y="649" type="line" smooth="yes"/>
      <point x="140" y="585"/>
      <point x="122" y="505"/>
    </contour>
  </outline>
</glyph>
<glyph name="parenleft" format="1">
  <advance width="403"/>
  <unicode hex="0028"/>
  <outline>
    <contour>
      <point x="268" y="296" type="curve" smooth="yes" name="hr00"/>
      <point x="268" y="74"/>
      <point x="275" y="-18"/>
      <point x="404" y="-121" type="curve"/>
      <point x="357" y="-176" type="line"/>
      <point x="203" y="-72"/>
      <point x="174" y="46"/>
      <point x="174" y="296" type="curve" smooth="yes"/>
      <point x="174" y="545"/>
      <point x="203" y="663"/>
      <point x="357" y="767" type="curve"/>
      <point x="404" y="713" type="line"/>
      <point x="275" y="608"/>
      <point x="268" y="517"/>
    </contour>
  </outline>
</glyph>
<glyph name="parenright" format="1">
  <advance width="401"/>
  <unicode hex="0029"/>
  <outline>
    <contour>
      <point x="137" y="296" type="curve" smooth="yes" name="hr00"/>
      <point x="137" y="517"/>
      <point x="129" y="608"/>
      <point x="1" y="713" type="curve"/>
      <point x="48" y="767" type="line"/>
      <point x="202" y="663"/>
      <point x="230" y="545"/>
      <point x="230" y="296" type="curve" smooth="yes"/>
      <point x="230" y="46"/>
      <point x="202" y="-72"/>
      <point x="48" y="-176" type="curve"/>
      <point x="1" y="-121" type="line"/>
      <point x="129" y="-18"/>
      <point x="137" y="74"/>
    </contour>
  </outline>
</glyph>
<glyph name="asterisk" format="1">
  <advance width="530"/>
  <unicode hex="002A"/>
  <outline>
    <contour>
      <point x="250" y="590" type="line" name="hr00"/>
      <point x="314" y="740" type="line"/>
      <point x="388" y="697" type="line"/>
      <point x="318" y="607"/>
      <point x="300" y="581"/>
      <point x="289" y="568" type="curve"/>
      <point x="450" y="588" type="line"/>
      <point x="450" y="503" type="line"/>
      <point x="335" y="517"/>
      <point x="305" y="520"/>
      <point x="288" y="523" type="curve"/>
      <point x="387" y="394" type="line"/>
      <point x="313" y="352" type="line"/>
      <point x="251" y="502" type="line"/>
      <point x="188" y="352" type="line"/>
      <point x="114" y="394" type="line"/>
      <point x="212" y="524" type="line"/>
      <point x="51" y="503" type="line"/>
      <point x="51" y="589" type="line"/>
      <point x="212" y="569" type="line"/>
      <point x="112" y="697" type="line"/>
      <point x="186" y="740" type="line"/>
    </contour>
  </outline>
</glyph>
<glyph name="plus" format="1">
  <advance width="568"/>
  <unicode hex="002B"/>
  <outline>
    <contour>
      <point x="47" y="268" type="line" name="hr00"/>
      <point x="47" y="342" type="line"/>
      <point x="239" y="342" type="line"/>
      <point x="239" y="546" type="line"/>
      <point x="322" y="546" type="line"/>
      <point x="322" y="342" type="line"/>
      <point x="515" y="342" type="line"/>
      <point x="515" y="268" type="line"/>
      <point x="322" y="268" type="line"/>
      <point x="322" y="62" type="line"/>
      <point x="239" y="62" type="line"/>
      <point x="239" y="268" type="line"/>
    </contour>
  </outline>
</glyph>
<glyph name="comma" format="1">
  <advance width="214"/>
  <unicode hex="002C"/>
  <outline>
    <contour>
      <point x="56" y="-107" type="curve" name="hr00"/>
      <point x="56" y="98" type="line"/>
      <point x="153" y="98" type="line"/>
      <point x="153" y="20" type="line" smooth="yes"/>
      <point x="153" y="-44"/>
      <point x="132" y="-124"/>
    </contour>
  </outline>
</glyph>
<glyph name="period" format="1">
  <advance width="296"/>
  <unicode hex="002E"/>
  <outline>
    <contour>
      <point x="78" y="51" type="curve" smooth="yes" name="hr00"/>
      <point x="78" y="89"/>
      <point x="106" y="118"/>
      <point x="144" y="118" type="curve" smooth="yes"/>
      <point x="182" y="118"/>
      <point x="211" y="89"/>
      <point x="211" y="51" type="curve" smooth="yes"/>
      <point x="211" y="13"/>
      <point x="182" y="-15"/>
      <point x="144" y="-15" type="curve" smooth="yes"/>
      <point x="106" y="-15"/>
      <point x="78" y="13"/>
    </contour>
  </outline>
</glyph>
<glyph name="zero" format="1">
  <advance width="675"/>
  <unicode hex="0030"/>
  <outline>
    <contour>
      <point x="493" y="349" type="curve" smooth="yes" name="hr00"/>
      <point x="493" y="527"/>
      <point x="433" y="636"/>
      <point x="329" y="636" type="curve" smooth="yes"/>
      <point x="224" y="636"/>
      <point x="164" y="527"/>
      <point x="164" y="349" type="curve" smooth="yes"/>
      <point x="164" y="171"/>
      <point x="224" y="64"/>
      <point x="329" y="64" type="curve" smooth="yes"/>
      <point x="433" y="64"/>
      <point x="493" y="171"/>
    </contour>
    <contour>
      <point x="329" y="-17" type="curve" smooth="yes"/>
      <point x="162" y="-17"/>
      <point x="51" y="124"/>
      <point x="51" y="349" type="curve" smooth="yes"/>
      <point x="51" y="571"/>
      <point x="158" y="717"/>
      <point x="328" y="717" type="curve" smooth="yes"/>
      <point x="506" y="717"/>
      <point x="607" y="559"/>
      <point x="607" y="349" type="curve" smooth="yes"/>
      <point x="607" y="121"/>
      <point x="491" y="-17"/>
    </contour>
  </outline>
</glyph>
<glyph name="one" format="1">
  <advance width="319"/>
  <unicode hex="0031"/>
  <outline>
    <contour>
      <point x="245" y="0" type="line" name="hr00"/>
      <point x="140" y="0" type="line"/>
      <point x="140" y="578" type="line"/>
      <point x="28" y="519" type="line"/>
      <point x="-9" y="587" type="line"/>
      <point x="203" y="701" type="line"/>
      <point x="245" y="701" type="line"/>
    </contour>
  </outline>
</glyph>
<glyph name="two" format="1">
  <advance width="529"/>
  <unicode hex="0032"/>
  <outline>
    <contour>
      <point x="477" y="528" type="curve" smooth="yes" name="hr00"/>
      <point x="477" y="376"/>
      <point x="283" y="226"/>
      <point x="199" y="102" type="curve"/>
      <point x="184" y="85" type="line"/>
      <point x="206" y="88" type="line"/>
      <point x="489" y="88" type="line"/>
      <point x="489" y="0" type="line"/>
      <point x="53" y="0" type="line"/>
      <point x="53" y="44" type="line"/>
      <point x="163" y="235"/>
      <point x="365" y="386"/>
      <point x="365" y="517" type="curve" smooth="yes"/>
      <point x="365" y="588"/>
      <point x="308" y="630"/>
      <point x="240" y="630" type="curve" smooth="yes"/>
      <point x="205" y="630"/>
      <point x="162" y="623"/>
      <point x="109" y="596" type="curve"/>
      <point x="81" y="670" type="line"/>
      <point x="143" y="702"/>
      <point x="199" y="711"/>
      <point x="251" y="711" type="curve" smooth="yes"/>
      <point x="381" y="711"/>
      <point x="477" y="644"/>
    </contour>
  </outline>
</glyph>
<glyph name="three" format="1">
  <advance width="528"/>
  <unicode hex="0033"/>
  <outline>
    <contour>
      <point x="432" y="552" type="curve" smooth="yes"/>
      <point x="432" y="489"/>
      <point x="395" y="432"/>
      <point x="331" y="396" type="curve"/>
      <point x="306" y="387" type="line"/>
      <point x="328" y="382" type="line"/>
      <point x="395" y="357"/>
      <point x="456" y="293"/>
      <point x="456" y="203" type="curve" smooth="yes" name="hr01"/>
      <point x="456" y="85"/>
      <point x="347" y="-11"/>
      <point x="203" y="-11" type="curve" smooth="yes"/>
      <point x="128" y="-11"/>
      <point x="65" y="13"/>
      <point x="23" y="36" type="curve"/>
      <point x="49" y="108" type="line"/>
      <point x="86" y="88"/>
      <point x="140" y="70"/>
      <point x="196" y="70" type="curve" smooth="yes"/>
      <point x="287" y="70"/>
      <point x="343" y="141"/>
      <point x="343" y="205" type="curve" smooth="yes"/>
      <point x="343" y="302"/>
      <point x="262" y="330"/>
      <point x="149" y="330" type="curve"/>
      <point x="140" y="393" type="line"/>
      <point x="219" y="426"/>
      <point x="320" y="457"/>
      <point x="320" y="538" type="curve" smooth="yes" name="hr02"/>
      <point x="320" y="595"/>
      <point x="275" y="631"/>
      <point x="217" y="631" type="curve" smooth="yes"/>
      <point x="179" y="631"/>
      <point x="134" y="624"/>
      <point x="78" y="596" type="curve"/>
      <point x="50" y="670" type="line"/>
      <point x="116" y="703"/>
      <point x="176" y="712"/>
      <point x="230" y="712" type="curve" smooth="yes"/>
      <point x="348" y="712"/>
      <point x="432" y="647"/>
    </contour>
  </outline>
</glyph>
<glyph name="four" format="1">
  <advance width="595"/>
  <unicode hex="0034"/>
  <outline>
    <contour>
      <point x="39" y="223" type="line"/>
      <point x="355" y="701" type="line"/>
      <point x="466" y="701" type="line"/>
      <point x="466" y="231" type="line"/>
      <point x="546" y="231" type="line" name="hr01"/>
      <point x="546" y="152" type="line"/>
      <point x="466" y="152" type="line" name="hr02"/>
      <point x="466" y="0" type="line"/>
      <point x="366" y="0" type="line"/>
      <point x="366" y="538" type="line"/>
      <point x="368" y="567" type="line"/>
      <point x="353" y="541" type="line"/>
      <point x="174" y="276" type="line" smooth="yes"/>
      <point x="167" y="265"/>
      <point x="160" y="255"/>
      <point x="152" y="244" type="curve"/>
      <point x="140" y="230" type="line"/>
      <point x="146" y="231"/>
      <point x="152" y="231"/>
      <point x="157" y="232" type="curve"/>
      <point x="233" y="232" type="line" smooth="yes"/>
      <point x="288" y="232"/>
      <point x="319" y="180"/>
      <point x="330" y="152" type="curve"/>
      <point x="39" y="152" type="line"/>
    </contour>
  </outline>
</glyph>
<glyph name="five" format="1">
  <advance width="536"/>
  <unicode hex="0035"/>
  <outline>
    <contour>
      <point x="176" y="613" type="line" name="hr00"/>
      <point x="173" y="565"/>
      <point x="168" y="518"/>
      <point x="165" y="471" type="curve" smooth="yes"/>
      <point x="161" y="417" type="line"/>
      <point x="184" y="420"/>
      <point x="204" y="423"/>
      <point x="226" y="423" type="curve" smooth="yes"/>
      <point x="390" y="423"/>
      <point x="472" y="320"/>
      <point x="472" y="209" type="curve" smooth="yes"/>
      <point x="472" y="88"/>
      <point x="374" y="-11"/>
      <point x="214" y="-11" type="curve" smooth="yes"/>
      <point x="163" y="-11"/>
      <point x="91" y="5"/>
      <point x="38" y="37" type="curve"/>
      <point x="64" y="110" type="line"/>
      <point x="121" y="80"/>
      <point x="175" y="70"/>
      <point x="213" y="70" type="curve" smooth="yes"/>
      <point x="320" y="70"/>
      <point x="360" y="148"/>
      <point x="360" y="211" type="curve" smooth="yes"/>
      <point x="360" y="301"/>
      <point x="294" y="343"/>
      <point x="201" y="343" type="curve" smooth="yes"/>
      <point x="167" y="343"/>
      <point x="115" y="337"/>
      <point x="70" y="325" type="curve"/>
      <point x="95" y="701" type="line"/>
      <point x="442" y="701" type="line"/>
      <point x="442" y="613" type="line"/>
    </contour>
  </outline>
</glyph>
<glyph name="six" format="1">
  <advance width="646"/>
  <unicode hex="0036"/>
  <outline>
    <contour>
      <point x="413" y="626" type="curve" smooth="yes" name="hr00"/>
      <point x="272" y="626"/>
      <point x="182" y="500"/>
      <point x="182" y="328" type="curve" smooth="yes"/>
      <point x="182" y="219"/>
      <point x="212" y="66"/>
      <point x="337" y="66" type="curve" smooth="yes"/>
      <point x="409" y="66"/>
      <point x="461" y="131"/>
      <point x="461" y="218" type="curve" smooth="yes"/>
      <point x="461" y="306"/>
      <point x="416" y="351"/>
      <point x="361" y="351" type="curve" smooth="yes"/>
      <point x="352" y="351"/>
      <point x="342" y="350"/>
      <point x="327" y="346" type="curve" smooth="yes"/>
      <point x="279" y="336"/>
      <point x="240" y="365"/>
      <point x="222" y="387" type="curve"/>
      <point x="287" y="421"/>
      <point x="323" y="431"/>
      <point x="366" y="431" type="curve" smooth="yes"/>
      <point x="484" y="431"/>
      <point x="574" y="357"/>
      <point x="574" y="218" type="curve" smooth="yes"/>
      <point x="574" y="103"/>
      <point x="482" y="-15"/>
      <point x="339" y="-15" type="curve" smooth="yes"/>
      <point x="138" y="-15"/>
      <point x="70" y="156"/>
      <point x="70" y="326" type="curve" smooth="yes"/>
      <point x="70" y="515"/>
      <point x="196" y="707"/>
      <point x="413" y="707" type="curve" smooth="yes"/>
      <point x="446" y="707"/>
      <point x="486" y="700"/>
      <point x="526" y="684" type="curve"/>
      <point x="501" y="610" type="line"/>
      <point x="468" y="623"/>
      <point x="439" y="626"/>
    </contour>
  </outline>
</glyph>
<glyph name="seven" format="1">
  <advance width="502"/>
  <unicode hex="0037"/>
  <outline>
    <contour>
      <point x="234" y="0" type="curve" name="hr00"/>
      <point x="123" y="0" type="line"/>
      <point x="151" y="208"/>
      <point x="209" y="380"/>
      <point x="312" y="548" type="curve" smooth="yes"/>
      <point x="325" y="568"/>
      <point x="339" y="589"/>
      <point x="354" y="610" type="curve"/>
      <point x="38" y="609" type="line"/>
      <point x="38" y="701" type="line"/>
      <point x="468" y="701" type="line"/>
      <point x="468" y="619" type="line"/>
      <point x="359" y="479"/>
      <point x="263" y="318"/>
    </contour>
  </outline>
</glyph>
<glyph name="eight" format="1">
  <advance width="628"/>
  <unicode hex="0038"/>
  <outline>
    <contour>
      <point x="320" y="67" type="curve" smooth="yes"/>
      <point x="402" y="67"/>
      <point x="457" y="114"/>
      <point x="457" y="178" type="curve" smooth="yes"/>
      <point x="457" y="346"/>
      <point x="105" y="295"/>
      <point x="105" y="531" type="curve" smooth="yes"/>
      <point x="105" y="645"/>
      <point x="209" y="713"/>
      <point x="323" y="713" type="curve" smooth="yes"/>
      <point x="441" y="713"/>
      <point x="538" y="645"/>
      <point x="538" y="531" type="curve" smooth="yes"/>
      <point x="538" y="471"/>
      <point x="500" y="410"/>
      <point x="448" y="359" type="curve"/>
      <point x="512" y="324"/>
      <point x="561" y="272"/>
      <point x="561" y="178" type="curve" smooth="yes" name="hr01"/>
      <point x="561" y="55"/>
      <point x="451" y="-14"/>
      <point x="320" y="-14" type="curve" smooth="yes"/>
      <point x="185" y="-14"/>
      <point x="81" y="55"/>
      <point x="81" y="178" type="curve" smooth="yes"/>
      <point x="81" y="223"/>
      <point x="97" y="273"/>
      <point x="165" y="345" type="curve"/>
      <point x="191" y="313"/>
      <point x="210" y="272"/>
      <point x="194" y="234" type="curve" smooth="yes"/>
      <point x="185" y="216"/>
      <point x="181" y="201"/>
      <point x="181" y="187" type="curve" smooth="yes"/>
      <point x="181" y="111"/>
      <point x="240" y="67"/>
    </contour>
    <contour>
      <point x="209" y="531" type="curve" smooth="yes" name="hr02"/>
      <point x="209" y="459"/>
      <point x="289" y="432"/>
      <point x="372" y="396" type="curve"/>
      <point x="412" y="436"/>
      <point x="436" y="474"/>
      <point x="437" y="519" type="curve" smooth="yes"/>
      <point x="437" y="596"/>
      <point x="379" y="631"/>
      <point x="323" y="631" type="curve" smooth="yes"/>
      <point x="264" y="631"/>
      <point x="209" y="595"/>
    </contour>
  </outline>
</glyph>
<glyph name="nine" format="1">
  <advance width="645"/>
  <unicode hex="0039"/>
  <outline>
    <contour>
      <point x="230" y="71" type="curve" smooth="yes" name="hr00"/>
      <point x="372" y="71"/>
      <point x="461" y="198"/>
      <point x="461" y="370" type="curve" smooth="yes"/>
      <point x="461" y="479"/>
      <point x="432" y="631"/>
      <point x="307" y="631" type="curve" smooth="yes"/>
      <point x="233" y="631"/>
      <point x="183" y="566"/>
      <point x="183" y="480" type="curve" smooth="yes"/>
      <point x="183" y="392"/>
      <point x="227" y="347"/>
      <point x="282" y="347" type="curve" smooth="yes"/>
      <point x="290" y="347"/>
      <point x="302" y="348"/>
      <point x="316" y="351" type="curve" smooth="yes"/>
      <point x="365" y="362"/>
      <point x="403" y="333"/>
      <point x="421" y="310" type="curve"/>
      <point x="356" y="276"/>
      <point x="319" y="267"/>
      <point x="278" y="267" type="curve" smooth="yes"/>
      <point x="160" y="267"/>
      <point x="69" y="341"/>
      <point x="69" y="480" type="curve" smooth="yes"/>
      <point x="69" y="596"/>
      <point x="161" y="712"/>
      <point x="304" y="712" type="curve" smooth="yes"/>
      <point x="505" y="712"/>
      <point x="574" y="541"/>
      <point x="574" y="372" type="curve" smooth="yes"/>
      <point x="574" y="182"/>
      <point x="447" y="-10"/>
      <point x="230" y="-10" type="curve" smooth="yes"/>
      <point x="197" y="-10"/>
      <point x="157" y="-2"/>
      <point x="117" y="15" type="curve"/>
      <point x="143" y="88" type="line"/>
      <point x="175" y="76"/>
      <point x="205" y="71"/>
    </contour>
  </outline>
</glyph>
<glyph name="colon" format="1">
  <advance width="299"/>
  <unicode hex="003A"/>
  <outline>
    <contour>
      <point x="86" y="425" type="curve" smooth="yes" name="hr00"/>
      <point x="86" y="463"/>
      <point x="114" y="493"/>
      <point x="152" y="493" type="curve" smooth="yes"/>
      <point x="190" y="493"/>
      <point x="219" y="463"/>
      <point x="219" y="425" type="curve" smooth="yes"/>
      <point x="219" y="388"/>
      <point x="190" y="360"/>
      <point x="152" y="360" type="curve" smooth="yes"/>
      <point x="114" y="360"/>
      <point x="86" y="388"/>
    </contour>
    <contour>
      <point x="86" y="51" type="curve" smooth="yes"/>
      <point x="86" y="89"/>
      <point x="114" y="118"/>
      <point x="152" y="118" type="curve" smooth="yes"/>
      <point x="190" y="118"/>
      <point x="219" y="89"/>
      <point x="219" y="51" type="curve" smooth="yes"/>
      <point x="219" y="13"/>
      <point x="190" y="-15"/>
      <point x="152" y="-15" type="curve" smooth="yes"/>
      <point x="114" y="-15"/>
      <point x="86" y="13"/>
    </contour>
  </outline>
</glyph>
<glyph name="semicolon" format="1">
  <advance width="299"/>
  <unicode hex="003B"/>
  <outline>
    <contour>
      <point x="104" y="-107" type="curve"/>
      <point x="104" y="98" type="line"/>
      <point x="202" y="98" type="line"/>
      <point x="202" y="20" type="line" smooth="yes"/>
      <point x="202" y="-44"/>
      <point x="180" y="-124"/>
    </contour>
    <contour>
      <point x="86" y="425" type="curve" smooth="yes" name="hr01"/>
      <point x="86" y="463"/>
      <point x="114" y="493"/>
      <point x="152" y="493" type="curve" smooth="yes"/>
      <point x="190" y="493"/>
      <point x="219" y="463"/>
      <point x="219" y="425" type="curve" smooth="yes"/>
      <point x="219" y="388"/>
      <point x="190" y="360"/>
      <point x="152" y="360" type="curve" smooth="yes"/>
      <point x="114" y="360"/>
      <point x="86" y="388"/>
    </contour>
  </outline>
</glyph>
<glyph name="less" format="1">
  <advance width="613"/>
  <unicode hex="003C"/>
  <outline>
    <contour>
      <point x="164" y="270" type="line" name="hr00"/>
      <point x="554" y="95" type="line"/>
      <point x="554" y="0" type="line"/>
      <point x="37" y="245" type="line"/>
      <point x="37" y="307" type="line"/>
      <point x="554" y="552" type="line"/>
      <point x="554" y="457" type="line"/>
      <point x="424" y="399"/>
      <point x="295" y="338"/>
      <point x="164" y="283" type="curve"/>
      <point x="138" y="276" type="line"/>
    </contour>
  </outline>
</glyph>
<glyph name="equal" format="1">
  <advance width="606"/>
  <unicode hex="003D"/>
  <outline>
    <contour>
      <point x="67" y="393" type="line" name="hr00"/>
      <point x="67" y="469" type="line"/>
      <point x="539" y="469" type="line"/>
      <point x="539" y="393" type="line"/>
    </contour>
    <contour>
      <point x="67" y="172" type="line"/>
      <point x="67" y="248" type="line"/>
      <point x="539" y="248" type="line"/>
      <point x="539" y="172" type="line"/>
    </contour>
  </outline>
</glyph>
<glyph name="greater" format="1">
  <advance width="613"/>
  <unicode hex="003E"/>
  <outline>
    <contour>
      <point x="42" y="95" type="line" name="hr00"/>
      <point x="172" y="153"/>
      <point x="302" y="211"/>
      <point x="432" y="270" type="curve"/>
      <point x="458" y="276" type="line"/>
      <point x="432" y="283" type="line"/>
      <point x="42" y="457" type="line"/>
      <point x="42" y="552" type="line"/>
      <point x="559" y="307" type="line"/>
      <point x="559" y="245" type="line"/>
      <point x="42" y="0" type="line"/>
    </contour>
  </outline>
</glyph>
<glyph name="question" format="1">
  <advance width="583"/>
  <unicode hex="003F"/>
  <outline>
    <contour>
      <point x="174" y="51" type="curve" smooth="yes"/>
      <point x="174" y="89"/>
      <point x="203" y="119"/>
      <point x="240" y="119" type="curve" smooth="yes"/>
      <point x="278" y="119"/>
      <point x="307" y="89"/>
      <point x="307" y="51" type="curve" smooth="yes"/>
      <point x="307" y="13"/>
      <point x="278" y="-15"/>
      <point x="240" y="-15" type="curve" smooth="yes"/>
      <point x="203" y="-15"/>
      <point x="174" y="13"/>
    </contour>
    <contour>
      <point x="274" y="737" type="curve" smooth="yes"/>
      <point x="394" y="737"/>
      <point x="477" y="673"/>
      <point x="477" y="583" type="curve" smooth="yes"/>
      <point x="477" y="424"/>
      <point x="284" y="366"/>
      <point x="284" y="198" type="curve" name="hr01"/>
      <point x="198" y="198" type="line"/>
      <point x="198" y="405"/>
      <point x="366" y="444"/>
      <point x="366" y="568" type="curve" smooth="yes"/>
      <point x="366" y="619"/>
      <point x="324" y="656"/>
      <point x="264" y="656" type="curve" smooth="yes"/>
      <point x="226" y="656"/>
      <point x="186" y="650"/>
      <point x="130" y="621" type="curve"/>
      <point x="101" y="696" type="line"/>
      <point x="166" y="729"/>
      <point x="219" y="737"/>
    </contour>
  </outline>
</glyph>
<glyph name="at" format="1">
  <advance width="919"/>
  <unicode hex="0040"/>
  <outline>
    <contour>
      <point x="623" y="149" type="curve" smooth="yes" name="hr00"/>
      <point x="622" y="141"/>
      <point x="622" y="133"/>
      <point x="621" y="126" type="curve"/>
      <point x="626" y="128"/>
      <point x="632" y="135"/>
      <point x="636" y="138" type="curve" smooth="yes"/>
      <point x="710" y="186"/>
      <point x="739" y="247"/>
      <point x="739" y="317" type="curve" smooth="yes"/>
      <point x="739" y="479"/>
      <point x="629" y="575"/>
      <point x="461" y="575" type="curve" smooth="yes"/>
      <point x="290" y="575"/>
      <point x="164" y="466"/>
      <point x="164" y="257" type="curve" smooth="yes"/>
      <point x="164" y="49"/>
      <point x="290" y="-59"/>
      <point x="447" y="-59" type="curve" smooth="yes"/>
      <point x="505" y="-59"/>
      <point x="551" y="-55"/>
      <point x="633" y="-28" type="curve"/>
      <point x="656" y="-90" type="line"/>
      <point x="561" y="-119"/>
      <point x="513" y="-125"/>
      <point x="447" y="-125" type="curve" smooth="yes"/>
      <point x="243" y="-125"/>
      <point x="82" y="-11"/>
      <point x="82" y="257" type="curve" smooth="yes"/>
      <point x="82" y="506"/>
      <point x="260" y="641"/>
      <point x="462" y="641" type="curve" smooth="yes"/>
      <point x="664" y="641"/>
      <point x="820" y="523"/>
      <point x="820" y="317" type="curve" smooth="yes"/>
      <point x="820" y="178"/>
      <point x="719" y="82"/>
      <point x="575" y="56" type="curve"/>
      <point x="560" y="64"/>
      <point x="554" y="77"/>
      <point x="548" y="94" type="curve"/>
      <point x="546" y="113" type="line"/>
      <point x="536" y="93" type="line"/>
      <point x="497" y="54"/>
      <point x="463" y="47"/>
      <point x="427" y="47" type="curve" smooth="yes"/>
      <point x="343" y="47"/>
      <point x="291" y="92"/>
      <point x="291" y="158" type="curve" smooth="yes"/>
      <point x="291" y="238"/>
      <point x="352" y="275"/>
      <point x="504" y="291" type="curve"/>
      <point x="502" y="273"/>
      <point x="488" y="229"/>
      <point x="448" y="223" type="curve" smooth="yes"/>
      <point x="390" y="215"/>
      <point x="371" y="191"/>
      <point x="371" y="162" type="curve" smooth="yes"/>
      <point x="371" y="131"/>
      <point x="398" y="109"/>
      <point x="439" y="109" type="curve" smooth="yes"/>
      <point x="473" y="109"/>
      <point x="512" y="123"/>
      <point x="543" y="164" type="curve"/>
      <point x="543" y="305" type="line" smooth="yes"/>
      <point x="543" y="366"/>
      <point x="514" y="402"/>
      <point x="447" y="402" type="curve" smooth="yes"/>
      <point x="419" y="402"/>
      <point x="388" y="397"/>
      <point x="350" y="383" type="curve"/>
      <point x="329" y="439" type="line"/>
      <point x="380" y="460"/>
      <point x="419" y="466"/>
      <point x="461" y="466" type="curve" smooth="yes"/>
      <point x="563" y="466"/>
      <point x="622" y="406"/>
      <point x="622" y="300" type="curve" smooth="yes"/>
      <point x="622" y="201" type="line" smooth="yes"/>
      <point x="622" y="183"/>
      <point x="622" y="165"/>
    </contour>
  </outline>
</glyph>
<glyph name="A" format="1">
  <advance width="697"/>
  <unicode hex="0041"/>
  <outline>
    <contour>
      <point x="295" y="727" type="line" name="hr00"/>
      <point x="402" y="727" type="line"/>
      <point x="664" y="0" type="line"/>
      <point x="548" y="0" type="line"/>
      <point x="352" y="573" type="line"/>
      <point x="345" y="604" type="line"/>
      <point x="337" y="572" type="line"/>
      <point x="233" y="269" type="line"/>
      <point x="222" y="249" type="line"/>
      <point x="234" y="251" type="line"/>
      <point x="352" y="251" type="line" smooth="yes"/>
      <point x="403" y="251"/>
      <point x="428" y="209"/>
      <point x="442" y="170" type="curve"/>
      <point x="200" y="170" type="line"/>
      <point x="142" y="0" type="line"/>
      <point x="34" y="0" type="line"/>
    </contour>
  </outline>
</glyph>
<glyph name="B" format="1">
  <advance width="653"/>
  <unicode hex="0042"/>
  <outline>
    <contour>
      <point x="329" y="72" type="curve"/>
      <point x="341" y="70"/>
      <point x="349" y="69"/>
      <point x="361" y="69" type="curve" smooth="yes"/>
      <point x="432" y="69"/>
      <point x="489" y="126"/>
      <point x="489" y="202" type="curve" smooth="yes"/>
      <point x="489" y="296"/>
      <point x="406" y="343"/>
      <point x="301" y="343" type="curve" smooth="yes"/>
      <point x="193" y="343" type="line"/>
      <point x="193" y="0" type="line" name="hr01"/>
      <point x="85" y="0" type="line"/>
      <point x="85" y="717" type="line"/>
      <point x="170" y="733"/>
      <point x="229" y="740"/>
      <point x="301" y="740" type="curve" smooth="yes"/>
      <point x="474" y="740"/>
      <point x="561" y="656"/>
      <point x="561" y="544" type="curve" smooth="yes"/>
      <point x="561" y="495"/>
      <point x="532" y="433"/>
      <point x="483" y="402" type="curve"/>
      <point x="454" y="388" type="line"/>
      <point x="482" y="381" type="line"/>
      <point x="557" y="348"/>
      <point x="604" y="283"/>
      <point x="604" y="205" type="curve" smooth="yes" name="hr02"/>
      <point x="604" y="102"/>
      <point x="515" y="-12"/>
      <point x="366" y="-12" type="curve" smooth="yes"/>
      <point x="328" y="-12"/>
      <point x="292" y="-8"/>
      <point x="233" y="6" type="curve"/>
      <point x="252" y="41"/>
      <point x="282" y="77"/>
    </contour>
    <contour>
      <point x="193" y="419" type="line"/>
      <point x="301" y="419" type="line" smooth="yes"/>
      <point x="392" y="419"/>
      <point x="449" y="472"/>
      <point x="449" y="543" type="curve" smooth="yes" name="hr03"/>
      <point x="449" y="605"/>
      <point x="400" y="658"/>
      <point x="301" y="658" type="curve" smooth="yes"/>
      <point x="265" y="658"/>
      <point x="229" y="656"/>
      <point x="193" y="652" type="curve"/>
    </contour>
  </outline>
</glyph>
<glyph name="C" format="1">
  <advance width="637"/>
  <unicode hex="0043"/>
  <outline>
    <contour>
      <point x="434" y="-12" type="curve" smooth="yes" name="hr00"/>
      <point x="217" y="-12"/>
      <point x="65" y="137"/>
      <point x="65" y="363" type="curve" smooth="yes"/>
      <point x="65" y="582"/>
      <point x="219" y="740"/>
      <point x="434" y="740" type="curve" smooth="yes"/>
      <point x="490" y="740"/>
      <point x="549" y="729"/>
      <point x="611" y="706" type="curve"/>
      <point x="582" y="633" type="line"/>
      <point x="524" y="652"/>
      <point x="480" y="658"/>
      <point x="434" y="658" type="curve" smooth="yes"/>
      <point x="290" y="658"/>
      <point x="182" y="547"/>
      <point x="182" y="363" type="curve" smooth="yes"/>
      <point x="182" y="194"/>
      <point x="290" y="69"/>
      <point x="434" y="69" type="curve" smooth="yes"/>
      <point x="480" y="69"/>
      <point x="529" y="80"/>
      <point x="582" y="107" type="curve"/>
      <point x="611" y="34" type="line"/>
      <point x="550" y="2"/>
      <point x="490" y="-12"/>
    </contour>
  </outline>
</glyph>
<glyph name="D" format="1">
  <advance width="723"/>
  <unicode hex="0044"/>
  <outline>
    <contour>
      <point x="368" y="-12" type="curve" smooth="yes"/>
      <point x="325" y="-12"/>
      <point x="293" y="-9"/>
      <point x="235" y="5" type="curve"/>
      <point x="253" y="40"/>
      <point x="283" y="73"/>
      <point x="331" y="70" type="curve" smooth="yes"/>
      <point x="346" y="69"/>
      <point x="352" y="69"/>
      <point x="363" y="69" type="curve" smooth="yes"/>
      <point x="498" y="69"/>
      <point x="588" y="208"/>
      <point x="588" y="365" type="curve" smooth="yes"/>
      <point x="588" y="548"/>
      <point x="496" y="658"/>
      <point x="300" y="658" type="curve" smooth="yes"/>
      <point x="264" y="658"/>
      <point x="227" y="655"/>
      <point x="196" y="651" type="curve"/>
      <point x="196" y="0" type="line" name="hr01"/>
      <point x="87" y="0" type="line"/>
      <point x="87" y="715" type="line"/>
      <point x="158" y="732"/>
      <point x="242" y="740"/>
      <point x="300" y="740" type="curve" smooth="yes"/>
      <point x="558" y="740"/>
      <point x="705" y="600"/>
      <point x="705" y="365" type="curve" smooth="yes"/>
      <point x="705" y="149"/>
      <point x="554" y="-12"/>
    </contour>
  </outline>
</glyph>
<glyph name="E" format="1">
  <advance width="580"/>
  <unicode hex="0045"/>
  <outline>
    <contour>
      <point x="324" y="421" type="curve" name="hr00"/>
      <point x="474" y="421" type="line"/>
      <point x="474" y="342" type="line"/>
      <point x="234" y="342" type="line"/>
      <point x="248" y="381"/>
      <point x="273" y="421"/>
    </contour>
    <contour>
      <point x="87" y="0" type="line"/>
      <point x="87" y="727" type="line"/>
      <point x="508" y="727" type="line"/>
      <point x="508" y="646" type="line"/>
      <point x="196" y="646" type="line"/>
      <point x="196" y="81" type="line"/>
      <point x="523" y="81" type="line"/>
      <point x="523" y="0" type="line"/>
    </contour>
  </outline>
</glyph>
<glyph name="F" format="1">
  <advance width="576"/>
  <unicode hex="0046"/>
  <outline>
    <contour>
      <point x="324" y="421" type="curve" name="hr00"/>
      <point x="474" y="421" type="line"/>
      <point x="474" y="342" type="line"/>
      <point x="234" y="342" type="line"/>
      <point x="248" y="381"/>
      <point x="273" y="421"/>
    </contour>
    <contour>
      <point x="87" y="0" type="line"/>
      <point x="87" y="727" type="line"/>
      <point x="508" y="727" type="line"/>
      <point x="508" y="646" type="line"/>
      <point x="196" y="646" type="line"/>
      <point x="196" y="0" type="line"/>
    </contour>
  </outline>
</glyph>
<glyph name="G" format="1">
  <advance width="668"/>
  <unicode hex="0047"/>
  <outline>
    <contour>
      <point x="419" y="658" type="curve" smooth="yes" name="hr00"/>
      <point x="275" y="658"/>
      <point x="154" y="551"/>
      <point x="154" y="363" type="curve" smooth="yes"/>
      <point x="154" y="178"/>
      <point x="274" y="69"/>
      <point x="418" y="69" type="curve" smooth="yes"/>
      <point x="447" y="69"/>
      <point x="482" y="71"/>
      <point x="525" y="84" type="curve"/>
      <point x="525" y="337" type="line"/>
      <point x="628" y="337" type="line"/>
      <point x="628" y="37" type="line"/>
      <point x="556" y="0"/>
      <point x="475" y="-12"/>
      <point x="418" y="-12" type="curve" smooth="yes"/>
      <point x="201" y="-12"/>
      <point x="37" y="136"/>
      <point x="37" y="363" type="curve" smooth="yes"/>
      <point x="37" y="584"/>
      <point x="203" y="740"/>
      <point x="419" y="740" type="curve" smooth="yes"/>
      <point x="476" y="740"/>
      <point x="549" y="729"/>
      <point x="621" y="696" type="curve"/>
      <point x="592" y="622" type="line"/>
      <point x="519" y="652"/>
      <point x="465" y="658"/>
    </contour>
  </outline>
</glyph>
<glyph name="H" format="1">
  <advance width="740"/>
  <unicode hex="0048"/>
  <outline>
    <contour>
      <point x="87" y="0" type="line" name="hr00"/>
      <point x="87" y="727" type="line"/>
      <point x="196" y="727" type="line"/>
      <point x="196" y="0" type="line"/>
    </contour>
    <contour>
      <point x="324" y="421" type="curve"/>
      <point x="546" y="421" type="line"/>
      <point x="546" y="727" type="line"/>
      <point x="654" y="727" type="line"/>
      <point x="654" y="0" type="line"/>
      <point x="546" y="0" type="line"/>
      <point x="546" y="341" type="line"/>
      <point x="234" y="341" type="line"/>
      <point x="248" y="381"/>
      <point x="273" y="421"/>
    </contour>
  </outline>
</glyph>
<glyph name="I" format="1">
  <advance width="280"/>
  <unicode hex="0049"/>
  <outline>
    <contour>
      <point x="193" y="727" type="line" name="hr00"/>
      <point x="193" y="0" type="line"/>
      <point x="87" y="0" type="line"/>
      <point x="87" y="727" type="line"/>
    </contour>
  </outline>
</glyph>
<glyph name="J" format="1">
  <advance width="351"/>
  <unicode hex="004A"/>
  <outline>
    <contour>
      <point x="269" y="727" type="line" name="hr00"/>
      <point x="269" y="128" type="line" smooth="yes"/>
      <point x="269" y="-50"/>
      <point x="184" y="-115"/>
      <point x="41" y="-212" type="curve"/>
      <point x="-6" y="-152" type="line"/>
      <point x="94" y="-69"/>
      <point x="160" y="-23"/>
      <point x="160" y="128" type="curve" smooth="yes"/>
      <point x="160" y="727" type="line"/>
    </contour>
  </outline>
</glyph>
<glyph name="K" format="1">
  <advance width="675"/>
  <unicode hex="004B"/>
  <outline>
    <contour>
      <point x="196" y="0" type="line" name="hr00"/>
      <point x="87" y="0" type="line"/>
      <point x="87" y="727" type="line"/>
      <point x="196" y="727" type="line"/>
    </contour>
    <contour>
      <point x="622" y="727" type="line"/>
      <point x="397" y="434" type="line"/>
      <point x="656" y="0" type="line"/>
      <point x="527" y="0" type="line"/>
      <point x="342" y="340" type="line"/>
      <point x="335" y="359" type="line"/>
      <point x="325" y="340" type="line"/>
      <point x="250" y="243" type="line"/>
      <point x="233" y="290"/>
      <point x="241" y="365"/>
      <point x="278" y="421" type="curve" smooth="yes"/>
      <point x="346" y="521"/>
      <point x="426" y="626"/>
      <point x="500" y="727" type="curve"/>
    </contour>
  </outline>
</glyph>
<glyph name="L" format="1">
  <advance width="523"/>
  <unicode hex="004C"/>
  <outline>
    <contour>
      <point x="87" y="0" type="line" name="hr00"/>
      <point x="87" y="727" type="line"/>
      <point x="197" y="727" type="line"/>
      <point x="197" y="82" type="line"/>
      <point x="489" y="82" type="line"/>
      <point x="489" y="55"/>
      <point x="488" y="27"/>
      <point x="488" y="0" type="curve"/>
    </contour>
  </outline>
</glyph>
<glyph name="M" format="1">
  <advance width="959"/>
  <unicode hex="004D"/>
  <outline>
    <contour>
      <point x="70" y="0" type="line" name="hr00"/>
      <point x="148" y="727" type="line"/>
      <point x="288" y="727" type="line"/>
      <point x="473" y="150" type="line"/>
      <point x="480" y="117" type="line"/>
      <point x="487" y="150" type="line"/>
      <point x="671" y="727" type="line"/>
      <point x="811" y="727" type="line"/>
      <point x="888" y="0" type="line"/>
      <point x="785" y="0" type="line"/>
      <point x="733" y="572" type="line"/>
      <point x="730" y="617" type="line"/>
      <point x="718" y="572" type="line"/>
      <point x="532" y="10" type="line"/>
      <point x="426" y="10" type="line"/>
      <point x="239" y="573" type="line"/>
      <point x="226" y="617" type="line"/>
      <point x="172" y="0" type="line"/>
    </contour>
  </outline>
</glyph>
<glyph name="N" format="1">
  <advance width="757"/>
  <unicode hex="004E"/>
  <outline>
    <contour>
      <point x="558" y="0" type="line" name="hr00"/>
      <point x="441" y="187"/>
      <point x="324" y="372"/>
      <point x="207" y="560" type="curve"/>
      <point x="192" y="595" type="line"/>
      <point x="194" y="561" type="line"/>
      <point x="194" y="0" type="line"/>
      <point x="101" y="0" type="line"/>
      <point x="101" y="727" type="line"/>
      <point x="209" y="727" type="line"/>
      <point x="512" y="242" type="line" smooth="yes"/>
      <point x="524" y="223"/>
      <point x="536" y="204"/>
      <point x="548" y="185" type="curve"/>
      <point x="561" y="150" type="line"/>
      <point x="559" y="186" type="line"/>
      <point x="559" y="727" type="line"/>
      <point x="655" y="727" type="line"/>
      <point x="655" y="0" type="line"/>
    </contour>
  </outline>
</glyph>
<glyph name="O" format="1">
  <advance width="790"/>
  <unicode hex="004F"/>
  <outline>
    <contour>
      <point x="161" y="364" type="curve" smooth="yes" name="hr00"/>
      <point x="161" y="195"/>
      <point x="253" y="67"/>
      <point x="389" y="67" type="curve" smooth="yes"/>
      <point x="521" y="67"/>
      <point x="616" y="192"/>
      <point x="616" y="364" type="curve" smooth="yes"/>
      <point x="616" y="543"/>
      <point x="519" y="660"/>
      <point x="389" y="660" type="curve" smooth="yes"/>
      <point x="257" y="660"/>
      <point x="161" y="540"/>
    </contour>
    <contour>
      <point x="44" y="364" type="curve" smooth="yes"/>
      <point x="44" y="606"/>
      <point x="211" y="742"/>
      <point x="389" y="742" type="curve" smooth="yes"/>
      <point x="618" y="742"/>
      <point x="733" y="562"/>
      <point x="733" y="364" type="curve" smooth="yes"/>
      <point x="733" y="143"/>
      <point x="584" y="-14"/>
      <point x="389" y="-14" type="curve" smooth="yes"/>
      <point x="189" y="-14"/>
      <point x="44" y="134"/>
    </contour>
  </outline>
</glyph>
<glyph name="P" format="1">
  <advance width="619"/>
  <unicode hex="0050"/>
  <outline>
    <contour>
      <point x="569" y="518" type="curve" smooth="yes" name="hr00"/>
      <point x="569" y="389"/>
      <point x="456" y="311"/>
      <point x="336" y="300" type="curve" smooth="yes"/>
      <point x="307" y="297"/>
      <point x="273" y="298"/>
      <point x="236" y="309" type="curve"/>
      <point x="251" y="344"/>
      <point x="280" y="377"/>
      <point x="323" y="378" type="curve" smooth="yes"/>
      <point x="388" y="380"/>
      <point x="455" y="439"/>
      <point x="455" y="518" type="curve" smooth="yes"/>
      <point x="455" y="598"/>
      <point x="387" y="659"/>
      <point x="299" y="659" type="curve" smooth="yes"/>
      <point x="262" y="659"/>
      <point x="232" y="657"/>
      <point x="196" y="653" type="curve"/>
      <point x="196" y="0" type="line"/>
      <point x="87" y="1" type="line"/>
      <point x="87" y="719" type="line"/>
      <point x="172" y="735"/>
      <point x="226" y="740"/>
      <point x="299" y="740" type="curve" smooth="yes"/>
      <point x="460" y="740"/>
      <point x="569" y="645"/>
    </contour>
  </outline>
</glyph>
<glyph name="Q" format="1">
  <advance width="786"/>
  <unicode hex="0051"/>
  <outline>
    <contour>
      <point x="648" y="115" type="curve"/>
      <point x="720" y="42" type="line"/>
      <point x="660" y="-17" type="line"/>
      <point x="413" y="235" type="line"/>
      <point x="473" y="294" type="line"/>
      <point x="567" y="197" type="line"/>
      <point x="580" y="177" type="line"/>
      <point x="587" y="202" type="line"/>
      <point x="613" y="252"/>
      <point x="621" y="310"/>
      <point x="621" y="364" type="curve" smooth="yes"/>
      <point x="621" y="540"/>
      <point x="526" y="660"/>
      <point x="394" y="660" type="curve" smooth="yes"/>
      <point x="263" y="660"/>
      <point x="166" y="540"/>
      <point x="166" y="364" type="curve" smooth="yes"/>
      <point x="166" y="192"/>
      <point x="259" y="68"/>
      <point x="389" y="68" type="curve" smooth="yes" name="hr01"/>
      <point x="409" y="68"/>
      <point x="425" y="70"/>
      <point x="443" y="74" type="curve" smooth="yes"/>
      <point x="480" y="80"/>
      <point x="524" y="64"/>
      <point x="546" y="40" type="curve"/>
      <point x="493" y="3"/>
      <point x="441" y="-14"/>
      <point x="389" y="-14" type="curve" smooth="yes"/>
      <point x="192" y="-14"/>
      <point x="50" y="137"/>
      <point x="50" y="364" type="curve" smooth="yes"/>
      <point x="50" y="591"/>
      <point x="202" y="742"/>
      <point x="394" y="742" type="curve" smooth="yes"/>
      <point x="594" y="742"/>
      <point x="738" y="595"/>
      <point x="738" y="364" type="curve" smooth="yes"/>
      <point x="738" y="273"/>
      <point x="708" y="198"/>
    </contour>
  </outline>
</glyph>
<glyph name="R" format="1">
  <advance width="658"/>
  <unicode hex="0052"/>
  <outline>
    <contour>
      <point x="569" y="524" type="curve" smooth="yes" name="hr00"/>
      <point x="569" y="444"/>
      <point x="523" y="382"/>
      <point x="456" y="347" type="curve"/>
      <point x="431" y="338" type="line"/>
      <point x="546" y="283"/>
      <point x="535" y="139"/>
      <point x="598" y="0" type="curve"/>
      <point x="485" y="0" type="line"/>
      <point x="433" y="111"/>
      <point x="437" y="266"/>
      <point x="340" y="311" type="curve"/>
      <point x="334" y="310"/>
      <point x="328" y="310"/>
      <point x="321" y="310" type="curve" smooth="yes"/>
      <point x="296" y="309"/>
      <point x="267" y="311"/>
      <point x="236" y="319" type="curve"/>
      <point x="251" y="354"/>
      <point x="280" y="387"/>
      <point x="323" y="389" type="curve" smooth="yes"/>
      <point x="388" y="392"/>
      <point x="455" y="447"/>
      <point x="455" y="524" type="curve" smooth="yes"/>
      <point x="455" y="600"/>
      <point x="385" y="659"/>
      <point x="299" y="659" type="curve" smooth="yes"/>
      <point x="262" y="659"/>
      <point x="241" y="659"/>
      <point x="196" y="651" type="curve"/>
      <point x="196" y="0" type="line"/>
      <point x="87" y="0" type="line"/>
      <point x="87" y="718" type="line"/>
      <point x="172" y="734"/>
      <point x="226" y="741"/>
      <point x="299" y="741" type="curve" smooth="yes"/>
      <point x="459" y="741"/>
      <point x="569" y="648"/>
    </contour>
  </outline>
</glyph>
<glyph name="S" format="1">
  <advance width="561"/>
  <unicode hex="0053"/>
  <outline>
    <contour>
      <point x="283" y="659" type="curve" smooth="yes" name="hr00"/>
      <point x="213" y="659"/>
      <point x="172" y="614"/>
      <point x="172" y="560" type="curve" smooth="yes"/>
      <point x="172" y="409"/>
      <point x="512" y="411"/>
      <point x="512" y="183" type="curve" smooth="yes"/>
      <point x="512" y="75"/>
      <point x="422" y="-12"/>
      <point x="270" y="-12" type="curve" smooth="yes"/>
      <point x="213" y="-12"/>
      <point x="131" y="0"/>
      <point x="57" y="36" type="curve"/>
      <point x="86" y="109" type="line"/>
      <point x="150" y="80"/>
      <point x="214" y="69"/>
      <point x="262" y="69" type="curve" smooth="yes"/>
      <point x="349" y="69"/>
      <point x="403" y="120"/>
      <point x="403" y="184" type="curve" smooth="yes"/>
      <point x="403" y="347"/>
      <point x="66" y="333"/>
      <point x="66" y="556" type="curve" smooth="yes"/>
      <point x="66" y="665"/>
      <point x="154" y="740"/>
      <point x="274" y="740" type="curve" smooth="yes"/>
      <point x="332" y="740"/>
      <point x="386" y="732"/>
      <point x="459" y="709" type="curve"/>
      <point x="429" y="637" type="line"/>
      <point x="371" y="654"/>
      <point x="322" y="659"/>
    </contour>
  </outline>
</glyph>
<glyph name="T" format="1">
  <advance width="541"/>
  <unicode hex="0054"/>
  <outline>
    <contour>
      <point x="214" y="646" type="line" name="hr00"/>
      <point x="9" y="646" type="line"/>
      <point x="9" y="727" type="line"/>
      <point x="530" y="727" type="line"/>
      <point x="530" y="646" type="line"/>
      <point x="324" y="646" type="line"/>
      <point x="324" y="0" type="line"/>
      <point x="214" y="0" type="line"/>
    </contour>
  </outline>
</glyph>
<glyph name="U" format="1">
  <advance width="704"/>
  <unicode hex="0055"/>
  <outline>
    <contour>
      <point x="355" y="-14" type="curve" smooth="yes" name="hr00"/>
      <point x="182" y="-14"/>
      <point x="79" y="96"/>
      <point x="79" y="271" type="curve" smooth="yes"/>
      <point x="79" y="727" type="line"/>
      <point x="187" y="727" type="line"/>
      <point x="187" y="255" type="line" smooth="yes"/>
      <point x="187" y="140"/>
      <point x="255" y="67"/>
      <point x="355" y="67" type="curve" smooth="yes"/>
      <point x="455" y="67"/>
      <point x="523" y="140"/>
      <point x="523" y="255" type="curve" smooth="yes"/>
      <point x="523" y="727" type="line"/>
      <point x="630" y="727" type="line"/>
      <point x="630" y="271" type="line" smooth="yes"/>
      <point x="630" y="100"/>
      <point x="520" y="-14"/>
    </contour>
  </outline>
</glyph>
<glyph name="V" format="1">
  <advance width="641"/>
  <unicode hex="0056"/>
  <outline>
    <contour>
      <point x="380" y="0" type="line" name="hr00"/>
      <point x="267" y="0" type="line"/>
      <point x="12" y="727" type="line"/>
      <point x="129" y="727" type="line"/>
      <point x="318" y="143" type="line"/>
      <point x="325" y="109" type="line"/>
      <point x="332" y="142" type="line"/>
      <point x="520" y="727" type="line"/>
      <point x="633" y="727" type="line"/>
    </contour>
  </outline>
</glyph>
<glyph name="W" format="1">
  <advance width="997"/>
  <unicode hex="0057"/>
  <outline>
    <contour>
      <point x="443" y="717" type="line" name="hr00"/>
      <point x="561" y="717" type="line"/>
      <point x="706" y="153" type="line"/>
      <point x="716" y="102" type="line"/>
      <point x="724" y="151" type="line"/>
      <point x="868" y="727" type="line"/>
      <point x="974" y="727" type="line"/>
      <point x="776" y="0" type="line"/>
      <point x="656" y="0" type="line"/>
      <point x="509" y="557" type="line"/>
      <point x="500" y="599" type="line"/>
      <point x="492" y="559" type="line"/>
      <point x="346" y="0" type="line"/>
      <point x="222" y="0" type="line"/>
      <point x="24" y="727" type="line"/>
      <point x="132" y="727" type="line"/>
      <point x="277" y="153" type="line"/>
      <point x="285" y="102" type="line"/>
      <point x="296" y="153" type="line"/>
    </contour>
  </outline>
</glyph>
<glyph name="X" format="1">
  <advance width="636"/>
  <unicode hex="0058"/>
  <outline>
    <contour>
      <point x="256" y="191" type="curve" name="hr00"/>
      <point x="150" y="0" type="line"/>
      <point x="33" y="0" type="line"/>
      <point x="232" y="329" type="line"/>
      <point x="256" y="297"/>
      <point x="283" y="238"/>
    </contour>
    <contour>
      <point x="480" y="0" type="line"/>
      <point x="45" y="727" type="line"/>
      <point x="170" y="727" type="line"/>
      <point x="310" y="470" type="line"/>
      <point x="319" y="443" type="line"/>
      <point x="327" y="470" type="line"/>
      <point x="468" y="727" type="line"/>
      <point x="589" y="727" type="line"/>
      <point x="376" y="374" type="line"/>
      <point x="602" y="0" type="line"/>
    </contour>
  </outline>
</glyph>
<glyph name="Y" format="1">
  <advance width="671"/>
  <unicode hex="0059"/>
  <outline>
    <contour>
      <point x="389" y="518" type="curve" name="hr00"/>
      <point x="506" y="727" type="line"/>
      <point x="625" y="727" type="line"/>
      <point x="411" y="376" type="line"/>
      <point x="387" y="408"/>
      <point x="360" y="466"/>
    </contour>
    <contour>
      <point x="149" y="727" type="line"/>
      <point x="383" y="338" type="line"/>
      <point x="383" y="0" type="line"/>
      <point x="277" y="0" type="line"/>
      <point x="277" y="313" type="line"/>
      <point x="27" y="727" type="line"/>
    </contour>
  </outline>
</glyph>
<glyph name="Z" format="1">
  <advance width="602"/>
  <unicode hex="005A"/>
  <outline>
    <contour>
      <point x="114" y="647" type="line" name="hr00"/>
      <point x="114" y="727" type="line"/>
      <point x="594" y="727" type="line"/>
      <point x="594" y="683" type="line"/>
      <point x="216" y="93" type="line"/>
      <point x="201" y="78" type="line"/>
      <point x="223" y="81" type="line"/>
      <point x="604" y="81" type="line"/>
      <point x="604" y="0" type="line"/>
      <point x="74" y="0" type="line"/>
      <point x="74" y="44" type="line"/>
      <point x="451" y="633" type="line"/>
      <point x="467" y="650" type="line"/>
      <point x="443" y="647" type="line"/>
    </contour>
  </outline>
</glyph>
<glyph name="bracketleft" format="1">
  <advance width="447"/>
  <unicode hex="005B"/>
  <outline>
    <contour>
      <point x="138" y="-199" type="line" name="hr00"/>
      <point x="138" y="771" type="line"/>
      <point x="409" y="771" type="line"/>
      <point x="409" y="690" type="line"/>
      <point x="238" y="690" type="line"/>
      <point x="238" y="-118" type="line"/>
      <point x="409" y="-118" type="line"/>
      <point x="409" y="-145"/>
      <point x="409" y="-172"/>
      <point x="409" y="-199" type="curve"/>
    </contour>
  </outline>
</glyph>
<glyph name="bracketright" format="1">
  <advance width="454"/>
  <unicode hex="005D"/>
  <outline>
    <contour>
      <point x="320" y="771" type="line" name="hr00"/>
      <point x="320" y="-199" type="line"/>
      <point x="50" y="-199" type="line"/>
      <point x="50" y="-172"/>
      <point x="49" y="-145"/>
      <point x="49" y="-118" type="curve"/>
      <point x="221" y="-118" type="line"/>
      <point x="221" y="690" type="line"/>
      <point x="50" y="690" type="line"/>
      <point x="50" y="771" type="line"/>
    </contour>
  </outline>
</glyph>
<glyph name="asciicircum" format="1">
  <advance width="628"/>
  <unicode hex="005E"/>
  <outline>
    <contour>
      <point x="310" y="569" type="line" name="hr00"/>
      <point x="169" y="210" type="line"/>
      <point x="75" y="210" type="line"/>
      <point x="283" y="727" type="line"/>
      <point x="348" y="727" type="line"/>
      <point x="556" y="210" type="line"/>
      <point x="464" y="210" type="line"/>
      <point x="340" y="525" type="line" smooth="yes"/>
      <point x="334" y="540"/>
      <point x="328" y="554"/>
      <point x="322" y="569" type="curve"/>
      <point x="316" y="597" type="line"/>
    </contour>
  </outline>
</glyph>
<glyph name="underscore" format="1">
  <advance width="497"/>
  <unicode hex="005F"/>
  <outline>
    <contour>
      <point x="470" y="-72" type="line" name="hr00"/>
      <point x="27" y="-72" type="line"/>
      <point x="27" y="0" type="line"/>
      <point x="470" y="0" type="line"/>
    </contour>
  </outline>
</glyph>
<glyph name="a" format="1">
  <advance width="531"/>
  <unicode hex="0061"/>
  <outline>
    <contour>
      <point x="462" y="313" type="curve"/>
      <point x="462" y="171" type="line" smooth="yes"/>
      <point x="462" y="98"/>
      <point x="466" y="44"/>
      <point x="478" y="0" type="curve"/>
      <point x="400" y="0" type="line"/>
      <point x="377" y="13"/>
      <point x="363" y="42"/>
      <point x="362" y="69" type="curve"/>
      <point x="351" y="52" type="line"/>
      <point x="298" y="0"/>
      <point x="258" y="-11"/>
      <point x="208" y="-11" type="curve" smooth="yes" name="hr01"/>
      <point x="107" y="-11"/>
      <point x="44" y="53"/>
      <point x="44" y="134" type="curve" smooth="yes"/>
      <point x="44" y="230"/>
      <point x="114" y="284"/>
      <point x="320" y="305" type="curve"/>
      <point x="316" y="275"/>
      <point x="299" y="232"/>
      <point x="250" y="224" type="curve" smooth="yes"/>
      <point x="173" y="211"/>
      <point x="153" y="178"/>
      <point x="153" y="142" type="curve" smooth="yes"/>
      <point x="153" y="103"/>
      <point x="184" y="70"/>
      <point x="230" y="70" type="curve" smooth="yes"/>
      <point x="273" y="70"/>
      <point x="319" y="93"/>
      <point x="356" y="142" type="curve"/>
      <point x="356" y="318" type="line" smooth="yes"/>
      <point x="356" y="394"/>
      <point x="320" y="446"/>
      <point x="235" y="446" type="curve" smooth="yes"/>
      <point x="200" y="446"/>
      <point x="166" y="440"/>
      <point x="119" y="423" type="curve"/>
      <point x="93" y="492" type="line"/>
      <point x="156" y="520"/>
      <point x="210" y="527"/>
      <point x="254" y="527" type="curve" smooth="yes"/>
      <point x="387" y="527"/>
      <point x="462" y="450"/>
    </contour>
  </outline>
</glyph>
<glyph name="b" format="1">
  <advance width="590"/>
  <unicode hex="0062"/>
  <outline>
    <contour>
      <point x="221" y="498" type="curve" name="hr00"/>
      <point x="257" y="514"/>
      <point x="300" y="524"/>
      <point x="331" y="524" type="curve" smooth="yes"/>
      <point x="445" y="524"/>
      <point x="540" y="424"/>
      <point x="540" y="266" type="curve" smooth="yes"/>
      <point x="540" y="105"/>
      <point x="437" y="-11"/>
      <point x="282" y="-11" type="curve" smooth="yes"/>
      <point x="209" y="-11"/>
      <point x="144" y="5"/>
      <point x="80" y="41" type="curve"/>
      <point x="80" y="758" type="line"/>
      <point x="186" y="758" type="line"/>
      <point x="186" y="84" type="line"/>
      <point x="218" y="73"/>
      <point x="253" y="70"/>
      <point x="282" y="70" type="curve" smooth="yes"/>
      <point x="372" y="70"/>
      <point x="428" y="150"/>
      <point x="428" y="266" type="curve" smooth="yes"/>
      <point x="428" y="378"/>
      <point x="380" y="448"/>
      <point x="299" y="443" type="curve" smooth="yes"/>
      <point x="265" y="441"/>
      <point x="242" y="464"/>
    </contour>
  </outline>
</glyph>
<glyph name="c" format="1">
  <advance width="428"/>
  <unicode hex="0063"/>
  <outline>
    <contour>
      <point x="287" y="-11" type="curve" smooth="yes" name="hr00"/>
      <point x="151" y="-11"/>
      <point x="38" y="80"/>
      <point x="38" y="259" type="curve" smooth="yes"/>
      <point x="38" y="434"/>
      <point x="155" y="528"/>
      <point x="287" y="528" type="curve" smooth="yes"/>
      <point x="323" y="528"/>
      <point x="368" y="522"/>
      <point x="408" y="507" type="curve"/>
      <point x="382" y="433" type="line"/>
      <point x="346" y="443"/>
      <point x="314" y="447"/>
      <point x="287" y="447" type="curve" smooth="yes"/>
      <point x="212" y="447"/>
      <point x="151" y="384"/>
      <point x="151" y="259" type="curve" smooth="yes"/>
      <point x="151" y="133"/>
      <point x="211" y="70"/>
      <point x="287" y="70" type="curve" smooth="yes"/>
      <point x="315" y="70"/>
      <point x="349" y="78"/>
      <point x="394" y="98" type="curve"/>
      <point x="422" y="24" type="line"/>
      <point x="368" y="-2"/>
      <point x="319" y="-11"/>
    </contour>
  </outline>
</glyph>
<glyph name="d" format="1">
  <advance width="604"/>
  <unicode hex="0064"/>
  <outline>
    <contour>
      <point x="45" y="261" type="curve" smooth="yes"/>
      <point x="45" y="416"/>
      <point x="156" y="524"/>
      <point x="274" y="524" type="curve" smooth="yes"/>
      <point x="305" y="524"/>
      <point x="337" y="520"/>
      <point x="378" y="507" type="curve"/>
      <point x="360" y="470"/>
      <point x="333" y="444"/>
      <point x="290" y="444" type="curve" smooth="yes"/>
      <point x="217" y="444"/>
      <point x="159" y="385"/>
      <point x="159" y="261" type="curve" smooth="yes"/>
      <point x="159" y="152"/>
      <point x="204" y="70"/>
      <point x="286" y="70" type="curve" smooth="yes"/>
      <point x="330" y="70"/>
      <point x="371" y="93"/>
      <point x="413" y="142" type="curve"/>
      <point x="413" y="758" type="line"/>
      <point x="519" y="758" type="line"/>
      <point x="519" y="176" type="line" smooth="yes"/>
      <point x="519" y="101"/>
      <point x="523" y="46"/>
      <point x="534" y="0" type="curve" name="hr01"/>
      <point x="455" y="0" type="line"/>
      <point x="439" y="13"/>
      <point x="430" y="27"/>
      <point x="420" y="52" type="curve"/>
      <point x="418" y="70" type="line" name="hr02"/>
      <point x="407" y="52" type="line"/>
      <point x="363" y="5"/>
      <point x="309" y="-11"/>
      <point x="268" y="-11" type="curve" smooth="yes"/>
      <point x="127" y="-11"/>
      <point x="45" y="107"/>
    </contour>
  </outline>
</glyph>
<glyph name="e" format="1">
  <advance width="550"/>
  <unicode hex="0065"/>
  <outline>
    <contour>
      <point x="278" y="317" type="curve" name="hr00"/>
      <point x="394" y="317" type="line"/>
      <point x="403" y="389"/>
      <point x="357" y="449"/>
      <point x="294" y="449" type="curve" smooth="yes"/>
      <point x="218" y="449"/>
      <point x="159" y="385"/>
      <point x="159" y="265" type="curve" smooth="yes"/>
      <point x="159" y="147"/>
      <point x="224" y="70"/>
      <point x="313" y="70" type="curve" smooth="yes"/>
      <point x="359" y="70"/>
      <point x="396" y="78"/>
      <point x="454" y="106" type="curve"/>
      <point x="482" y="33" type="line"/>
      <point x="415" y="-1"/>
      <point x="353" y="-11"/>
      <point x="301" y="-11" type="curve" smooth="yes"/>
      <point x="144" y="-11"/>
      <point x="53" y="114"/>
      <point x="53" y="264" type="curve" smooth="yes"/>
      <point x="53" y="427"/>
      <point x="153" y="528"/>
      <point x="303" y="528" type="curve" smooth="yes"/>
      <point x="443" y="528"/>
      <point x="531" y="397"/>
      <point x="483" y="246" type="curve"/>
      <point x="195" y="246" type="line"/>
      <point x="209" y="286"/>
      <point x="234" y="317"/>
    </contour>
  </outline>
</glyph>
<glyph name="f" format="1">
  <advance width="404"/>
  <unicode hex="0066"/>
  <outline>
    <contour>
      <point x="320" y="517" type="curve" name="hr00"/>
      <point x="375" y="517" type="line"/>
      <point x="375" y="439" type="line"/>
      <point x="231" y="439" type="line"/>
      <point x="244" y="479"/>
      <point x="269" y="517"/>
    </contour>
    <contour>
      <point x="95" y="439" type="line"/>
      <point x="10" y="439" type="line"/>
      <point x="10" y="496" type="line"/>
      <point x="95" y="517" type="line"/>
      <point x="95" y="545" type="line" smooth="yes"/>
      <point x="95" y="677"/>
      <point x="169" y="763"/>
      <point x="295" y="763" type="curve" smooth="yes"/>
      <point x="328" y="763"/>
      <point x="372" y="757"/>
      <point x="419" y="736" type="curve"/>
      <point x="395" y="667" type="line"/>
      <point x="354" y="681"/>
      <point x="329" y="685"/>
      <point x="307" y="685" type="curve" smooth="yes"/>
      <point x="248" y="685"/>
      <point x="195" y="643"/>
      <point x="195" y="552" type="curve" smooth="yes"/>
      <point x="195" y="0" type="line"/>
      <point x="95" y="0" type="line"/>
    </contour>
  </outline>
</glyph>
<glyph name="g" format="1">
  <advance width="577"/>
  <unicode hex="0067"/>
  <outline>
    <contour>
      <point x="50" y="251" type="curve" smooth="yes" name="hr00"/>
      <point x="50" y="413"/>
      <point x="158" y="528"/>
      <point x="320" y="528" type="curve" smooth="yes"/>
      <point x="376" y="528"/>
      <point x="428" y="520"/>
      <point x="506" y="496" type="curve"/>
      <point x="506" y="0" type="line" smooth="yes"/>
      <point x="506" y="-159"/>
      <point x="406" y="-250"/>
      <point x="260" y="-250" type="curve" smooth="yes"/>
      <point x="208" y="-250"/>
      <point x="144" y="-242"/>
      <point x="75" y="-208" type="curve"/>
      <point x="103" y="-133" type="line"/>
      <point x="163" y="-160"/>
      <point x="210" y="-170"/>
      <point x="252" y="-170" type="curve" smooth="yes"/>
      <point x="334" y="-170"/>
      <point x="402" y="-119"/>
      <point x="402" y="-11" type="curve" smooth="yes"/>
      <point x="402" y="436" type="line"/>
      <point x="372" y="444"/>
      <point x="347" y="447"/>
      <point x="322" y="447" type="curve" smooth="yes"/>
      <point x="225" y="447"/>
      <point x="163" y="374"/>
      <point x="163" y="251" type="curve" smooth="yes"/>
      <point x="163" y="153"/>
      <point x="201" y="68"/>
      <point x="286" y="76" type="curve" smooth="yes"/>
      <point x="318" y="78"/>
      <point x="344" y="62"/>
      <point x="367" y="30" type="curve"/>
      <point x="333" y="8"/>
      <point x="294" y="-5"/>
      <point x="263" y="-7" type="curve"/>
      <point x="142" y="-15"/>
      <point x="50" y="101"/>
    </contour>
  </outline>
</glyph>
<glyph name="h" format="1">
  <advance width="590"/>
  <unicode hex="0068"/>
  <outline>
    <contour>
      <point x="403" y="0" type="line" name="hr00"/>
      <point x="403" y="373" type="line" smooth="yes"/>
      <point x="403" y="416"/>
      <point x="387" y="446"/>
      <point x="351" y="446" type="curve" smooth="yes"/>
      <point x="328" y="446"/>
      <point x="300" y="432"/>
      <point x="274" y="438" type="curve" smooth="yes"/>
      <point x="254" y="440"/>
      <point x="237" y="456"/>
      <point x="222" y="477" type="curve"/>
      <point x="291" y="518"/>
      <point x="335" y="528"/>
      <point x="372" y="528" type="curve" smooth="yes"/>
      <point x="447" y="528"/>
      <point x="512" y="487"/>
      <point x="512" y="367" type="curve" smooth="yes"/>
      <point x="512" y="0" type="line"/>
    </contour>
    <contour>
      <point x="186" y="0" type="line"/>
      <point x="80" y="0" type="line"/>
      <point x="80" y="758" type="line"/>
      <point x="186" y="758" type="line"/>
    </contour>
  </outline>
</glyph>
<glyph name="i" format="1">
  <advance width="263"/>
  <unicode hex="0069"/>
  <outline>
    <contour>
      <point x="65" y="667" type="curve" smooth="yes"/>
      <point x="65" y="705"/>
      <point x="94" y="735"/>
      <point x="131" y="735" type="curve" smooth="yes"/>
      <point x="170" y="735"/>
      <point x="198" y="705"/>
      <point x="198" y="667" type="curve" smooth="yes"/>
      <point x="198" y="630"/>
      <point x="170" y="601"/>
      <point x="131" y="601" type="curve" smooth="yes"/>
      <point x="94" y="601"/>
      <point x="65" y="630"/>
    </contour>
    <contour>
      <point x="186" y="0" type="line" name="hr01"/>
      <point x="77" y="0" type="line"/>
      <point x="77" y="517" type="line"/>
      <point x="186" y="517" type="line"/>
    </contour>
  </outline>
</glyph>
<glyph name="j" format="1">
  <advance width="284"/>
  <unicode hex="006A"/>
  <outline>
    <contour>
      <point x="204" y="517" type="line"/>
      <point x="204" y="42" type="line" smooth="yes"/>
      <point x="204" y="-70"/>
      <point x="170" y="-144"/>
      <point x="20" y="-248" type="curve"/>
      <point x="-28" y="-189" type="line"/>
      <point x="78" y="-98"/>
      <point x="96" y="-54"/>
      <point x="96" y="42" type="curve" smooth="yes"/>
      <point x="96" y="517" type="line"/>
    </contour>
    <contour>
      <point x="84" y="667" type="curve" smooth="yes" name="hr01"/>
      <point x="84" y="706"/>
      <point x="111" y="735"/>
      <point x="149" y="735" type="curve" smooth="yes"/>
      <point x="189" y="735"/>
      <point x="218" y="706"/>
      <point x="218" y="667" type="curve" smooth="yes"/>
      <point x="218" y="629"/>
      <point x="189" y="601"/>
      <point x="149" y="601" type="curve" smooth="yes"/>
      <point x="111" y="601"/>
      <point x="84" y="629"/>
    </contour>
  </outline>
</glyph>
<glyph name="k" format="1">
  <advance width="593"/>
  <unicode hex="006B"/>
  <outline>
    <contour>
      <point x="541" y="517" type="line" name="hr00"/>
      <point x="375" y="336" type="line"/>
      <point x="571" y="0" type="line"/>
      <point x="451" y="0" type="line"/>
      <point x="333" y="221" type="line"/>
      <point x="310" y="266" type="line"/>
      <point x="236" y="182" type="line"/>
      <point x="222" y="230"/>
      <point x="230" y="291"/>
      <point x="265" y="337" type="curve" smooth="yes"/>
      <point x="277" y="354"/>
      <point x="290" y="369"/>
      <point x="303" y="385" type="curve" smooth="yes"/>
      <point x="416" y="517" type="line"/>
    </contour>
    <contour>
      <point x="186" y="758" type="line"/>
      <point x="186" y="0" type="line"/>
      <point x="80" y="0" type="line"/>
      <point x="80" y="758" type="line"/>
    </contour>
  </outline>
</glyph>
<glyph name="m" format="1">
  <advance width="910"/>
  <unicode hex="006D"/>
  <outline>
    <contour>
      <point x="724" y="0" type="line"/>
      <point x="724" y="373" type="line" smooth="yes"/>
      <point x="724" y="416"/>
      <point x="706" y="446"/>
      <point x="665" y="446" type="curve" smooth="yes"/>
      <point x="640" y="446"/>
      <point x="609" y="432"/>
      <point x="582" y="438" type="curve" smooth="yes"/>
      <point x="560" y="440"/>
      <point x="542" y="457"/>
      <point x="527" y="478" type="curve"/>
      <point x="599" y="516"/>
      <point x="647" y="528"/>
      <point x="686" y="528" type="curve" smooth="yes"/>
      <point x="762" y="528"/>
      <point x="832" y="487"/>
      <point x="832" y="367" type="curve" smooth="yes"/>
      <point x="832" y="0" type="line"/>
    </contour>
    <contour>
      <point x="403" y="0" type="line"/>
      <point x="403" y="373" type="line" smooth="yes"/>
      <point x="403" y="416"/>
      <point x="387" y="446"/>
      <point x="349" y="446" type="curve" smooth="yes"/>
      <point x="323" y="446"/>
      <point x="295" y="433"/>
      <point x="270" y="439" type="curve" smooth="yes"/>
      <point x="249" y="441"/>
      <point x="232" y="458"/>
      <point x="216" y="479" type="curve"/>
      <point x="288" y="517"/>
      <point x="332" y="528"/>
      <point x="371" y="528" type="curve" smooth="yes"/>
      <point x="447" y="528"/>
      <point x="512" y="487"/>
      <point x="512" y="367" type="curve" smooth="yes"/>
      <point x="512" y="0" type="line"/>
    </contour>
    <contour>
      <point x="67" y="517" type="curve" name="hr01"/>
      <point x="152" y="517" type="line"/>
      <point x="184" y="481"/>
      <point x="191" y="447"/>
      <point x="191" y="407" type="curve" smooth="yes"/>
      <point x="191" y="0" type="line"/>
      <point x="82" y="0" type="line"/>
      <point x="82" y="391" type="line" smooth="yes"/>
      <point x="82" y="428"/>
      <point x="78" y="470"/>
    </contour>
  </outline>
</glyph>
<glyph name="n" format="1">
  <advance width="591"/>
  <unicode hex="006E"/>
  <outline>
    <contour>
      <point x="402" y="0" type="line"/>
      <point x="402" y="373" type="line" smooth="yes"/>
      <point x="402" y="416"/>
      <point x="384" y="446"/>
      <point x="345" y="446" type="curve" smooth="yes"/>
      <point x="319" y="446"/>
      <point x="291" y="432"/>
      <point x="264" y="438" type="curve" smooth="yes"/>
      <point x="243" y="440"/>
      <point x="226" y="457"/>
      <point x="211" y="477" type="curve"/>
      <point x="280" y="517"/>
      <point x="326" y="528"/>
      <point x="365" y="528" type="curve" smooth="yes"/>
      <point x="441" y="528"/>
      <point x="511" y="487"/>
      <point x="511" y="367" type="curve" smooth="yes"/>
      <point x="511" y="0" type="line"/>
    </contour>
    <contour>
      <point x="60" y="517" type="curve" name="hr01"/>
      <point x="145" y="517" type="line"/>
      <point x="177" y="481"/>
      <point x="184" y="447"/>
      <point x="184" y="407" type="curve" smooth="yes"/>
      <point x="184" y="0" type="line"/>
      <point x="76" y="0" type="line"/>
      <point x="76" y="391" type="line" smooth="yes"/>
      <point x="76" y="428"/>
      <point x="71" y="470"/>
    </contour>
  </outline>
</glyph>
<glyph name="o" format="1">
  <advance width="579"/>
  <unicode hex="006F"/>
  <outline>
    <contour>
      <point x="151" y="259" type="curve" smooth="yes" name="hr00"/>
      <point x="151" y="148"/>
      <point x="201" y="70"/>
      <point x="287" y="70" type="curve" smooth="yes"/>
      <point x="379" y="70"/>
      <point x="422" y="156"/>
      <point x="422" y="259" type="curve" smooth="yes"/>
      <point x="422" y="381"/>
      <point x="364" y="447"/>
      <point x="287" y="447" type="curve" smooth="yes"/>
      <point x="211" y="447"/>
      <point x="151" y="381"/>
    </contour>
    <contour>
      <point x="38" y="259" type="curve" smooth="yes"/>
      <point x="38" y="443"/>
      <point x="170" y="528"/>
      <point x="287" y="528" type="curve" smooth="yes"/>
      <point x="442" y="528"/>
      <point x="536" y="412"/>
      <point x="536" y="259" type="curve" smooth="yes"/>
      <point x="536" y="86"/>
      <point x="417" y="-11"/>
      <point x="287" y="-11" type="curve" smooth="yes"/>
      <point x="151" y="-11"/>
      <point x="38" y="85"/>
    </contour>
  </outline>
</glyph>
<glyph name="p" format="1">
  <advance width="605"/>
  <unicode hex="0070"/>
  <outline>
    <contour>
      <point x="557" y="256" type="curve" smooth="yes"/>
      <point x="557" y="101"/>
      <point x="447" y="-7"/>
      <point x="329" y="-7" type="curve" smooth="yes"/>
      <point x="297" y="-7"/>
      <point x="265" y="-3"/>
      <point x="225" y="10" type="curve"/>
      <point x="243" y="47"/>
      <point x="271" y="73"/>
      <point x="313" y="73" type="curve" smooth="yes"/>
      <point x="386" y="73"/>
      <point x="444" y="133"/>
      <point x="444" y="256" type="curve" smooth="yes"/>
      <point x="444" y="365"/>
      <point x="399" y="447"/>
      <point x="317" y="447" type="curve" smooth="yes"/>
      <point x="273" y="447"/>
      <point x="231" y="424"/>
      <point x="190" y="375" type="curve"/>
      <point x="190" y="-241" type="line"/>
      <point x="84" y="-241" type="line"/>
      <point x="84" y="341" type="line" smooth="yes"/>
      <point x="84" y="417"/>
      <point x="79" y="471"/>
      <point x="69" y="517" type="curve" name="hr01"/>
      <point x="147" y="517" type="line"/>
      <point x="164" y="504"/>
      <point x="174" y="489"/>
      <point x="183" y="464" type="curve"/>
      <point x="185" y="447" type="line" name="hr02"/>
      <point x="195" y="465" type="line"/>
      <point x="240" y="512"/>
      <point x="294" y="528"/>
      <point x="335" y="528" type="curve" smooth="yes"/>
      <point x="476" y="528"/>
      <point x="557" y="410"/>
    </contour>
  </outline>
</glyph>
<glyph name="q" format="1">
  <advance width="589"/>
  <unicode hex="0071"/>
  <outline>
    <contour>
      <point x="369" y="30" type="curve" name="hr00"/>
      <point x="335" y="8"/>
      <point x="296" y="-5"/>
      <point x="265" y="-7" type="curve"/>
      <point x="144" y="-15"/>
      <point x="52" y="101"/>
      <point x="52" y="251" type="curve" smooth="yes"/>
      <point x="52" y="413"/>
      <point x="161" y="528"/>
      <point x="323" y="528" type="curve" smooth="yes"/>
      <point x="379" y="528"/>
      <point x="430" y="520"/>
      <point x="508" y="496" type="curve"/>
      <point x="508" y="-241" type="line"/>
      <point x="404" y="-241" type="line"/>
      <point x="404" y="436" type="line"/>
      <point x="374" y="444"/>
      <point x="349" y="447"/>
      <point x="324" y="447" type="curve" smooth="yes"/>
      <point x="227" y="447"/>
      <point x="165" y="374"/>
      <point x="165" y="251" type="curve" smooth="yes"/>
      <point x="165" y="153"/>
      <point x="203" y="68"/>
      <point x="288" y="76" type="curve" smooth="yes"/>
      <point x="320" y="78"/>
      <point x="346" y="62"/>
    </contour>
  </outline>
</glyph>
<glyph name="r" format="1">
  <advance width="391"/>
  <unicode hex="0072"/>
  <outline>
    <contour>
      <point x="65" y="517" type="curve"/>
      <point x="145" y="517" type="line"/>
      <point x="163" y="499"/>
      <point x="172" y="471"/>
      <point x="178" y="439" type="curve"/>
      <point x="178" y="419" type="line"/>
      <point x="187" y="439" type="line"/>
      <point x="213" y="490"/>
      <point x="264" y="525"/>
      <point x="315" y="525" type="curve" smooth="yes" name="hr01"/>
      <point x="332" y="525"/>
      <point x="349" y="522"/>
      <point x="369" y="516" type="curve"/>
      <point x="356" y="428" type="line"/>
      <point x="333" y="433"/>
      <point x="318" y="435"/>
      <point x="305" y="435" type="curve" smooth="yes"/>
      <point x="241" y="435"/>
      <point x="182" y="380"/>
      <point x="182" y="266" type="curve" smooth="yes"/>
      <point x="182" y="0" type="line"/>
      <point x="81" y="0" type="line"/>
      <point x="81" y="345" type="line" smooth="yes"/>
      <point x="81" y="402"/>
      <point x="77" y="465"/>
    </contour>
  </outline>
</glyph>
<glyph name="s" format="1">
  <advance width="422"/>
  <unicode hex="0073"/>
  <outline>
    <contour>
      <point x="34" y="32" type="curve" name="hr00"/>
      <point x="61" y="106" type="line"/>
      <point x="115" y="81"/>
      <point x="167" y="71"/>
      <point x="209" y="71" type="curve" smooth="yes"/>
      <point x="266" y="71"/>
      <point x="293" y="100"/>
      <point x="293" y="139" type="curve" smooth="yes"/>
      <point x="293" y="242"/>
      <point x="51" y="223"/>
      <point x="51" y="388" type="curve" smooth="yes"/>
      <point x="51" y="452"/>
      <point x="104" y="526"/>
      <point x="218" y="526" type="curve" smooth="yes"/>
      <point x="258" y="526"/>
      <point x="303" y="520"/>
      <point x="361" y="500" type="curve"/>
      <point x="335" y="428" type="line"/>
      <point x="290" y="442"/>
      <point x="257" y="447"/>
      <point x="227" y="447" type="curve" smooth="yes"/>
      <point x="184" y="447"/>
      <point x="153" y="427"/>
      <point x="153" y="389" type="curve" smooth="yes"/>
      <point x="153" y="289"/>
      <point x="395" y="304"/>
      <point x="395" y="137" type="curve" smooth="yes"/>
      <point x="395" y="55"/>
      <point x="313" y="-10"/>
      <point x="224" y="-10" type="curve" smooth="yes"/>
      <point x="173" y="-10"/>
      <point x="115" y="-6"/>
    </contour>
  </outline>
</glyph>
<glyph name="t" format="1">
  <advance width="434"/>
  <unicode hex="0074"/>
  <outline>
    <contour>
      <point x="381" y="439" type="line" name="hr00"/>
      <point x="327" y="439" type="line" smooth="yes"/>
      <point x="277" y="439"/>
      <point x="252" y="477"/>
      <point x="239" y="517" type="curve"/>
      <point x="381" y="517" type="line"/>
    </contour>
    <contour>
      <point x="103" y="193" type="curve"/>
      <point x="103" y="439" type="line"/>
      <point x="13" y="439" type="line"/>
      <point x="13" y="494" type="line"/>
      <point x="103" y="517" type="line"/>
      <point x="103" y="646" type="line"/>
      <point x="203" y="679" type="line"/>
      <point x="203" y="185" type="line" smooth="yes"/>
      <point x="203" y="117"/>
      <point x="235" y="68"/>
      <point x="283" y="68" type="curve" smooth="yes"/>
      <point x="307" y="68"/>
      <point x="329" y="72"/>
      <point x="364" y="83" type="curve"/>
      <point x="388" y="12" type="line"/>
      <point x="337" y="-5"/>
      <point x="312" y="-12"/>
      <point x="279" y="-12" type="curve" smooth="yes"/>
      <point x="165" y="-12"/>
      <point x="103" y="63"/>
    </contour>
  </outline>
</glyph>
<glyph name="u" format="1">
  <advance width="595"/>
  <unicode hex="0075"/>
  <outline>
    <contour>
      <point x="177" y="517" type="line"/>
      <point x="177" y="144" type="line" smooth="yes"/>
      <point x="177" y="101"/>
      <point x="194" y="71"/>
      <point x="233" y="71" type="curve" smooth="yes"/>
      <point x="253" y="71"/>
      <point x="277" y="81"/>
      <point x="302" y="81" type="curve" smooth="yes"/>
      <point x="328" y="80"/>
      <point x="349" y="63"/>
      <point x="368" y="40" type="curve"/>
      <point x="298" y="0"/>
      <point x="252" y="-11"/>
      <point x="213" y="-11" type="curve" smooth="yes"/>
      <point x="137" y="-11"/>
      <point x="70" y="30"/>
      <point x="70" y="150" type="curve" smooth="yes"/>
      <point x="70" y="517" type="line"/>
    </contour>
    <contour>
      <point x="516" y="0" type="curve" name="hr01"/>
      <point x="433" y="0" type="line"/>
      <point x="401" y="36"/>
      <point x="394" y="70"/>
      <point x="394" y="110" type="curve" smooth="yes"/>
      <point x="394" y="517" type="line"/>
      <point x="500" y="517" type="line"/>
      <point x="500" y="126" type="line" smooth="yes"/>
      <point x="500" y="89"/>
      <point x="505" y="47"/>
    </contour>
  </outline>
</glyph>
<glyph name="v" format="1">
  <advance width="525"/>
  <unicode hex="0076"/>
  <outline>
    <contour>
      <point x="320" y="0" type="line" name="hr00"/>
      <point x="207" y="0" type="line"/>
      <point x="13" y="517" type="line"/>
      <point x="127" y="517" type="line"/>
      <point x="266" y="98" type="line"/>
      <point x="273" y="125" type="line"/>
      <point x="404" y="517" type="line"/>
      <point x="514" y="517" type="line"/>
    </contour>
  </outline>
</glyph>
<glyph name="w" format="1">
  <advance width="863"/>
  <unicode hex="0077"/>
  <outline>
    <contour>
      <point x="665" y="0" type="line" name="hr00"/>
      <point x="550" y="0" type="line"/>
      <point x="368" y="517" type="line"/>
      <point x="482" y="517" type="line"/>
      <point x="610" y="98" type="line"/>
      <point x="737" y="517" type="line"/>
      <point x="847" y="517" type="line"/>
    </contour>
    <contour>
      <point x="396" y="160" type="curve"/>
      <point x="329" y="0" type="line"/>
      <point x="219" y="0" type="line"/>
      <point x="36" y="517" type="line"/>
      <point x="150" y="517" type="line"/>
      <point x="278" y="98" type="line"/>
      <point x="285" y="125" type="line"/>
      <point x="371" y="355" type="line"/>
      <point x="402" y="315"/>
      <point x="422" y="230"/>
    </contour>
  </outline>
</glyph>
<glyph name="x" format="1">
  <advance width="503"/>
  <unicode hex="0078"/>
  <outline>
    <contour>
      <point x="188" y="94" type="curve" name="hr00"/>
      <point x="129" y="0" type="line"/>
      <point x="16" y="0" type="line"/>
      <point x="170" y="224" type="line"/>
      <point x="197" y="192"/>
      <point x="216" y="140"/>
    </contour>
    <contour>
      <point x="482" y="0" type="line"/>
      <point x="363" y="0" type="line"/>
      <point x="309" y="86"/>
      <point x="254" y="171"/>
      <point x="197" y="256" type="curve" smooth="yes"/>
      <point x="25" y="517" type="line"/>
      <point x="146" y="517" type="line"/>
      <point x="244" y="348" type="line"/>
      <point x="250" y="327" type="line"/>
      <point x="258" y="348" type="line"/>
      <point x="358" y="517" type="line"/>
      <point x="472" y="517" type="line"/>
      <point x="301" y="261" type="line"/>
    </contour>
  </outline>
</glyph>
<glyph name="y" format="1">
  <advance width="550"/>
  <unicode hex="0079"/>
  <outline>
    <contour>
      <point x="123" y="-166" type="curve" smooth="yes" name="hr00"/>
      <point x="198" y="-166"/>
      <point x="221" y="-82"/>
      <point x="262" y="37" type="curve"/>
      <point x="415" y="517" type="line"/>
      <point x="525" y="517" type="line"/>
      <point x="342" y="11" type="line"/>
      <point x="285" y="-138"/>
      <point x="251" y="-247"/>
      <point x="123" y="-247" type="curve" smooth="yes"/>
      <point x="96" y="-246"/>
      <point x="64" y="-240"/>
      <point x="35" y="-230" type="curve"/>
      <point x="62" y="-157" type="line"/>
      <point x="84" y="-163"/>
      <point x="104" y="-166"/>
    </contour>
    <contour>
      <point x="129" y="517" type="line"/>
      <point x="163" y="408"/>
      <point x="204" y="295"/>
      <point x="230" y="188" type="curve"/>
      <point x="247" y="121"/>
      <point x="231" y="47"/>
      <point x="202" y="11" type="curve"/>
      <point x="16" y="517" type="line"/>
    </contour>
  </outline>
</glyph>
<glyph name="z" format="1">
  <advance width="456"/>
  <unicode hex="007A"/>
  <outline>
    <contour>
      <point x="65" y="442" type="line" name="hr00"/>
      <point x="65" y="517" type="line"/>
      <point x="422" y="517" type="line"/>
      <point x="422" y="473" type="line"/>
      <point x="196" y="126" type="line" smooth="yes"/>
      <point x="188" y="114"/>
      <point x="181" y="102"/>
      <point x="173" y="91" type="curve"/>
      <point x="158" y="74" type="line"/>
      <point x="180" y="77" type="line"/>
      <point x="427" y="77" type="line"/>
      <point x="427" y="0" type="line"/>
      <point x="34" y="0" type="line"/>
      <point x="34" y="44" type="line"/>
      <point x="285" y="428" type="line"/>
      <point x="300" y="445" type="line"/>
      <point x="279" y="442" type="line"/>
    </contour>
  </outline>
</glyph>
<glyph name="braceleft" format="1">
  <advance width="403"/>
  <unicode hex="007B"/>
  <outline>
    <contour>
      <point x="173" y="191" type="curve" smooth="yes" name="hr00"/>
      <point x="170" y="238"/>
      <point x="127" y="265"/>
      <point x="76" y="274" type="curve"/>
      <point x="76" y="335" type="line"/>
      <point x="127" y="344"/>
      <point x="171" y="371"/>
      <point x="175" y="418" type="curve" smooth="yes"/>
      <point x="187" y="582"/>
      <point x="231" y="684"/>
      <point x="354" y="767" type="curve"/>
      <point x="401" y="713" type="line"/>
      <point x="308" y="636"/>
      <point x="277" y="559"/>
      <point x="268" y="439" type="curve" smooth="yes"/>
      <point x="264" y="384"/>
      <point x="235" y="342"/>
      <point x="193" y="314" type="curve"/>
      <point x="168" y="303" type="line"/>
      <point x="193" y="292" type="line"/>
      <point x="231" y="266"/>
      <point x="258" y="230"/>
      <point x="264" y="183" type="curve" smooth="yes"/>
      <point x="267" y="166"/>
      <point x="270" y="148"/>
      <point x="271" y="130" type="curve" smooth="yes"/>
      <point x="283" y="21"/>
      <point x="315" y="-51"/>
      <point x="401" y="-121" type="curve"/>
      <point x="354" y="-176" type="line"/>
      <point x="226" y="-90"/>
      <point x="184" y="13"/>
    </contour>
  </outline>
</glyph>
<glyph name="bar" format="1">
  <advance width="317"/>
  <unicode hex="007C"/>
  <outline>
    <contour>
      <point x="208" y="-293" type="line" name="hr00"/>
      <point x="115" y="-293" type="line"/>
      <point x="115" y="811" type="line"/>
      <point x="208" y="811" type="line"/>
    </contour>
  </outline>
</glyph>
<glyph name="braceright" format="1">
  <advance width="410"/>
  <unicode hex="007D"/>
  <outline>
    <contour>
      <point x="308" y="191" type="curve" smooth="yes" name="hr00"/>
      <point x="298" y="13"/>
      <point x="255" y="-90"/>
      <point x="128" y="-176" type="curve"/>
      <point x="80" y="-121" type="line"/>
      <point x="166" y="-51"/>
      <point x="200" y="21"/>
      <point x="210" y="130" type="curve" smooth="yes"/>
      <point x="218" y="205"/>
      <point x="227" y="252"/>
      <point x="290" y="293" type="curve"/>
      <point x="314" y="303" type="line"/>
      <point x="289" y="314" type="line"/>
      <point x="247" y="342"/>
      <point x="218" y="384"/>
      <point x="214" y="439" type="curve" smooth="yes"/>
      <point x="205" y="559"/>
      <point x="174" y="636"/>
      <point x="80" y="713" type="curve"/>
      <point x="128" y="767" type="line"/>
      <point x="250" y="684"/>
      <point x="294" y="582"/>
      <point x="306" y="418" type="curve"/>
      <point x="310" y="371"/>
      <point x="354" y="344"/>
      <point x="405" y="335" type="curve"/>
      <point x="405" y="274" type="line"/>
      <point x="354" y="265"/>
      <point x="312" y="238"/>
    </contour>
  </outline>
</glyph>
<glyph name="asciitilde" format="1">
  <advance width="614"/>
  <unicode hex="007E"/>
  <outline>
    <contour>
      <point x="154" y="228" type="curve" name="hr00"/>
      <point x="63" y="236" type="line"/>
      <point x="67" y="336"/>
      <point x="132" y="386"/>
      <point x="215" y="386" type="curve" smooth="yes"/>
      <point x="307" y="386"/>
      <point x="348" y="306"/>
      <point x="426" y="306" type="curve" smooth="yes"/>
      <point x="456" y="306"/>
      <point x="474" y="338"/>
      <point x="478" y="384" type="curve"/>
      <point x="569" y="376" type="line"/>
      <point x="562" y="263"/>
      <point x="497" y="227"/>
      <point x="422" y="226" type="curve" smooth="yes"/>
      <point x="324" y="225"/>
      <point x="284" y="307"/>
      <point x="213" y="307" type="curve" smooth="yes"/>
      <point x="184" y="307"/>
      <point x="158" y="280"/>
    </contour>
  </outline>
</glyph>
<glyph name="exclamdown" format="1">
  <advance width="351"/>
  <unicode hex="00A1"/>
  <outline>
    <contour>
      <point x="49" y="466" type="curve" smooth="yes" name="hr00"/>
      <point x="49" y="504"/>
      <point x="77" y="532"/>
      <point x="115" y="532" type="curve" smooth="yes"/>
      <point x="153" y="532"/>
      <point x="182" y="504"/>
      <point x="182" y="466" type="curve" smooth="yes"/>
      <point x="182" y="428"/>
      <point x="153" y="398"/>
      <point x="115" y="398" type="curve" smooth="yes"/>
      <point x="77" y="398"/>
      <point x="49" y="428"/>
    </contour>
    <contour>
      <point x="171" y="-210" type="line"/>
      <point x="63" y="-210" type="line"/>
      <point x="77" y="319" type="line"/>
      <point x="155" y="319" type="line"/>
    </contour>
  </outline>
</glyph>
<glyph name="cent" format="1">
  <advance width="427"/>
  <unicode hex="00A2"/>
  <outline>
    <contour>
      <point x="422" y="119" type="line" name="hr00"/>
      <point x="383" y="100"/>
      <point x="347" y="91"/>
      <point x="318" y="86" type="curve"/>
      <point x="318" y="-14" type="line"/>
      <point x="238" y="-14" type="line"/>
      <point x="238" y="88" type="line"/>
      <point x="124" y="107"/>
      <point x="38" y="197"/>
      <point x="38" y="354" type="curve" smooth="yes"/>
      <point x="38" y="507"/>
      <point x="127" y="598"/>
      <point x="238" y="618" type="curve"/>
      <point x="238" y="716" type="line"/>
      <point x="318" y="716" type="line"/>
      <point x="318" y="622" type="line"/>
      <point x="347" y="619"/>
      <point x="379" y="613"/>
      <point x="408" y="602" type="curve"/>
      <point x="381" y="528" type="line"/>
      <point x="346" y="538"/>
      <point x="314" y="542"/>
      <point x="287" y="542" type="curve" smooth="yes"/>
      <point x="212" y="542"/>
      <point x="151" y="480"/>
      <point x="151" y="354" type="curve" smooth="yes"/>
      <point x="151" y="228"/>
      <point x="211" y="165"/>
      <point x="287" y="165" type="curve" smooth="yes"/>
      <point x="315" y="165"/>
      <point x="349" y="173"/>
      <point x="394" y="193" type="curve"/>
    </contour>
  </outline>
</glyph>
<glyph name="sterling" format="1">
  <advance width="513"/>
  <unicode hex="00A3"/>
  <outline>
    <contour>
      <point x="452" y="316" type="line"/>
      <point x="380" y="316" type="line" smooth="yes"/>
      <point x="329" y="316"/>
      <point x="306" y="351"/>
      <point x="292" y="391" type="curve"/>
      <point x="452" y="391" type="line"/>
    </contour>
    <contour>
      <point x="263" y="197" type="curve"/>
      <point x="253" y="160"/>
      <point x="237" y="135"/>
      <point x="213" y="106" type="curve"/>
      <point x="193" y="87" type="line"/>
      <point x="218" y="89" type="line"/>
      <point x="483" y="89" type="line"/>
      <point x="483" y="0" type="line"/>
      <point x="50" y="0" type="line"/>
      <point x="50" y="65" type="line"/>
      <point x="122" y="101"/>
      <point x="173" y="164"/>
      <point x="173" y="242" type="curve" smooth="yes"/>
      <point x="173" y="266"/>
      <point x="172" y="289"/>
      <point x="167" y="316" type="curve"/>
      <point x="71" y="316" type="line" name="hr01"/>
      <point x="71" y="391" type="line"/>
      <point x="156" y="391" type="line"/>
      <point x="150" y="422"/>
      <point x="145" y="470"/>
      <point x="145" y="512" type="curve" smooth="yes" name="hr02"/>
      <point x="145" y="641"/>
      <point x="237" y="712"/>
      <point x="355" y="712" type="curve" smooth="yes"/>
      <point x="402" y="712"/>
      <point x="450" y="702"/>
      <point x="509" y="675" type="curve"/>
      <point x="481" y="600" type="line"/>
      <point x="431" y="623"/>
      <point x="383" y="631"/>
      <point x="355" y="631" type="curve" smooth="yes"/>
      <point x="284" y="631"/>
      <point x="246" y="584"/>
      <point x="246" y="511" type="curve" smooth="yes"/>
      <point x="246" y="390"/>
      <point x="283" y="296"/>
    </contour>
  </outline>
</glyph>
<glyph name="currency" format="1">
  <advance width="513"/>
  <unicode hex="00A4"/>
  <outline>
    <contour>
      <point x="255" y="481" type="curve" smooth="yes" name="hr00"/>
      <point x="187" y="481"/>
      <point x="141" y="418"/>
      <point x="141" y="340" type="curve" smooth="yes"/>
      <point x="141" y="249"/>
      <point x="202" y="201"/>
      <point x="254" y="201" type="curve" smooth="yes"/>
      <point x="311" y="201"/>
      <point x="369" y="250"/>
      <point x="369" y="343" type="curve" smooth="yes"/>
      <point x="369" y="412"/>
      <point x="326" y="481"/>
    </contour>
    <contour>
      <point x="256" y="544" type="curve" smooth="yes"/>
      <point x="303" y="544"/>
      <point x="344" y="528"/>
      <point x="370" y="505" type="curve"/>
      <point x="447" y="576" type="line"/>
      <point x="489" y="531" type="line"/>
      <point x="410" y="460" type="line"/>
      <point x="429" y="434"/>
      <point x="444" y="392"/>
      <point x="444" y="344" type="curve" smooth="yes"/>
      <point x="444" y="291"/>
      <point x="428" y="248"/>
      <point x="410" y="223" type="curve"/>
      <point x="487" y="149" type="line"/>
      <point x="444" y="106" type="line"/>
      <point x="370" y="178" type="line"/>
      <point x="342" y="152"/>
      <point x="297" y="137"/>
      <point x="255" y="137" type="curve" smooth="yes"/>
      <point x="213" y="137"/>
      <point x="169" y="152"/>
      <point x="143" y="176" type="curve"/>
      <point x="71" y="105" type="line"/>
      <point x="27" y="150" type="line"/>
      <point x="101" y="221" type="line"/>
      <point x="82" y="246"/>
      <point x="65" y="290"/>
      <point x="65" y="340" type="curve" smooth="yes"/>
      <point x="65" y="391"/>
      <point x="83" y="433"/>
      <point x="103" y="460" type="curve"/>
      <point x="27" y="531" type="line"/>
      <point x="70" y="576" type="line"/>
      <point x="144" y="505" type="line"/>
      <point x="171" y="528"/>
      <point x="212" y="544"/>
    </contour>
  </outline>
</glyph>
<glyph name="yen" format="1">
  <advance width="660"/>
  <unicode hex="00A5"/>
  <outline>
    <contour>
      <point x="383" y="518" type="curve" name="hr00"/>
      <point x="499" y="727" type="line"/>
      <point x="619" y="727" type="line"/>
      <point x="405" y="376" type="line"/>
      <point x="381" y="408"/>
      <point x="354" y="466"/>
    </contour>
    <contour>
      <point x="111" y="259" type="line"/>
      <point x="111" y="312" type="line"/>
      <point x="271" y="312" type="line"/>
      <point x="271" y="312"/>
      <point x="271" y="312"/>
      <point x="271" y="313" type="curve"/>
      <point x="21" y="727" type="line"/>
      <point x="143" y="727" type="line"/>
      <point x="377" y="338" type="line"/>
      <point x="377" y="312" type="line"/>
      <point x="536" y="312" type="line"/>
      <point x="536" y="259" type="line"/>
      <point x="377" y="259" type="line"/>
      <point x="377" y="188" type="line"/>
      <point x="536" y="188" type="line"/>
      <point x="536" y="135" type="line"/>
      <point x="377" y="135" type="line"/>
      <point x="377" y="0" type="line"/>
      <point x="271" y="0" type="line"/>
      <point x="271" y="135" type="line"/>
      <point x="111" y="135" type="line"/>
      <point x="111" y="188" type="line"/>
      <point x="271" y="188" type="line"/>
      <point x="271" y="259" type="line"/>
    </contour>
  </outline>
</glyph>
<glyph name="section" format="1">
  <advance width="500"/>
  <unicode hex="00A7"/>
  <outline>
    <contour>
      <point x="367" y="330" type="curve" smooth="yes"/>
      <point x="367" y="381"/>
      <point x="291" y="402"/>
      <point x="216" y="432" type="curve"/>
      <point x="172" y="412"/>
      <point x="147" y="386"/>
      <point x="147" y="354" type="curve" smooth="yes"/>
      <point x="147" y="300"/>
      <point x="229" y="279"/>
      <point x="308" y="246" type="curve"/>
      <point x="349" y="271"/>
      <point x="367" y="300"/>
    </contour>
    <contour>
      <point x="36" y="-9" type="curve"/>
      <point x="67" y="62" type="line"/>
      <point x="127" y="38"/>
      <point x="191" y="27"/>
      <point x="241" y="27" type="curve" smooth="yes"/>
      <point x="315" y="27"/>
      <point x="353" y="53"/>
      <point x="353" y="96" type="curve" smooth="yes" name="hr01"/>
      <point x="353" y="205"/>
      <point x="53" y="183"/>
      <point x="53" y="352" type="curve" smooth="yes"/>
      <point x="53" y="389"/>
      <point x="78" y="429"/>
      <point x="124" y="456" type="curve"/>
      <point x="149" y="466" type="line"/>
      <point x="128" y="475" type="line"/>
      <point x="89" y="501"/>
      <point x="63" y="534"/>
      <point x="63" y="585" type="curve" smooth="yes"/>
      <point x="63" y="653"/>
      <point x="135" y="720"/>
      <point x="250" y="720" type="curve" smooth="yes"/>
      <point x="295" y="720"/>
      <point x="349" y="714"/>
      <point x="416" y="694" type="curve"/>
      <point x="387" y="623" type="line"/>
      <point x="336" y="637"/>
      <point x="295" y="643"/>
      <point x="262" y="643" type="curve" smooth="yes"/>
      <point x="199" y="643"/>
      <point x="161" y="623"/>
      <point x="161" y="586" type="curve" smooth="yes"/>
      <point x="161" y="478"/>
      <point x="461" y="498"/>
      <point x="461" y="325" type="curve" smooth="yes"/>
      <point x="461" y="281"/>
      <point x="434" y="244"/>
      <point x="394" y="220" type="curve"/>
      <point x="371" y="211" type="line"/>
      <point x="392" y="202" type="line"/>
      <point x="427" y="176"/>
      <point x="452" y="142"/>
      <point x="452" y="93" type="curve" smooth="yes"/>
      <point x="452" y="7"/>
      <point x="363" y="-51"/>
      <point x="255" y="-51" type="curve" smooth="yes"/>
      <point x="198" y="-51"/>
      <point x="124" y="-46"/>
    </contour>
  </outline>
</glyph>
<glyph name="dieresis" format="1">
  <advance width="442"/>
  <unicode hex="00A8"/>
  <outline>
    <contour>
      <point x="252" y="670" type="curve" smooth="yes" name="hr00"/>
      <point x="252" y="701"/>
      <point x="278" y="725"/>
      <point x="308" y="725" type="curve" smooth="yes"/>
      <point x="338" y="725"/>
      <point x="364" y="701"/>
      <point x="364" y="670" type="curve" smooth="yes"/>
      <point x="364" y="639"/>
      <point x="338" y="615"/>
      <point x="308" y="615" type="curve" smooth="yes"/>
      <point x="278" y="615"/>
      <point x="252" y="639"/>
    </contour>
    <contour>
      <point x="58" y="670" type="curve" smooth="yes"/>
      <point x="58" y="701"/>
      <point x="83" y="725"/>
      <point x="113" y="725" type="curve" smooth="yes"/>
      <point x="144" y="725"/>
      <point x="169" y="701"/>
      <point x="169" y="670" type="curve" smooth="yes"/>
      <point x="169" y="639"/>
      <point x="144" y="615"/>
      <point x="113" y="615" type="curve" smooth="yes"/>
      <point x="83" y="615"/>
      <point x="58" y="639"/>
    </contour>
  </outline>
</glyph>
<glyph name="copyright" format="1">
  <advance width="720"/>
  <unicode hex="00A9"/>
  <outline>
    <contour>
      <point x="377" y="176" type="curve" smooth="yes" name="hr00"/>
      <point x="286" y="176"/>
      <point x="212" y="240"/>
      <point x="212" y="357" type="curve" smooth="yes"/>
      <point x="212" y="473"/>
      <point x="288" y="537"/>
      <point x="377" y="537" type="curve" smooth="yes"/>
      <point x="402" y="537"/>
      <point x="432" y="532"/>
      <point x="460" y="523" type="curve"/>
      <point x="442" y="470" type="line"/>
      <point x="418" y="478"/>
      <point x="397" y="481"/>
      <point x="377" y="481" type="curve" smooth="yes"/>
      <point x="327" y="481"/>
      <point x="285" y="437"/>
      <point x="285" y="357" type="curve" smooth="yes"/>
      <point x="285" y="276"/>
      <point x="326" y="231"/>
      <point x="377" y="231" type="curve" smooth="yes"/>
      <point x="396" y="231"/>
      <point x="420" y="236"/>
      <point x="451" y="250" type="curve"/>
      <point x="469" y="199" type="line"/>
      <point x="432" y="181"/>
      <point x="398" y="176"/>
    </contour>
    <contour>
      <point x="357" y="620" type="curve" smooth="yes"/>
      <point x="210" y="619"/>
      <point x="107" y="513"/>
      <point x="107" y="354" type="curve" smooth="yes"/>
      <point x="107" y="196"/>
      <point x="210" y="93"/>
      <point x="357" y="92" type="curve"/>
      <point x="501" y="90"/>
      <point x="604" y="196"/>
      <point x="604" y="357" type="curve" smooth="yes"/>
      <point x="604" y="513"/>
      <point x="501" y="620"/>
    </contour>
    <contour>
      <point x="357" y="683" type="curve" smooth="yes"/>
      <point x="550" y="683"/>
      <point x="682" y="539"/>
      <point x="682" y="357" type="curve" smooth="yes"/>
      <point x="682" y="176"/>
      <point x="549" y="28"/>
      <point x="357" y="28" type="curve" smooth="yes"/>
      <point x="162" y="28"/>
      <point x="29" y="172"/>
      <point x="29" y="357" type="curve" smooth="yes"/>
      <point x="29" y="535"/>
      <point x="163" y="683"/>
    </contour>
  </outline>
</glyph>
<glyph name="ordfeminine" format="1">
  <advance width="527"/>
  <unicode hex="00AA"/>
  <outline>
    <contour>
      <point x="337" y="522" type="curve" name="hr00"/>
      <point x="337" y="422" type="line" smooth="yes"/>
      <point x="337" y="366"/>
      <point x="342" y="327"/>
      <point x="348" y="302" type="curve"/>
      <point x="292" y="302" type="line"/>
      <point x="277" y="312"/>
      <point x="267" y="330"/>
      <point x="267" y="350" type="curve"/>
      <point x="259" y="338" type="line"/>
      <point x="226" y="305"/>
      <point x="196" y="295"/>
      <point x="160" y="295" type="curve" smooth="yes"/>
      <point x="90" y="295"/>
      <point x="42" y="336"/>
      <point x="42" y="394" type="curve" smooth="yes"/>
      <point x="42" y="464"/>
      <point x="93" y="499"/>
      <point x="237" y="515" type="curve"/>
      <point x="234" y="498"/>
      <point x="224" y="461"/>
      <point x="187" y="456" type="curve"/>
      <point x="132" y="447"/>
      <point x="120" y="424"/>
      <point x="120" y="399" type="curve" smooth="yes"/>
      <point x="120" y="372"/>
      <point x="139" y="351"/>
      <point x="172" y="351" type="curve" smooth="yes"/>
      <point x="203" y="351"/>
      <point x="236" y="365"/>
      <point x="262" y="400" type="curve"/>
      <point x="262" y="527" type="line" smooth="yes"/>
      <point x="262" y="582"/>
      <point x="235" y="614"/>
      <point x="176" y="614" type="curve" smooth="yes"/>
      <point x="151" y="614"/>
      <point x="126" y="609"/>
      <point x="94" y="597" type="curve"/>
      <point x="77" y="647" type="line"/>
      <point x="122" y="667"/>
      <point x="158" y="671"/>
      <point x="189" y="671" type="curve" smooth="yes"/>
      <point x="282" y="671"/>
      <point x="337" y="616"/>
    </contour>
  </outline>
</glyph>
<glyph name="guillemotleft" format="1">
  <advance width="613"/>
  <unicode hex="00AB"/>
  <outline>
    <contour>
      <point x="543" y="49" type="line" name="hr00"/>
      <point x="322" y="258" type="line"/>
      <point x="543" y="468" type="line"/>
      <point x="590" y="422" type="line"/>
      <point x="451" y="258" type="line"/>
      <point x="590" y="94" type="line"/>
    </contour>
    <contour>
      <point x="286" y="49" type="line"/>
      <point x="65" y="258" type="line"/>
      <point x="286" y="468" type="line"/>
      <point x="333" y="422" type="line"/>
      <point x="194" y="258" type="line"/>
      <point x="333" y="94" type="line"/>
    </contour>
  </outline>
</glyph>
<glyph name="logicalnot" format="1">
  <advance width="575"/>
  <unicode hex="00AC"/>
  <outline>
    <contour>
      <point x="43" y="443" type="line" name="hr00"/>
      <point x="534" y="443" type="line"/>
      <point x="534" y="156" type="line"/>
      <point x="451" y="156" type="line"/>
      <point x="451" y="369" type="line"/>
      <point x="43" y="369" type="line"/>
    </contour>
  </outline>
</glyph>
<glyph name="uni00AD" format="1">
  <advance width="375"/>
  <unicode hex="00AD"/>
  <outline>
    <contour>
      <point x="347" y="268" type="line" name="hr00"/>
      <point x="45" y="268" type="line"/>
      <point x="45" y="342" type="line"/>
      <point x="347" y="342" type="line"/>
    </contour>
  </outline>
</glyph>
<glyph name="registered" format="1">
  <advance width="720"/>
  <unicode hex="00AE"/>
  <outline>
    <contour>
      <point x="491" y="431" type="curve" smooth="yes" name="hr00"/>
      <point x="491" y="390"/>
      <point x="467" y="358"/>
      <point x="426" y="344" type="curve"/>
      <point x="478" y="315"/>
      <point x="471" y="255"/>
      <point x="502" y="189" type="curve"/>
      <point x="430" y="189" type="line"/>
      <point x="405" y="243"/>
      <point x="410" y="312"/>
      <point x="361" y="331" type="curve"/>
      <point x="348" y="331"/>
      <point x="350" y="331"/>
      <point x="336" y="331" type="curve"/>
      <point x="343" y="350"/>
      <point x="353" y="374"/>
      <point x="382" y="379" type="curve" smooth="yes"/>
      <point x="405" y="383"/>
      <point x="420" y="406"/>
      <point x="420" y="431" type="curve" smooth="yes"/>
      <point x="420" y="460"/>
      <point x="394" y="483"/>
      <point x="354" y="483" type="curve" smooth="yes"/>
      <point x="342" y="483"/>
      <point x="334" y="482"/>
      <point x="316" y="480" type="curve"/>
      <point x="316" y="189" type="line"/>
      <point x="248" y="189" type="line"/>
      <point x="248" y="522" type="line"/>
      <point x="286" y="531"/>
      <point x="319" y="536"/>
      <point x="354" y="536" type="curve" smooth="yes"/>
      <point x="433" y="536"/>
      <point x="491" y="496"/>
    </contour>
    <contour>
      <point x="357" y="620" type="curve" smooth="yes"/>
      <point x="210" y="619"/>
      <point x="107" y="513"/>
      <point x="107" y="354" type="curve" smooth="yes"/>
      <point x="107" y="196"/>
      <point x="210" y="93"/>
      <point x="357" y="92" type="curve"/>
      <point x="501" y="90"/>
      <point x="604" y="196"/>
      <point x="604" y="357" type="curve" smooth="yes"/>
      <point x="604" y="513"/>
      <point x="501" y="620"/>
    </contour>
    <contour>
      <point x="357" y="683" type="curve" smooth="yes"/>
      <point x="550" y="683"/>
      <point x="682" y="539"/>
      <point x="682" y="357" type="curve" smooth="yes"/>
      <point x="682" y="176"/>
      <point x="549" y="28"/>
      <point x="357" y="28" type="curve" smooth="yes"/>
      <point x="162" y="28"/>
      <point x="29" y="172"/>
      <point x="29" y="357" type="curve" smooth="yes"/>
      <point x="29" y="535"/>
      <point x="163" y="683"/>
    </contour>
  </outline>
</glyph>
<glyph name="macron" format="1">
  <advance width="500"/>
  <unicode hex="00AF"/>
  <outline>
    <contour>
      <point x="408" y="610" type="line" name="hr00"/>
      <point x="114" y="610" type="line"/>
      <point x="114" y="680" type="line"/>
      <point x="408" y="680" type="line"/>
    </contour>
  </outline>
</glyph>
<glyph name="degree" format="1">
  <advance width="337"/>
  <unicode hex="00B0"/>
  <outline>
    <contour>
      <point x="26" y="623" type="curve" smooth="yes" name="hr00"/>
      <point x="26" y="701"/>
      <point x="93" y="766"/>
      <point x="175" y="766" type="curve" smooth="yes"/>
      <point x="247" y="766"/>
      <point x="324" y="714"/>
      <point x="324" y="623" type="curve" smooth="yes"/>
      <point x="324" y="534"/>
      <point x="247" y="480"/>
      <point x="175" y="480" type="curve" smooth="yes"/>
      <point x="96" y="480"/>
      <point x="26" y="539"/>
    </contour>
    <contour>
      <point x="175" y="710" type="curve" smooth="yes"/>
      <point x="124" y="710"/>
      <point x="95" y="667"/>
      <point x="95" y="623" type="curve" smooth="yes"/>
      <point x="95" y="577"/>
      <point x="124" y="537"/>
      <point x="175" y="537" type="curve" smooth="yes"/>
      <point x="228" y="537"/>
      <point x="256" y="583"/>
      <point x="256" y="623" type="curve" smooth="yes"/>
      <point x="256" y="677"/>
      <point x="217" y="710"/>
    </contour>
  </outline>
</glyph>
<glyph name="plusminus" format="1">
  <advance width="568"/>
  <unicode hex="00B1"/>
  <outline>
    <contour>
      <point x="515" y="0" type="line" name="hr00"/>
      <point x="47" y="0" type="line"/>
      <point x="47" y="73" type="line"/>
      <point x="515" y="73" type="line"/>
    </contour>
    <contour>
      <point x="47" y="298" type="line"/>
      <point x="47" y="372" type="line"/>
      <point x="239" y="372" type="line"/>
      <point x="239" y="540" type="line"/>
      <point x="322" y="540" type="line"/>
      <point x="322" y="372" type="line"/>
      <point x="515" y="372" type="line"/>
      <point x="515" y="298" type="line"/>
      <point x="322" y="298" type="line"/>
      <point x="322" y="128" type="line"/>
      <point x="239" y="128" type="line"/>
      <point x="239" y="298" type="line"/>
    </contour>
  </outline>
</glyph>
<glyph name="twosuperior" format="1">
  <advance width="402"/>
  <unicode hex="00B2"/>
  <outline>
    <contour>
      <point x="330" y="628" type="curve" smooth="yes" name="hr00"/>
      <point x="330" y="531"/>
      <point x="219" y="460"/>
      <point x="171" y="381" type="curve"/>
      <point x="162" y="371" type="line"/>
      <point x="175" y="373" type="line"/>
      <point x="334" y="373" type="line"/>
      <point x="334" y="310" type="line"/>
      <point x="72" y="310" type="line"/>
      <point x="72" y="349" type="line"/>
      <point x="148" y="476"/>
      <point x="255" y="543"/>
      <point x="255" y="621" type="curve" smooth="yes"/>
      <point x="255" y="661"/>
      <point x="226" y="678"/>
      <point x="185" y="678" type="curve" smooth="yes"/>
      <point x="162" y="678"/>
      <point x="139" y="672"/>
      <point x="114" y="661" type="curve"/>
      <point x="90" y="711" type="line"/>
      <point x="126" y="731"/>
      <point x="162" y="736"/>
      <point x="194" y="736" type="curve" smooth="yes"/>
      <point x="268" y="736"/>
      <point x="330" y="697"/>
    </contour>
  </outline>
</glyph>
<glyph name="threesuperior" format="1">
  <advance width="381"/>
  <unicode hex="00B3"/>
  <outline>
    <contour>
      <point x="300" y="639" type="curve" smooth="yes"/>
      <point x="300" y="597"/>
      <point x="269" y="560"/>
      <point x="223" y="539" type="curve"/>
      <point x="269" y="528"/>
      <point x="314" y="491"/>
      <point x="314" y="431" type="curve" smooth="yes"/>
      <point x="314" y="359"/>
      <point x="250" y="301"/>
      <point x="158" y="301" type="curve" smooth="yes"/>
      <point x="113" y="301"/>
      <point x="75" y="317"/>
      <point x="55" y="329" type="curve"/>
      <point x="74" y="380" type="line"/>
      <point x="98" y="370"/>
      <point x="122" y="360"/>
      <point x="157" y="360" type="curve" smooth="yes"/>
      <point x="209" y="360"/>
      <point x="238" y="396"/>
      <point x="238" y="433" type="curve" smooth="yes"/>
      <point x="238" y="481"/>
      <point x="199" y="503"/>
      <point x="131" y="503" type="curve"/>
      <point x="125" y="550" type="line"/>
      <point x="157" y="563" type="line" smooth="yes"/>
      <point x="190" y="577"/>
      <point x="219" y="594"/>
      <point x="222" y="623" type="curve" smooth="yes"/>
      <point x="223" y="633"/>
      <point x="222" y="642"/>
      <point x="219" y="649" type="curve" smooth="yes"/>
      <point x="213" y="665"/>
      <point x="195" y="676"/>
      <point x="170" y="676" type="curve" smooth="yes" name="hr01"/>
      <point x="147" y="676"/>
      <point x="122" y="670"/>
      <point x="95" y="660" type="curve"/>
      <point x="71" y="710" type="line"/>
      <point x="108" y="730"/>
      <point x="143" y="735"/>
      <point x="176" y="735" type="curve" smooth="yes"/>
      <point x="249" y="735"/>
      <point x="300" y="698"/>
    </contour>
  </outline>
</glyph>
<glyph name="mu" format="1">
  <advance width="553"/>
  <unicode hex="00B5"/>
  <unicode hex="03BC"/>
  <outline>
    <contour>
      <point x="405" y="81" type="line"/>
      <point x="394" y="58" type="line"/>
      <point x="368" y="22"/>
      <point x="329" y="-10"/>
      <point x="265" y="-10" type="curve" smooth="yes"/>
      <point x="232" y="-10"/>
      <point x="199" y="2"/>
      <point x="178" y="22" type="curve"/>
      <point x="164" y="42" type="line"/>
      <point x="164" y="32"/>
      <point x="165" y="23"/>
      <point x="165" y="13" type="curve"/>
      <point x="165" y="-211" type="line"/>
      <point x="69" y="-211" type="line"/>
      <point x="69" y="517" type="line"/>
      <point x="171" y="517" type="line"/>
      <point x="171" y="210" type="line" smooth="yes"/>
      <point x="171" y="131"/>
      <point x="206" y="72"/>
      <point x="274" y="72" type="curve" smooth="yes" name="hr01"/>
      <point x="336" y="72"/>
      <point x="392" y="129"/>
      <point x="392" y="199" type="curve" smooth="yes"/>
      <point x="392" y="517" type="line"/>
      <point x="495" y="517" type="line"/>
      <point x="495" y="148" type="line" smooth="yes"/>
      <point x="495" y="92"/>
      <point x="509" y="72"/>
      <point x="550" y="74" type="curve"/>
      <point x="560" y="4" type="line"/>
      <point x="538" y="-5"/>
      <point x="516" y="-8"/>
      <point x="501" y="-8" type="curve" smooth="yes"/>
      <point x="462" y="-8"/>
      <point x="425" y="10"/>
      <point x="410" y="59" type="curve"/>
    </contour>
  </outline>
</glyph>
<glyph name="periodcentered" format="1">
  <advance width="306"/>
  <unicode hex="00B7"/>
  <outline>
    <contour>
      <point x="86" y="304" type="curve" smooth="yes" name="hr00"/>
      <point x="86" y="342"/>
      <point x="114" y="372"/>
      <point x="152" y="372" type="curve" smooth="yes"/>
      <point x="190" y="372"/>
      <point x="219" y="342"/>
      <point x="219" y="304" type="curve" smooth="yes"/>
      <point x="219" y="267"/>
      <point x="190" y="238"/>
      <point x="152" y="238" type="curve" smooth="yes"/>
      <point x="114" y="238"/>
      <point x="86" y="267"/>
    </contour>
  </outline>
</glyph>
<glyph name="cedilla" format="1">
  <advance width="500"/>
  <unicode hex="00B8"/>
  <outline>
    <contour>
      <point x="231" y="-2" type="line" name="hr00"/>
      <point x="284" y="2" type="line"/>
      <point x="271" y="-48" type="line"/>
      <point x="310" y="-53"/>
      <point x="352" y="-81"/>
      <point x="352" y="-123" type="curve" smooth="yes"/>
      <point x="352" y="-183"/>
      <point x="290" y="-208"/>
      <point x="234" y="-208" type="curve" smooth="yes"/>
      <point x="211" y="-208"/>
      <point x="186" y="-203"/>
      <point x="154" y="-189" type="curve"/>
      <point x="170" y="-142" type="line"/>
      <point x="195" y="-152"/>
      <point x="214" y="-155"/>
      <point x="234" y="-155" type="curve" smooth="yes"/>
      <point x="257" y="-155"/>
      <point x="283" y="-147"/>
      <point x="283" y="-126" type="curve" smooth="yes"/>
      <point x="283" y="-102"/>
      <point x="256" y="-91"/>
      <point x="209" y="-86" type="curve"/>
    </contour>
  </outline>
</glyph>
<glyph name="onesuperior" format="1">
  <advance width="319"/>
  <unicode hex="00B9"/>
  <outline>
    <contour>
      <point x="255" y="309" type="line" name="hr00"/>
      <point x="178" y="309" type="line"/>
      <point x="178" y="636" type="line"/>
      <point x="117" y="605" type="line"/>
      <point x="88" y="657" type="line"/>
      <point x="218" y="727" type="line"/>
      <point x="255" y="727" type="line"/>
    </contour>
  </outline>
</glyph>
<glyph name="ordmasculine" format="1">
  <advance width="430"/>
  <unicode hex="00BA"/>
  <outline>
    <contour>
      <point x="121" y="483" type="curve" smooth="yes" name="hr00"/>
      <point x="121" y="401"/>
      <point x="157" y="353"/>
      <point x="214" y="353" type="curve" smooth="yes"/>
      <point x="276" y="353"/>
      <point x="308" y="413"/>
      <point x="308" y="483" type="curve" smooth="yes"/>
      <point x="308" y="549"/>
      <point x="282" y="613"/>
      <point x="214" y="613" type="curve" smooth="yes"/>
      <point x="152" y="613"/>
      <point x="121" y="552"/>
    </contour>
    <contour>
      <point x="214" y="294" type="curve" smooth="yes"/>
      <point x="111" y="294"/>
      <point x="42" y="366"/>
      <point x="42" y="483" type="curve" smooth="yes"/>
      <point x="42" y="587"/>
      <point x="106" y="671"/>
      <point x="214" y="671" type="curve" smooth="yes"/>
      <point x="312" y="671"/>
      <point x="386" y="604"/>
      <point x="386" y="483" type="curve" smooth="yes"/>
      <point x="386" y="372"/>
      <point x="319" y="294"/>
    </contour>
  </outline>
</glyph>
<glyph name="onequarter" format="1">
  <advance width="698"/>
  <unicode hex="00BC"/>
  <outline>
    <contour>
      <point x="345" y="144" type="line" name="hr00"/>
      <point x="532" y="423" type="line"/>
      <point x="611" y="423" type="line"/>
      <point x="611" y="145" type="line"/>
      <point x="659" y="145" type="line"/>
      <point x="659" y="87" type="line"/>
      <point x="611" y="87" type="line"/>
      <point x="611" y="0" type="line"/>
      <point x="541" y="0" type="line"/>
      <point x="541" y="299" type="line"/>
      <point x="543" y="327" type="line"/>
      <point x="527" y="302" type="line"/>
      <point x="430" y="162" type="line"/>
      <point x="417" y="145" type="line"/>
      <point x="445" y="146" type="line"/>
      <point x="483" y="146"/>
      <point x="503" y="111"/>
      <point x="513" y="87" type="curve"/>
      <point x="345" y="87" type="line"/>
    </contour>
    <contour>
      <point x="195" y="309" type="line"/>
      <point x="118" y="309" type="line"/>
      <point x="118" y="636" type="line"/>
      <point x="57" y="605" type="line"/>
      <point x="28" y="657" type="line"/>
      <point x="158" y="727" type="line"/>
      <point x="195" y="727" type="line"/>
    </contour>
    <contour>
      <point x="158" y="0" type="line"/>
      <point x="82" y="0" type="line"/>
      <point x="518" y="727" type="line"/>
      <point x="594" y="727" type="line"/>
    </contour>
  </outline>
</glyph>
<glyph name="onehalf" format="1">
  <advance width="763"/>
  <unicode hex="00BD"/>
  <outline>
    <contour>
      <point x="683" y="318" type="curve" smooth="yes" name="hr00"/>
      <point x="683" y="221"/>
      <point x="573" y="151"/>
      <point x="524" y="72" type="curve"/>
      <point x="515" y="61" type="line"/>
      <point x="529" y="63" type="line"/>
      <point x="687" y="63" type="line"/>
      <point x="687" y="0" type="line"/>
      <point x="425" y="0" type="line"/>
      <point x="425" y="39" type="line"/>
      <point x="501" y="166"/>
      <point x="608" y="233"/>
      <point x="608" y="311" type="curve" smooth="yes"/>
      <point x="608" y="351"/>
      <point x="579" y="368"/>
      <point x="538" y="368" type="curve" smooth="yes"/>
      <point x="515" y="368"/>
      <point x="492" y="362"/>
      <point x="467" y="351" type="curve"/>
      <point x="443" y="401" type="line"/>
      <point x="479" y="421"/>
      <point x="515" y="426"/>
      <point x="547" y="426" type="curve" smooth="yes"/>
      <point x="621" y="426"/>
      <point x="683" y="387"/>
    </contour>
    <contour>
      <point x="195" y="309" type="line"/>
      <point x="118" y="309" type="line"/>
      <point x="118" y="636" type="line"/>
      <point x="57" y="605" type="line"/>
      <point x="28" y="657" type="line"/>
      <point x="158" y="727" type="line"/>
      <point x="195" y="727" type="line"/>
    </contour>
    <contour>
      <point x="158" y="0" type="line"/>
      <point x="82" y="0" type="line"/>
      <point x="518" y="727" type="line"/>
      <point x="594" y="727" type="line"/>
    </contour>
  </outline>
</glyph>
<glyph name="threequarters" format="1">
  <advance width="716"/>
  <unicode hex="00BE"/>
  <outline>
    <contour>
      <point x="269" y="639" type="curve" smooth="yes"/>
      <point x="269" y="597"/>
      <point x="238" y="560"/>
      <point x="192" y="539" type="curve"/>
      <point x="238" y="528"/>
      <point x="283" y="491"/>
      <point x="283" y="431" type="curve" smooth="yes"/>
      <point x="283" y="359"/>
      <point x="219" y="301"/>
      <point x="127" y="301" type="curve" smooth="yes"/>
      <point x="83" y="301"/>
      <point x="44" y="317"/>
      <point x="24" y="329" type="curve"/>
      <point x="43" y="380" type="line"/>
      <point x="67" y="370"/>
      <point x="91" y="360"/>
      <point x="126" y="360" type="curve" smooth="yes"/>
      <point x="178" y="360"/>
      <point x="207" y="396"/>
      <point x="207" y="433" type="curve" smooth="yes"/>
      <point x="207" y="481"/>
      <point x="169" y="503"/>
      <point x="101" y="503" type="curve"/>
      <point x="94" y="550" type="line"/>
      <point x="126" y="563" type="line" smooth="yes"/>
      <point x="159" y="577"/>
      <point x="188" y="594"/>
      <point x="191" y="623" type="curve" smooth="yes"/>
      <point x="193" y="633"/>
      <point x="191" y="642"/>
      <point x="188" y="649" type="curve" smooth="yes"/>
      <point x="182" y="665"/>
      <point x="165" y="676"/>
      <point x="139" y="676" type="curve" smooth="yes" name="hr01"/>
      <point x="116" y="676"/>
      <point x="91" y="670"/>
      <point x="64" y="660" type="curve"/>
      <point x="40" y="710" type="line"/>
      <point x="78" y="730"/>
      <point x="112" y="735"/>
      <point x="145" y="735" type="curve" smooth="yes"/>
      <point x="218" y="735"/>
      <point x="269" y="698"/>
    </contour>
    <contour>
      <point x="383" y="144" type="line"/>
      <point x="570" y="423" type="line"/>
      <point x="648" y="423" type="line"/>
      <point x="648" y="145" type="line"/>
      <point x="696" y="145" type="line"/>
      <point x="696" y="87" type="line"/>
      <point x="648" y="87" type="line"/>
      <point x="648" y="0" type="line"/>
      <point x="579" y="0" type="line"/>
      <point x="579" y="322" type="line"/>
      <point x="457" y="146" type="line"/>
      <point x="482" y="146" type="line" smooth="yes"/>
      <point x="520" y="146"/>
      <point x="541" y="111"/>
      <point x="551" y="87" type="curve"/>
      <point x="383" y="87" type="line"/>
    </contour>
    <contour>
      <point x="195" y="0" type="line"/>
      <point x="120" y="0" type="line"/>
      <point x="556" y="727" type="line" name="hr02"/>
      <point x="631" y="727" type="line"/>
    </contour>
  </outline>
</glyph>
<glyph name="questiondown" format="1">
  <advance width="583"/>
  <unicode hex="00BF"/>
  <outline>
    <contour>
      <point x="406" y="466" type="curve" smooth="yes"/>
      <point x="406" y="428"/>
      <point x="377" y="398"/>
      <point x="339" y="398" type="curve" smooth="yes"/>
      <point x="301" y="398"/>
      <point x="272" y="428"/>
      <point x="272" y="466" type="curve" smooth="yes"/>
      <point x="272" y="503"/>
      <point x="301" y="531"/>
      <point x="339" y="531" type="curve" smooth="yes"/>
      <point x="377" y="531"/>
      <point x="406" y="503"/>
    </contour>
    <contour>
      <point x="306" y="-220" type="curve" smooth="yes"/>
      <point x="186" y="-220"/>
      <point x="102" y="-156"/>
      <point x="102" y="-67" type="curve" smooth="yes"/>
      <point x="102" y="93"/>
      <point x="296" y="150"/>
      <point x="296" y="319" type="curve" name="hr01"/>
      <point x="381" y="319" type="line"/>
      <point x="381" y="112"/>
      <point x="213" y="72"/>
      <point x="213" y="-52" type="curve" smooth="yes"/>
      <point x="213" y="-102"/>
      <point x="255" y="-139"/>
      <point x="316" y="-139" type="curve" smooth="yes"/>
      <point x="354" y="-139"/>
      <point x="394" y="-133"/>
      <point x="450" y="-104" type="curve"/>
      <point x="478" y="-179" type="line"/>
      <point x="413" y="-212"/>
      <point x="361" y="-220"/>
    </contour>
  </outline>
</glyph>
<glyph name="Agrave" format="1">
  <advance width="687"/>
  <unicode hex="00C0"/>
  <outline>
    <contour>
      <point x="293" y="797" type="curve" name="hr00"/>
      <point x="223" y="890" type="line"/>
      <point x="329" y="890" type="line"/>
      <point x="403" y="766" type="line"/>
      <point x="369" y="757"/>
      <point x="318" y="763"/>
    </contour>
    <contour>
      <point x="291" y="727" type="line"/>
      <point x="397" y="727" type="line"/>
      <point x="659" y="0" type="line"/>
      <point x="544" y="0" type="line"/>
      <point x="340" y="597" type="line"/>
      <point x="228" y="269" type="line"/>
      <point x="217" y="249" type="line"/>
      <point x="230" y="251" type="line"/>
      <point x="348" y="251" type="line" smooth="yes"/>
      <point x="399" y="251"/>
      <point x="423" y="209"/>
      <point x="437" y="170" type="curve"/>
      <point x="195" y="170" type="line"/>
      <point x="137" y="0" type="line"/>
      <point x="29" y="0" type="line"/>
    </contour>
  </outline>
</glyph>
<glyph name="Aacute" format="1">
  <advance width="687"/>
  <unicode hex="00C1"/>
  <outline>
    <contour>
      <point x="485" y="890" type="line" name="hr00"/>
      <point x="402" y="797" type="line" smooth="yes"/>
      <point x="371" y="762"/>
      <point x="323" y="757"/>
      <point x="290" y="766" type="curve"/>
      <point x="378" y="890" type="line"/>
    </contour>
    <contour>
      <point x="290" y="727" type="line"/>
      <point x="397" y="727" type="line"/>
      <point x="658" y="0" type="line"/>
      <point x="543" y="0" type="line"/>
      <point x="339" y="597" type="line"/>
      <point x="228" y="269" type="line"/>
      <point x="216" y="249" type="line"/>
      <point x="229" y="251" type="line"/>
      <point x="347" y="251" type="line" smooth="yes"/>
      <point x="398" y="251"/>
      <point x="422" y="209"/>
      <point x="436" y="170" type="curve"/>
      <point x="195" y="170" type="line"/>
      <point x="137" y="0" type="line"/>
      <point x="28" y="0" type="line"/>
    </contour>
  </outline>
</glyph>
<glyph name="Acircumflex" format="1">
  <advance width="687"/>
  <unicode hex="00C2"/>
  <outline>
    <contour>
      <point x="305" y="890" type="line" name="hr00"/>
      <point x="376" y="890" type="line"/>
      <point x="486" y="771" type="line"/>
      <point x="425" y="760" type="line"/>
      <point x="340" y="818" type="line"/>
      <point x="255" y="760" type="line"/>
      <point x="197" y="771" type="line"/>
    </contour>
    <contour>
      <point x="291" y="727" type="line"/>
      <point x="397" y="727" type="line"/>
      <point x="659" y="0" type="line"/>
      <point x="544" y="0" type="line"/>
      <point x="340" y="597" type="line"/>
      <point x="228" y="269" type="line"/>
      <point x="217" y="249" type="line"/>
      <point x="230" y="251" type="line"/>
      <point x="348" y="251" type="line" smooth="yes"/>
      <point x="399" y="251"/>
      <point x="423" y="209"/>
      <point x="437" y="170" type="curve"/>
      <point x="195" y="170" type="line"/>
      <point x="137" y="0" type="line"/>
      <point x="29" y="0" type="line"/>
    </contour>
  </outline>
</glyph>
<glyph name="Atilde" format="1">
  <advance width="687"/>
  <unicode hex="00C3"/>
  <outline>
    <contour>
      <point x="259" y="777" type="curve"/>
      <point x="198" y="783" type="line"/>
      <point x="200" y="857"/>
      <point x="242" y="894"/>
      <point x="290" y="894" type="curve" smooth="yes"/>
      <point x="348" y="894"/>
      <point x="369" y="839"/>
      <point x="408" y="839" type="curve" smooth="yes" name="hr01"/>
      <point x="426" y="839"/>
      <point x="436" y="859"/>
      <point x="439" y="893" type="curve"/>
      <point x="498" y="887" type="line"/>
      <point x="494" y="803"/>
      <point x="449" y="776"/>
      <point x="411" y="776" type="curve" smooth="yes"/>
      <point x="347" y="776"/>
      <point x="329" y="831"/>
      <point x="294" y="831" type="curve" smooth="yes" name="hr02"/>
      <point x="278" y="831"/>
      <point x="262" y="817"/>
    </contour>
    <contour>
      <point x="291" y="727" type="line"/>
      <point x="397" y="727" type="line"/>
      <point x="659" y="0" type="line"/>
      <point x="544" y="0" type="line"/>
      <point x="340" y="597" type="line"/>
      <point x="228" y="269" type="line"/>
      <point x="217" y="249" type="line"/>
      <point x="230" y="251" type="line"/>
      <point x="348" y="251" type="line" smooth="yes"/>
      <point x="399" y="251"/>
      <point x="423" y="209"/>
      <point x="437" y="170" type="curve"/>
      <point x="195" y="170" type="line"/>
      <point x="137" y="0" type="line"/>
      <point x="29" y="0" type="line"/>
    </contour>
  </outline>
</glyph>
<glyph name="Adieresis" format="1">
  <advance width="687"/>
  <unicode hex="00C4"/>
  <outline>
    <contour>
      <point x="385" y="840" type="curve" smooth="yes" name="hr00"/>
      <point x="385" y="871"/>
      <point x="410" y="895"/>
      <point x="441" y="895" type="curve" smooth="yes"/>
      <point x="471" y="895"/>
      <point x="496" y="871"/>
      <point x="496" y="840" type="curve" smooth="yes"/>
      <point x="496" y="809"/>
      <point x="471" y="785"/>
      <point x="441" y="785" type="curve" smooth="yes"/>
      <point x="410" y="785"/>
      <point x="385" y="809"/>
    </contour>
    <contour>
      <point x="191" y="840" type="curve" smooth="yes"/>
      <point x="191" y="871"/>
      <point x="216" y="895"/>
      <point x="246" y="895" type="curve" smooth="yes"/>
      <point x="276" y="895"/>
      <point x="302" y="871"/>
      <point x="302" y="840" type="curve" smooth="yes"/>
      <point x="302" y="809"/>
      <point x="276" y="785"/>
      <point x="246" y="785" type="curve" smooth="yes"/>
      <point x="216" y="785"/>
      <point x="191" y="809"/>
    </contour>
    <contour>
      <point x="291" y="727" type="line"/>
      <point x="397" y="727" type="line"/>
      <point x="659" y="0" type="line"/>
      <point x="544" y="0" type="line"/>
      <point x="340" y="597" type="line"/>
      <point x="228" y="269" type="line"/>
      <point x="217" y="249" type="line"/>
      <point x="230" y="251" type="line"/>
      <point x="348" y="251" type="line" smooth="yes"/>
      <point x="399" y="251"/>
      <point x="423" y="209"/>
      <point x="437" y="170" type="curve"/>
      <point x="195" y="170" type="line"/>
      <point x="137" y="0" type="line"/>
      <point x="29" y="0" type="line"/>
    </contour>
  </outline>
</glyph>
<glyph name="Aring" format="1">
  <advance width="687"/>
  <unicode hex="00C5"/>
  <outline>
    <contour>
      <point x="342" y="754" type="curve" smooth="yes" name="hr00"/>
      <point x="371" y="754"/>
      <point x="388" y="775"/>
      <point x="388" y="802" type="curve" smooth="yes"/>
      <point x="388" y="829"/>
      <point x="371" y="850"/>
      <point x="342" y="850" type="curve" smooth="yes"/>
      <point x="316" y="850"/>
      <point x="298" y="829"/>
      <point x="298" y="800" type="curve" smooth="yes"/>
      <point x="298" y="777"/>
      <point x="315" y="754"/>
    </contour>
    <contour>
      <point x="138" y="0" type="line"/>
      <point x="29" y="0" type="line"/>
      <point x="289" y="724" type="line"/>
      <point x="259" y="738"/>
      <point x="241" y="766"/>
      <point x="241" y="800" type="curve" smooth="yes"/>
      <point x="241" y="853"/>
      <point x="284" y="892"/>
      <point x="343" y="892" type="curve" smooth="yes"/>
      <point x="403" y="892"/>
      <point x="443" y="855"/>
      <point x="443" y="801" type="curve" smooth="yes"/>
      <point x="443" y="768"/>
      <point x="425" y="740"/>
      <point x="398" y="725" type="curve"/>
      <point x="659" y="0" type="line"/>
      <point x="544" y="0" type="line"/>
      <point x="482" y="181"/>
      <point x="420" y="360"/>
      <point x="359" y="540" type="curve" smooth="yes"/>
      <point x="340" y="596" type="line"/>
      <point x="321" y="539" type="line" smooth="yes"/>
      <point x="290" y="449"/>
      <point x="260" y="359"/>
      <point x="229" y="269" type="curve"/>
      <point x="217" y="249" type="line"/>
      <point x="230" y="251" type="line"/>
      <point x="348" y="251" type="line" smooth="yes"/>
      <point x="399" y="251"/>
      <point x="423" y="209"/>
      <point x="437" y="170" type="curve"/>
      <point x="196" y="170" type="line"/>
    </contour>
  </outline>
</glyph>
<glyph name="AE" format="1">
  <advance width="975"/>
  <unicode hex="00C6"/>
  <outline>
    <contour>
      <point x="700" y="421" type="curve" name="hr00"/>
      <point x="854" y="421" type="line"/>
      <point x="854" y="342" type="line"/>
      <point x="609" y="342" type="line"/>
      <point x="622" y="383"/>
      <point x="646" y="421"/>
    </contour>
    <contour>
      <point x="525" y="0" type="line"/>
      <point x="442" y="536" type="line" smooth="yes"/>
      <point x="439" y="553"/>
      <point x="436" y="572"/>
      <point x="434" y="590" type="curve"/>
      <point x="431" y="629" type="line"/>
      <point x="417" y="590" type="line"/>
      <point x="258" y="269" type="line"/>
      <point x="243" y="249" type="line"/>
      <point x="262" y="251" type="line"/>
      <point x="372" y="251" type="line" smooth="yes"/>
      <point x="423" y="251"/>
      <point x="448" y="209"/>
      <point x="462" y="170" type="curve"/>
      <point x="210" y="170" type="line"/>
      <point x="126" y="0" type="line"/>
      <point x="15" y="0" type="line"/>
      <point x="385" y="727" type="line"/>
      <point x="844" y="727" type="line"/>
      <point x="844" y="646" type="line"/>
      <point x="528" y="646" type="line"/>
      <point x="614" y="81" type="line"/>
      <point x="914" y="81" type="line"/>
      <point x="914" y="0" type="line"/>
    </contour>
  </outline>
</glyph>
<glyph name="Ccedilla" format="1">
  <advance width="652"/>
  <unicode hex="00C7"/>
  <outline>
    <contour>
      <point x="434" y="-12" type="curve" smooth="yes" name="hr00"/>
      <point x="422" y="-12"/>
      <point x="410" y="-11"/>
      <point x="399" y="-10" type="curve"/>
      <point x="389" y="-48" type="line"/>
      <point x="428" y="-53"/>
      <point x="470" y="-81"/>
      <point x="470" y="-123" type="curve" smooth="yes"/>
      <point x="470" y="-183"/>
      <point x="408" y="-208"/>
      <point x="352" y="-208" type="curve" smooth="yes"/>
      <point x="329" y="-208"/>
      <point x="304" y="-203"/>
      <point x="272" y="-189" type="curve"/>
      <point x="288" y="-142" type="line"/>
      <point x="313" y="-152"/>
      <point x="332" y="-155"/>
      <point x="352" y="-155" type="curve" smooth="yes"/>
      <point x="375" y="-155"/>
      <point x="401" y="-147"/>
      <point x="401" y="-126" type="curve" smooth="yes"/>
      <point x="401" y="-102"/>
      <point x="374" y="-91"/>
      <point x="327" y="-86" type="curve"/>
      <point x="348" y="-4" type="line"/>
      <point x="178" y="30"/>
      <point x="65" y="170"/>
      <point x="65" y="363" type="curve" smooth="yes"/>
      <point x="65" y="582"/>
      <point x="219" y="740"/>
      <point x="434" y="740" type="curve" smooth="yes"/>
      <point x="490" y="740"/>
      <point x="549" y="729"/>
      <point x="611" y="706" type="curve"/>
      <point x="582" y="633" type="line"/>
      <point x="524" y="652"/>
      <point x="480" y="658"/>
      <point x="434" y="658" type="curve" smooth="yes"/>
      <point x="290" y="658"/>
      <point x="182" y="547"/>
      <point x="182" y="363" type="curve" smooth="yes"/>
      <point x="182" y="183"/>
      <point x="290" y="69"/>
      <point x="434" y="69" type="curve" smooth="yes"/>
      <point x="480" y="69"/>
      <point x="529" y="80"/>
      <point x="582" y="107" type="curve"/>
      <point x="611" y="34" type="line"/>
      <point x="550" y="2"/>
      <point x="490" y="-12"/>
    </contour>
  </outline>
</glyph>
<glyph name="Egrave" format="1">
  <advance width="577"/>
  <unicode hex="00C8"/>
  <outline>
    <contour>
      <point x="252" y="797" type="curve"/>
      <point x="182" y="890" type="line"/>
      <point x="288" y="890" type="line"/>
      <point x="362" y="766" type="line"/>
      <point x="328" y="757"/>
      <point x="277" y="763"/>
    </contour>
    <contour>
      <point x="320" y="421" type="curve"/>
      <point x="469" y="421" type="line"/>
      <point x="469" y="342" type="line"/>
      <point x="230" y="342" type="line"/>
      <point x="243" y="381"/>
      <point x="269" y="421"/>
    </contour>
    <contour>
      <point x="83" y="0" type="line"/>
      <point x="83" y="727" type="line" name="hr01"/>
      <point x="503" y="727" type="line"/>
      <point x="503" y="646" type="line"/>
      <point x="192" y="646" type="line"/>
      <point x="192" y="81" type="line"/>
      <point x="518" y="81" type="line"/>
      <point x="518" y="0" type="line"/>
    </contour>
  </outline>
</glyph>
<glyph name="Ecircumflex" format="1">
  <advance width="577"/>
  <unicode hex="00CA"/>
  <outline>
    <contour>
      <point x="267" y="890" type="line"/>
      <point x="338" y="890" type="line"/>
      <point x="448" y="771" type="line"/>
      <point x="387" y="760" type="line"/>
      <point x="302" y="818" type="line"/>
      <point x="217" y="760" type="line"/>
      <point x="159" y="771" type="line"/>
    </contour>
    <contour>
      <point x="320" y="421" type="curve"/>
      <point x="469" y="421" type="line"/>
      <point x="469" y="342" type="line"/>
      <point x="230" y="342" type="line"/>
      <point x="243" y="381"/>
      <point x="269" y="421"/>
    </contour>
    <contour>
      <point x="83" y="0" type="line"/>
      <point x="83" y="727" type="line" name="hr01"/>
      <point x="503" y="727" type="line"/>
      <point x="503" y="646" type="line"/>
      <point x="192" y="646" type="line"/>
      <point x="192" y="81" type="line"/>
      <point x="518" y="81" type="line"/>
      <point x="518" y="0" type="line"/>
    </contour>
  </outline>
</glyph>
<glyph name="Edieresis" format="1">
  <advance width="577"/>
  <unicode hex="00CB"/>
  <outline>
    <contour>
      <point x="342" y="840" type="curve" smooth="yes"/>
      <point x="342" y="871"/>
      <point x="367" y="895"/>
      <point x="398" y="895" type="curve" smooth="yes"/>
      <point x="428" y="895"/>
      <point x="453" y="871"/>
      <point x="453" y="840" type="curve" smooth="yes"/>
      <point x="453" y="809"/>
      <point x="428" y="785"/>
      <point x="398" y="785" type="curve" smooth="yes"/>
      <point x="367" y="785"/>
      <point x="342" y="809"/>
    </contour>
    <contour>
      <point x="148" y="840" type="curve" smooth="yes"/>
      <point x="148" y="871"/>
      <point x="173" y="895"/>
      <point x="203" y="895" type="curve" smooth="yes"/>
      <point x="233" y="895"/>
      <point x="259" y="871"/>
      <point x="259" y="840" type="curve" smooth="yes"/>
      <point x="259" y="809"/>
      <point x="233" y="785"/>
      <point x="203" y="785" type="curve" smooth="yes"/>
      <point x="173" y="785"/>
      <point x="148" y="809"/>
    </contour>
    <contour>
      <point x="320" y="421" type="curve"/>
      <point x="469" y="421" type="line"/>
      <point x="469" y="342" type="line"/>
      <point x="230" y="342" type="line"/>
      <point x="243" y="381"/>
      <point x="269" y="421"/>
    </contour>
    <contour>
      <point x="83" y="0" type="line" name="hr01"/>
      <point x="83" y="727" type="line"/>
      <point x="503" y="727" type="line"/>
      <point x="503" y="646" type="line"/>
      <point x="192" y="646" type="line"/>
      <point x="192" y="81" type="line"/>
      <point x="518" y="81" type="line"/>
      <point x="518" y="0" type="line"/>
    </contour>
  </outline>
</glyph>
<glyph name="Igrave" format="1">
  <advance width="279"/>
  <unicode hex="00CC"/>
  <outline>
    <contour>
      <point x="90" y="797" type="curve" name="hr00"/>
      <point x="21" y="890" type="line"/>
      <point x="126" y="890" type="line"/>
      <point x="200" y="766" type="line"/>
      <point x="166" y="757"/>
      <point x="116" y="763"/>
    </contour>
    <contour>
      <point x="196" y="727" type="line"/>
      <point x="196" y="0" type="line"/>
      <point x="91" y="0" type="line"/>
      <point x="91" y="727" type="line"/>
    </contour>
  </outline>
</glyph>
<glyph name="Icircumflex" format="1">
  <advance width="321"/>
  <unicode hex="00CE"/>
  <outline>
    <contour>
      <point x="124" y="890" type="line" name="hr00"/>
      <point x="195" y="890" type="line"/>
      <point x="305" y="771" type="line"/>
      <point x="244" y="760" type="line"/>
      <point x="159" y="818" type="line"/>
      <point x="74" y="760" type="line"/>
      <point x="16" y="771" type="line"/>
    </contour>
    <contour>
      <point x="212" y="727" type="line"/>
      <point x="212" y="0" type="line"/>
      <point x="106" y="0" type="line"/>
      <point x="106" y="727" type="line"/>
    </contour>
  </outline>
</glyph>
<glyph name="Idieresis" format="1">
  <advance width="350"/>
  <unicode hex="00CF"/>
  <outline>
    <contour>
      <point x="214" y="840" type="curve" smooth="yes"/>
      <point x="214" y="871"/>
      <point x="240" y="895"/>
      <point x="270" y="895" type="curve" smooth="yes"/>
      <point x="300" y="895"/>
      <point x="325" y="871"/>
      <point x="325" y="840" type="curve" smooth="yes"/>
      <point x="325" y="809"/>
      <point x="300" y="785"/>
      <point x="270" y="785" type="curve" smooth="yes"/>
      <point x="240" y="785"/>
      <point x="214" y="809"/>
    </contour>
    <contour>
      <point x="20" y="840" type="curve" smooth="yes"/>
      <point x="20" y="871"/>
      <point x="45" y="895"/>
      <point x="75" y="895" type="curve" smooth="yes"/>
      <point x="106" y="895"/>
      <point x="131" y="871"/>
      <point x="131" y="840" type="curve" smooth="yes"/>
      <point x="131" y="809"/>
      <point x="106" y="785"/>
      <point x="75" y="785" type="curve" smooth="yes"/>
      <point x="45" y="785"/>
      <point x="20" y="809"/>
    </contour>
    <contour>
      <point x="225" y="727" type="line" name="hr01"/>
      <point x="225" y="0" type="line"/>
      <point x="120" y="0" type="line"/>
      <point x="120" y="727" type="line"/>
    </contour>
  </outline>
</glyph>
<glyph name="Eth" format="1">
  <advance width="713"/>
  <unicode hex="00D0"/>
  <outline>
    <contour>
      <point x="1" y="319" type="line"/>
      <point x="1" y="392" type="line"/>
      <point x="83" y="392" type="line"/>
      <point x="83" y="715" type="line"/>
      <point x="153" y="732"/>
      <point x="237" y="740"/>
      <point x="295" y="740" type="curve" smooth="yes"/>
      <point x="553" y="740"/>
      <point x="700" y="593"/>
      <point x="700" y="365" type="curve" smooth="yes"/>
      <point x="700" y="149"/>
      <point x="549" y="-12"/>
      <point x="363" y="-12" type="curve" smooth="yes"/>
      <point x="321" y="-12"/>
      <point x="288" y="-9"/>
      <point x="230" y="5" type="curve"/>
      <point x="249" y="40"/>
      <point x="279" y="73"/>
      <point x="326" y="70" type="curve" smooth="yes"/>
      <point x="341" y="69"/>
      <point x="347" y="69"/>
      <point x="358" y="69" type="curve" smooth="yes"/>
      <point x="494" y="69"/>
      <point x="584" y="208"/>
      <point x="584" y="365" type="curve" smooth="yes"/>
      <point x="584" y="548"/>
      <point x="491" y="658"/>
      <point x="295" y="658" type="curve" smooth="yes"/>
      <point x="259" y="658"/>
      <point x="223" y="655"/>
      <point x="191" y="651" type="curve"/>
      <point x="191" y="392" type="line"/>
      <point x="411" y="392" type="line"/>
      <point x="411" y="319" type="line"/>
      <point x="191" y="319" type="line"/>
      <point x="191" y="0" type="line" name="hr01"/>
      <point x="83" y="0" type="line"/>
      <point x="83" y="319" type="line"/>
    </contour>
  </outline>
</glyph>
<glyph name="Ntilde" format="1">
  <advance width="749"/>
  <unicode hex="00D1"/>
  <outline>
    <contour>
      <point x="289" y="777" type="curve"/>
      <point x="228" y="783" type="line"/>
      <point x="230" y="857"/>
      <point x="272" y="894"/>
      <point x="320" y="894" type="curve" smooth="yes"/>
      <point x="378" y="894"/>
      <point x="399" y="839"/>
      <point x="438" y="839" type="curve" smooth="yes" name="hr01"/>
      <point x="456" y="839"/>
      <point x="466" y="859"/>
      <point x="469" y="893" type="curve"/>
      <point x="528" y="887" type="line"/>
      <point x="524" y="803"/>
      <point x="479" y="776"/>
      <point x="441" y="776" type="curve" smooth="yes"/>
      <point x="377" y="776"/>
      <point x="359" y="831"/>
      <point x="324" y="831" type="curve" smooth="yes" name="hr02"/>
      <point x="308" y="831"/>
      <point x="292" y="817"/>
    </contour>
    <contour>
      <point x="555" y="0" type="line"/>
      <point x="438" y="187"/>
      <point x="320" y="373"/>
      <point x="203" y="561" type="curve"/>
      <point x="189" y="595" type="line"/>
      <point x="191" y="561" type="line"/>
      <point x="191" y="0" type="line"/>
      <point x="98" y="0" type="line"/>
      <point x="98" y="727" type="line"/>
      <point x="206" y="727" type="line"/>
      <point x="510" y="242" type="line" smooth="yes"/>
      <point x="522" y="223"/>
      <point x="534" y="203"/>
      <point x="546" y="184" type="curve"/>
      <point x="558" y="151" type="line"/>
      <point x="556" y="186" type="line"/>
      <point x="556" y="727" type="line"/>
      <point x="652" y="727" type="line"/>
      <point x="652" y="0" type="line"/>
    </contour>
  </outline>
</glyph>
<glyph name="Ograve" format="1">
  <advance width="791"/>
  <unicode hex="00D2"/>
  <outline>
    <contour>
      <point x="301" y="797" type="curve"/>
      <point x="231" y="890" type="line"/>
      <point x="337" y="890" type="line"/>
      <point x="411" y="766" type="line"/>
      <point x="377" y="757"/>
      <point x="325" y="762"/>
    </contour>
    <contour>
      <point x="610" y="364" type="curve" smooth="yes"/>
      <point x="610" y="540"/>
      <point x="514" y="660"/>
      <point x="382" y="660" type="curve" smooth="yes"/>
      <point x="251" y="660"/>
      <point x="155" y="540"/>
      <point x="155" y="364" type="curve" smooth="yes"/>
      <point x="155" y="189"/>
      <point x="251" y="67"/>
      <point x="382" y="67" type="curve" smooth="yes"/>
      <point x="514" y="67"/>
      <point x="610" y="189"/>
    </contour>
    <contour>
      <point x="726" y="364" type="curve" smooth="yes"/>
      <point x="726" y="136"/>
      <point x="572" y="-14"/>
      <point x="382" y="-14" type="curve" smooth="yes"/>
      <point x="184" y="-14"/>
      <point x="38" y="132"/>
      <point x="38" y="364" type="curve" smooth="yes"/>
      <point x="38" y="591"/>
      <point x="190" y="742"/>
      <point x="382" y="742" type="curve" smooth="yes" name="hr01"/>
      <point x="582" y="742"/>
      <point x="726" y="595"/>
    </contour>
  </outline>
</glyph>
<glyph name="Oacute" format="1">
  <advance width="791"/>
  <unicode hex="00D3"/>
  <outline>
    <contour>
      <point x="536" y="890" type="line"/>
      <point x="453" y="797" type="line" smooth="yes"/>
      <point x="422" y="762"/>
      <point x="374" y="757"/>
      <point x="341" y="766" type="curve"/>
      <point x="429" y="890" type="line"/>
    </contour>
    <contour>
      <point x="609" y="364" type="curve" smooth="yes"/>
      <point x="609" y="540"/>
      <point x="513" y="660"/>
      <point x="382" y="660" type="curve" smooth="yes"/>
      <point x="250" y="660"/>
      <point x="154" y="540"/>
      <point x="154" y="364" type="curve" smooth="yes"/>
      <point x="154" y="189"/>
      <point x="251" y="67"/>
      <point x="382" y="67" type="curve" smooth="yes"/>
      <point x="513" y="67"/>
      <point x="609" y="189"/>
    </contour>
    <contour>
      <point x="726" y="364" type="curve" smooth="yes"/>
      <point x="726" y="136"/>
      <point x="571" y="-14"/>
      <point x="382" y="-14" type="curve" smooth="yes"/>
      <point x="183" y="-14"/>
      <point x="37" y="132"/>
      <point x="37" y="364" type="curve" smooth="yes"/>
      <point x="37" y="591"/>
      <point x="190" y="742"/>
      <point x="382" y="742" type="curve" smooth="yes" name="hr01"/>
      <point x="581" y="742"/>
      <point x="726" y="595"/>
    </contour>
  </outline>
</glyph>
<glyph name="Ocircumflex" format="1">
  <advance width="791"/>
  <unicode hex="00D4"/>
  <outline>
    <contour>
      <point x="348" y="890" type="line"/>
      <point x="419" y="890" type="line"/>
      <point x="529" y="771" type="line"/>
      <point x="468" y="760" type="line"/>
      <point x="383" y="818" type="line"/>
      <point x="298" y="760" type="line"/>
      <point x="240" y="771" type="line"/>
    </contour>
    <contour>
      <point x="609" y="364" type="curve" smooth="yes"/>
      <point x="609" y="540"/>
      <point x="513" y="660"/>
      <point x="382" y="660" type="curve" smooth="yes"/>
      <point x="250" y="660"/>
      <point x="154" y="540"/>
      <point x="154" y="364" type="curve" smooth="yes"/>
      <point x="154" y="189"/>
      <point x="251" y="67"/>
      <point x="382" y="67" type="curve" smooth="yes"/>
      <point x="513" y="67"/>
      <point x="609" y="189"/>
    </contour>
    <contour>
      <point x="726" y="364" type="curve" smooth="yes"/>
      <point x="726" y="136"/>
      <point x="571" y="-14"/>
      <point x="382" y="-14" type="curve" smooth="yes"/>
      <point x="183" y="-14"/>
      <point x="37" y="132"/>
      <point x="37" y="364" type="curve" smooth="yes"/>
      <point x="37" y="591"/>
      <point x="190" y="742"/>
      <point x="382" y="742" type="curve" smooth="yes" name="hr01"/>
      <point x="581" y="742"/>
      <point x="726" y="595"/>
    </contour>
  </outline>
</glyph>
<glyph name="Otilde" format="1">
  <advance width="791"/>
  <unicode hex="00D5"/>
  <outline>
    <contour>
      <point x="298" y="777" type="curve"/>
      <point x="237" y="783" type="line"/>
      <point x="239" y="857"/>
      <point x="281" y="894"/>
      <point x="329" y="894" type="curve" smooth="yes"/>
      <point x="387" y="894"/>
      <point x="408" y="839"/>
      <point x="447" y="839" type="curve" smooth="yes" name="hr01"/>
      <point x="465" y="839"/>
      <point x="475" y="859"/>
      <point x="478" y="893" type="curve"/>
      <point x="537" y="887" type="line"/>
      <point x="533" y="803"/>
      <point x="488" y="776"/>
      <point x="450" y="776" type="curve" smooth="yes"/>
      <point x="386" y="776"/>
      <point x="368" y="831"/>
      <point x="333" y="831" type="curve" smooth="yes" name="hr02"/>
      <point x="317" y="831"/>
      <point x="301" y="817"/>
    </contour>
    <contour>
      <point x="610" y="364" type="curve" smooth="yes"/>
      <point x="610" y="540"/>
      <point x="514" y="660"/>
      <point x="382" y="660" type="curve" smooth="yes"/>
      <point x="250" y="660"/>
      <point x="154" y="540"/>
      <point x="154" y="364" type="curve" smooth="yes"/>
      <point x="154" y="189"/>
      <point x="251" y="67"/>
      <point x="382" y="67" type="curve" smooth="yes"/>
      <point x="514" y="67"/>
      <point x="610" y="189"/>
    </contour>
    <contour>
      <point x="726" y="364" type="curve" smooth="yes"/>
      <point x="726" y="136"/>
      <point x="571" y="-14"/>
      <point x="382" y="-14" type="curve" smooth="yes"/>
      <point x="184" y="-14"/>
      <point x="38" y="132"/>
      <point x="38" y="364" type="curve" smooth="yes"/>
      <point x="38" y="591"/>
      <point x="190" y="742"/>
      <point x="382" y="742" type="curve" smooth="yes"/>
      <point x="581" y="742"/>
      <point x="726" y="595"/>
    </contour>
  </outline>
</glyph>
<glyph name="Odieresis" format="1">
  <advance width="791"/>
  <unicode hex="00D6"/>
  <outline>
    <contour>
      <point x="425" y="840" type="curve" smooth="yes" name="hr00"/>
      <point x="425" y="871"/>
      <point x="451" y="895"/>
      <point x="481" y="895" type="curve" smooth="yes"/>
      <point x="511" y="895"/>
      <point x="536" y="871"/>
      <point x="536" y="840" type="curve" smooth="yes"/>
      <point x="536" y="809"/>
      <point x="511" y="785"/>
      <point x="481" y="785" type="curve" smooth="yes"/>
      <point x="451" y="785"/>
      <point x="425" y="809"/>
    </contour>
    <contour>
      <point x="231" y="840" type="curve" smooth="yes"/>
      <point x="231" y="871"/>
      <point x="256" y="895"/>
      <point x="286" y="895" type="curve" smooth="yes"/>
      <point x="317" y="895"/>
      <point x="342" y="871"/>
      <point x="342" y="840" type="curve" smooth="yes"/>
      <point x="342" y="809"/>
      <point x="317" y="785"/>
      <point x="286" y="785" type="curve" smooth="yes"/>
      <point x="256" y="785"/>
      <point x="231" y="809"/>
    </contour>
    <contour>
      <point x="610" y="364" type="curve" smooth="yes"/>
      <point x="610" y="540"/>
      <point x="514" y="660"/>
      <point x="382" y="660" type="curve" smooth="yes"/>
      <point x="250" y="660"/>
      <point x="154" y="540"/>
      <point x="154" y="364" type="curve" smooth="yes"/>
      <point x="154" y="189"/>
      <point x="251" y="67"/>
      <point x="382" y="67" type="curve" smooth="yes"/>
      <point x="514" y="67"/>
      <point x="610" y="189"/>
    </contour>
    <contour>
      <point x="726" y="364" type="curve" smooth="yes"/>
      <point x="726" y="136"/>
      <point x="571" y="-14"/>
      <point x="382" y="-14" type="curve" smooth="yes"/>
      <point x="184" y="-14"/>
      <point x="38" y="132"/>
      <point x="38" y="364" type="curve" smooth="yes"/>
      <point x="38" y="591"/>
      <point x="190" y="742"/>
      <point x="382" y="742" type="curve" smooth="yes"/>
      <point x="581" y="742"/>
      <point x="726" y="595"/>
    </contour>
  </outline>
</glyph>
<glyph name="multiply" format="1">
  <advance width="568"/>
  <unicode hex="00D7"/>
  <outline>
    <contour>
      <point x="103" y="75" type="line" name="hr00"/>
      <point x="50" y="128" type="line"/>
      <point x="226" y="306" type="line"/>
      <point x="50" y="482" type="line"/>
      <point x="104" y="535" type="line"/>
      <point x="281" y="360" type="line"/>
      <point x="456" y="535" type="line"/>
      <point x="509" y="482" type="line"/>
      <point x="335" y="306" type="line"/>
      <point x="511" y="128" type="line"/>
      <point x="458" y="75" type="line"/>
      <point x="281" y="251" type="line"/>
    </contour>
  </outline>
</glyph>
<glyph name="Oslash" format="1">
  <advance width="791"/>
  <unicode hex="00D8"/>
  <outline>
    <contour>
      <point x="612" y="364" type="curve" smooth="yes"/>
      <point x="612" y="450"/>
      <point x="587" y="523"/>
      <point x="548" y="574" type="curve"/>
      <point x="289" y="136" type="line"/>
      <point x="264" y="166"/>
      <point x="243" y="212"/>
      <point x="266" y="256" type="curve"/>
      <point x="490" y="630" type="line"/>
      <point x="459" y="650"/>
      <point x="421" y="662"/>
      <point x="382" y="662" type="curve" smooth="yes"/>
      <point x="250" y="662"/>
      <point x="152" y="540"/>
      <point x="152" y="364" type="curve" smooth="yes"/>
      <point x="152" y="189"/>
      <point x="251" y="66"/>
      <point x="382" y="66" type="curve" smooth="yes"/>
      <point x="514" y="66"/>
      <point x="612" y="189"/>
    </contour>
    <contour>
      <point x="675" y="789" type="line"/>
      <point x="602" y="665" type="line"/>
      <point x="679" y="599"/>
      <point x="726" y="495"/>
      <point x="726" y="364" type="curve" smooth="yes"/>
      <point x="726" y="136"/>
      <point x="571" y="-14"/>
      <point x="382" y="-14" type="curve" smooth="yes"/>
      <point x="326" y="-14"/>
      <point x="274" y="-2"/>
      <point x="228" y="20" type="curve"/>
      <point x="182" y="-60" type="line" name="hr01"/>
      <point x="91" y="-60" type="line"/>
      <point x="163" y="62" type="line"/>
      <point x="85" y="127"/>
      <point x="38" y="231"/>
      <point x="38" y="364" type="curve" smooth="yes"/>
      <point x="38" y="591"/>
      <point x="190" y="742"/>
      <point x="382" y="742" type="curve" smooth="yes"/>
      <point x="438" y="742"/>
      <point x="490" y="730"/>
      <point x="535" y="707" type="curve"/>
      <point x="584" y="789" type="line"/>
    </contour>
  </outline>
</glyph>
<glyph name="Ugrave" format="1">
  <advance width="694"/>
  <unicode hex="00D9"/>
  <outline>
    <contour>
      <point x="285" y="797" type="curve" name="hr00"/>
      <point x="216" y="890" type="line"/>
      <point x="321" y="890" type="line"/>
      <point x="395" y="766" type="line"/>
      <point x="361" y="757"/>
      <point x="311" y="763"/>
    </contour>
    <contour>
      <point x="347" y="-14" type="curve" smooth="yes"/>
      <point x="175" y="-14"/>
      <point x="72" y="96"/>
      <point x="72" y="271" type="curve" smooth="yes"/>
      <point x="72" y="727" type="line"/>
      <point x="180" y="727" type="line"/>
      <point x="180" y="255" type="line" smooth="yes"/>
      <point x="180" y="140"/>
      <point x="247" y="67"/>
      <point x="347" y="67" type="curve" smooth="yes"/>
      <point x="447" y="67"/>
      <point x="515" y="140"/>
      <point x="515" y="255" type="curve" smooth="yes"/>
      <point x="515" y="727" type="line"/>
      <point x="622" y="727" type="line"/>
      <point x="622" y="271" type="line" smooth="yes"/>
      <point x="622" y="100"/>
      <point x="512" y="-14"/>
    </contour>
  </outline>
</glyph>
<glyph name="Uacute" format="1">
  <advance width="694"/>
  <unicode hex="00DA"/>
  <outline>
    <contour>
      <point x="496" y="890" type="line" name="hr00"/>
      <point x="413" y="797" type="line" smooth="yes"/>
      <point x="382" y="762"/>
      <point x="334" y="757"/>
      <point x="301" y="766" type="curve"/>
      <point x="389" y="890" type="line"/>
    </contour>
    <contour>
      <point x="347" y="-14" type="curve" smooth="yes"/>
      <point x="174" y="-14"/>
      <point x="72" y="96"/>
      <point x="72" y="271" type="curve" smooth="yes"/>
      <point x="72" y="727" type="line"/>
      <point x="179" y="727" type="line"/>
      <point x="179" y="255" type="line" smooth="yes"/>
      <point x="179" y="140"/>
      <point x="247" y="67"/>
      <point x="347" y="67" type="curve" smooth="yes"/>
      <point x="447" y="67"/>
      <point x="515" y="140"/>
      <point x="515" y="255" type="curve" smooth="yes"/>
      <point x="515" y="727" type="line"/>
      <point x="622" y="727" type="line"/>
      <point x="622" y="271" type="line" smooth="yes"/>
      <point x="622" y="100"/>
      <point x="512" y="-14"/>
    </contour>
  </outline>
</glyph>
<glyph name="Udieresis" format="1">
  <advance width="694"/>
  <unicode hex="00DC"/>
  <outline>
    <contour>
      <point x="389" y="840" type="curve" smooth="yes" name="hr00"/>
      <point x="389" y="871"/>
      <point x="415" y="895"/>
      <point x="445" y="895" type="curve" smooth="yes"/>
      <point x="475" y="895"/>
      <point x="500" y="871"/>
      <point x="500" y="840" type="curve" smooth="yes"/>
      <point x="500" y="809"/>
      <point x="475" y="785"/>
      <point x="445" y="785" type="curve" smooth="yes"/>
      <point x="415" y="785"/>
      <point x="389" y="809"/>
    </contour>
    <contour>
      <point x="195" y="840" type="curve" smooth="yes"/>
      <point x="195" y="871"/>
      <point x="220" y="895"/>
      <point x="250" y="895" type="curve" smooth="yes"/>
      <point x="281" y="895"/>
      <point x="306" y="871"/>
      <point x="306" y="840" type="curve" smooth="yes"/>
      <point x="306" y="809"/>
      <point x="281" y="785"/>
      <point x="250" y="785" type="curve" smooth="yes"/>
      <point x="220" y="785"/>
      <point x="195" y="809"/>
    </contour>
    <contour>
      <point x="347" y="-14" type="curve" smooth="yes"/>
      <point x="174" y="-14"/>
      <point x="71" y="96"/>
      <point x="71" y="271" type="curve" smooth="yes"/>
      <point x="71" y="727" type="line"/>
      <point x="179" y="727" type="line"/>
      <point x="179" y="255" type="line" smooth="yes"/>
      <point x="179" y="140"/>
      <point x="247" y="67"/>
      <point x="347" y="67" type="curve" smooth="yes"/>
      <point x="447" y="67"/>
      <point x="514" y="140"/>
      <point x="514" y="255" type="curve" smooth="yes"/>
      <point x="514" y="727" type="line"/>
      <point x="622" y="727" type="line"/>
      <point x="622" y="271" type="line" smooth="yes"/>
      <point x="622" y="100"/>
      <point x="512" y="-14"/>
    </contour>
  </outline>
</glyph>
<glyph name="Yacute" format="1">
  <advance width="660"/>
  <unicode hex="00DD"/>
  <outline>
    <contour>
      <point x="492" y="890" type="line" name="hr00"/>
      <point x="409" y="797" type="line" smooth="yes"/>
      <point x="378" y="762"/>
      <point x="330" y="757"/>
      <point x="297" y="766" type="curve"/>
      <point x="385" y="890" type="line"/>
    </contour>
    <contour>
      <point x="383" y="518" type="curve"/>
      <point x="500" y="727" type="line"/>
      <point x="619" y="727" type="line"/>
      <point x="406" y="376" type="line"/>
      <point x="381" y="408"/>
      <point x="354" y="466"/>
    </contour>
    <contour>
      <point x="143" y="727" type="line"/>
      <point x="377" y="338" type="line"/>
      <point x="377" y="0" type="line"/>
      <point x="271" y="0" type="line"/>
      <point x="271" y="313" type="line"/>
      <point x="21" y="727" type="line"/>
    </contour>
  </outline>
</glyph>
<glyph name="Thorn" format="1">
  <advance width="609"/>
  <unicode hex="00DE"/>
  <outline>
    <contour>
      <point x="564" y="363" type="curve" smooth="yes" name="hr00"/>
      <point x="564" y="232"/>
      <point x="450" y="155"/>
      <point x="330" y="144" type="curve" smooth="yes"/>
      <point x="301" y="141"/>
      <point x="267" y="142"/>
      <point x="230" y="153" type="curve"/>
      <point x="245" y="188"/>
      <point x="274" y="221"/>
      <point x="317" y="222" type="curve" smooth="yes"/>
      <point x="382" y="224"/>
      <point x="449" y="283"/>
      <point x="449" y="363" type="curve" smooth="yes"/>
      <point x="449" y="444"/>
      <point x="381" y="505"/>
      <point x="293" y="505" type="curve" smooth="yes"/>
      <point x="256" y="505"/>
      <point x="227" y="503"/>
      <point x="191" y="499" type="curve"/>
      <point x="191" y="0" type="line"/>
      <point x="86" y="0" type="line"/>
      <point x="86" y="727" type="line"/>
      <point x="191" y="727" type="line"/>
      <point x="191" y="582" type="line"/>
      <point x="224" y="585"/>
      <point x="256" y="587"/>
      <point x="293" y="587" type="curve" smooth="yes"/>
      <point x="454" y="587"/>
      <point x="564" y="492"/>
    </contour>
  </outline>
</glyph>
<glyph name="germandbls" format="1">
  <advance width="567"/>
  <unicode hex="00DF"/>
  <outline>
    <contour>
      <point x="249" y="25" type="curve"/>
      <point x="276" y="95" type="line"/>
      <point x="320" y="76"/>
      <point x="357" y="69"/>
      <point x="383" y="69" type="curve" smooth="yes"/>
      <point x="422" y="69"/>
      <point x="452" y="97"/>
      <point x="452" y="138" type="curve" smooth="yes"/>
      <point x="452" y="240"/>
      <point x="278" y="247"/>
      <point x="278" y="401" type="curve" smooth="yes"/>
      <point x="278" y="459"/>
      <point x="319" y="513"/>
      <point x="391" y="542" type="curve"/>
      <point x="395" y="557"/>
      <point x="397" y="572"/>
      <point x="397" y="588" type="curve" smooth="yes" name="hr01"/>
      <point x="397" y="645"/>
      <point x="351" y="686"/>
      <point x="300" y="686" type="curve" smooth="yes"/>
      <point x="243" y="686"/>
      <point x="185" y="646"/>
      <point x="185" y="555" type="curve" smooth="yes"/>
      <point x="185" y="0" type="line"/>
      <point x="151" y="0"/>
      <point x="118" y="0"/>
      <point x="84" y="0" type="curve"/>
      <point x="84" y="545" type="line" smooth="yes"/>
      <point x="84" y="682"/>
      <point x="168" y="763"/>
      <point x="290" y="763" type="curve" smooth="yes"/>
      <point x="414" y="763"/>
      <point x="484" y="684"/>
      <point x="484" y="588" type="curve" smooth="yes"/>
      <point x="484" y="553"/>
      <point x="473" y="522"/>
      <point x="448" y="482" type="curve"/>
      <point x="403" y="461"/>
      <point x="378" y="439"/>
      <point x="378" y="401" type="curve" smooth="yes"/>
      <point x="378" y="300"/>
      <point x="552" y="294"/>
      <point x="552" y="134" type="curve" smooth="yes" name="hr02"/>
      <point x="552" y="51"/>
      <point x="479" y="-12"/>
      <point x="394" y="-12" type="curve" smooth="yes"/>
      <point x="354" y="-12"/>
      <point x="312" y="-7"/>
    </contour>
  </outline>
</glyph>
<glyph name="agrave" format="1">
  <advance width="527"/>
  <unicode hex="00E0"/>
  <outline>
    <contour>
      <point x="458" y="313" type="curve"/>
      <point x="458" y="171" type="line" smooth="yes"/>
      <point x="458" y="98"/>
      <point x="462" y="44"/>
      <point x="474" y="0" type="curve"/>
      <point x="396" y="0" type="line"/>
      <point x="373" y="13"/>
      <point x="360" y="41"/>
      <point x="358" y="67" type="curve"/>
      <point x="306" y="1"/>
      <point x="255" y="-11"/>
      <point x="204" y="-11" type="curve" smooth="yes" name="hr01"/>
      <point x="103" y="-11"/>
      <point x="40" y="53"/>
      <point x="40" y="134" type="curve" smooth="yes"/>
      <point x="40" y="230"/>
      <point x="110" y="284"/>
      <point x="316" y="305" type="curve"/>
      <point x="311" y="275"/>
      <point x="295" y="232"/>
      <point x="245" y="224" type="curve" smooth="yes"/>
      <point x="169" y="211"/>
      <point x="149" y="178"/>
      <point x="149" y="142" type="curve" smooth="yes"/>
      <point x="149" y="103"/>
      <point x="179" y="70"/>
      <point x="226" y="70" type="curve" smooth="yes"/>
      <point x="269" y="70"/>
      <point x="314" y="93"/>
      <point x="352" y="142" type="curve"/>
      <point x="352" y="318" type="line" smooth="yes"/>
      <point x="352" y="394"/>
      <point x="316" y="446"/>
      <point x="231" y="446" type="curve" smooth="yes"/>
      <point x="196" y="446"/>
      <point x="162" y="440"/>
      <point x="115" y="423" type="curve"/>
      <point x="88" y="492" type="line"/>
      <point x="152" y="520"/>
      <point x="201" y="527"/>
      <point x="246" y="527" type="curve" smooth="yes"/>
      <point x="382" y="527"/>
      <point x="458" y="450"/>
    </contour>
    <contour>
      <point x="190" y="636" type="curve"/>
      <point x="120" y="740" type="line"/>
      <point x="227" y="740" type="line"/>
      <point x="300" y="602" type="line"/>
      <point x="266" y="594"/>
      <point x="220" y="600"/>
    </contour>
  </outline>
</glyph>
<glyph name="aacute" format="1">
  <advance width="527"/>
  <unicode hex="00E1"/>
  <outline>
    <contour>
      <point x="458" y="313" type="curve"/>
      <point x="458" y="171" type="line" smooth="yes"/>
      <point x="458" y="98"/>
      <point x="462" y="44"/>
      <point x="474" y="0" type="curve"/>
      <point x="395" y="0" type="line"/>
      <point x="373" y="13"/>
      <point x="359" y="41"/>
      <point x="357" y="67" type="curve"/>
      <point x="306" y="1"/>
      <point x="254" y="-11"/>
      <point x="204" y="-11" type="curve" smooth="yes" name="hr01"/>
      <point x="102" y="-11"/>
      <point x="39" y="53"/>
      <point x="39" y="134" type="curve" smooth="yes"/>
      <point x="39" y="230"/>
      <point x="109" y="284"/>
      <point x="316" y="305" type="curve"/>
      <point x="311" y="275"/>
      <point x="295" y="232"/>
      <point x="245" y="224" type="curve" smooth="yes"/>
      <point x="168" y="211"/>
      <point x="149" y="178"/>
      <point x="149" y="142" type="curve" smooth="yes"/>
      <point x="149" y="103"/>
      <point x="179" y="70"/>
      <point x="225" y="70" type="curve" smooth="yes"/>
      <point x="268" y="70"/>
      <point x="314" y="93"/>
      <point x="352" y="142" type="curve"/>
      <point x="352" y="318" type="line" smooth="yes"/>
      <point x="352" y="394"/>
      <point x="315" y="446"/>
      <point x="230" y="446" type="curve" smooth="yes"/>
      <point x="195" y="446"/>
      <point x="162" y="440"/>
      <point x="114" y="423" type="curve"/>
      <point x="88" y="492" type="line"/>
      <point x="151" y="520"/>
      <point x="200" y="527"/>
      <point x="245" y="527" type="curve" smooth="yes"/>
      <point x="382" y="527"/>
      <point x="458" y="450"/>
    </contour>
    <contour>
      <point x="410" y="740" type="line"/>
      <point x="325" y="635" type="line" smooth="yes"/>
      <point x="295" y="598"/>
      <point x="246" y="593"/>
      <point x="213" y="602" type="curve"/>
      <point x="301" y="740" type="line"/>
    </contour>
  </outline>
</glyph>
<glyph name="atilde" format="1">
  <advance width="527"/>
  <unicode hex="00E3"/>
  <outline>
    <contour>
      <point x="176" y="618" type="curve"/>
      <point x="116" y="624" type="line"/>
      <point x="118" y="698"/>
      <point x="159" y="735"/>
      <point x="208" y="735" type="curve" smooth="yes"/>
      <point x="266" y="735"/>
      <point x="287" y="680"/>
      <point x="326" y="680" type="curve" smooth="yes" name="hr01"/>
      <point x="343" y="680"/>
      <point x="354" y="700"/>
      <point x="357" y="734" type="curve"/>
      <point x="415" y="728" type="line"/>
      <point x="412" y="644"/>
      <point x="367" y="617"/>
      <point x="328" y="617" type="curve" smooth="yes"/>
      <point x="264" y="617"/>
      <point x="247" y="672"/>
      <point x="211" y="672" type="curve" smooth="yes" name="hr02"/>
      <point x="195" y="672"/>
      <point x="179" y="658"/>
    </contour>
    <contour>
      <point x="459" y="313" type="curve"/>
      <point x="459" y="171" type="line" smooth="yes"/>
      <point x="459" y="98"/>
      <point x="463" y="44"/>
      <point x="475" y="0" type="curve"/>
      <point x="396" y="0" type="line"/>
      <point x="374" y="13"/>
      <point x="360" y="41"/>
      <point x="358" y="67" type="curve"/>
      <point x="307" y="1"/>
      <point x="255" y="-11"/>
      <point x="205" y="-11" type="curve" smooth="yes" name="hr03"/>
      <point x="103" y="-11"/>
      <point x="40" y="53"/>
      <point x="40" y="134" type="curve" smooth="yes"/>
      <point x="40" y="230"/>
      <point x="110" y="284"/>
      <point x="317" y="305" type="curve"/>
      <point x="312" y="275"/>
      <point x="296" y="232"/>
      <point x="246" y="224" type="curve" smooth="yes"/>
      <point x="169" y="211"/>
      <point x="150" y="178"/>
      <point x="150" y="142" type="curve" smooth="yes"/>
      <point x="150" y="103"/>
      <point x="180" y="70"/>
      <point x="226" y="70" type="curve" smooth="yes"/>
      <point x="269" y="70"/>
      <point x="315" y="93"/>
      <point x="353" y="142" type="curve"/>
      <point x="353" y="318" type="line" smooth="yes"/>
      <point x="353" y="394"/>
      <point x="316" y="446"/>
      <point x="231" y="446" type="curve" smooth="yes"/>
      <point x="196" y="446"/>
      <point x="163" y="440"/>
      <point x="115" y="423" type="curve"/>
      <point x="89" y="492" type="line"/>
      <point x="152" y="520"/>
      <point x="201" y="527"/>
      <point x="246" y="527" type="curve" smooth="yes"/>
      <point x="383" y="527"/>
      <point x="459" y="450"/>
    </contour>
  </outline>
</glyph>
<glyph name="adieresis" format="1">
  <advance width="527"/>
  <unicode hex="00E4"/>
  <outline>
    <contour>
      <point x="459" y="313" type="curve"/>
      <point x="459" y="171" type="line" smooth="yes"/>
      <point x="459" y="98"/>
      <point x="463" y="44"/>
      <point x="475" y="0" type="curve"/>
      <point x="396" y="0" type="line"/>
      <point x="374" y="13"/>
      <point x="360" y="41"/>
      <point x="358" y="67" type="curve"/>
      <point x="307" y="1"/>
      <point x="255" y="-11"/>
      <point x="205" y="-11" type="curve" smooth="yes" name="hr01"/>
      <point x="103" y="-11"/>
      <point x="40" y="53"/>
      <point x="40" y="134" type="curve" smooth="yes"/>
      <point x="40" y="230"/>
      <point x="110" y="284"/>
      <point x="317" y="305" type="curve"/>
      <point x="312" y="275"/>
      <point x="296" y="232"/>
      <point x="246" y="224" type="curve" smooth="yes"/>
      <point x="169" y="211"/>
      <point x="150" y="178"/>
      <point x="150" y="142" type="curve" smooth="yes"/>
      <point x="150" y="103"/>
      <point x="180" y="70"/>
      <point x="226" y="70" type="curve" smooth="yes" name="hr02"/>
      <point x="269" y="70"/>
      <point x="315" y="93"/>
      <point x="353" y="142" type="curve"/>
      <point x="353" y="318" type="line" smooth="yes"/>
      <point x="353" y="394"/>
      <point x="316" y="446"/>
      <point x="231" y="446" type="curve" smooth="yes"/>
      <point x="196" y="446"/>
      <point x="163" y="440"/>
      <point x="115" y="423" type="curve"/>
      <point x="89" y="492" type="line"/>
      <point x="152" y="520"/>
      <point x="201" y="527"/>
      <point x="246" y="527" type="curve" smooth="yes"/>
      <point x="383" y="527"/>
      <point x="459" y="450"/>
    </contour>
    <contour>
      <point x="309" y="670" type="curve" smooth="yes" name="hr03"/>
      <point x="309" y="701"/>
      <point x="335" y="725"/>
      <point x="365" y="725" type="curve" smooth="yes"/>
      <point x="395" y="725"/>
      <point x="420" y="701"/>
      <point x="420" y="670" type="curve" smooth="yes"/>
      <point x="420" y="639"/>
      <point x="395" y="615"/>
      <point x="365" y="615" type="curve" smooth="yes"/>
      <point x="335" y="615"/>
      <point x="309" y="639"/>
    </contour>
    <contour>
      <point x="115" y="670" type="curve" smooth="yes"/>
      <point x="115" y="701"/>
      <point x="140" y="725"/>
      <point x="170" y="725" type="curve" smooth="yes"/>
      <point x="201" y="725"/>
      <point x="226" y="701"/>
      <point x="226" y="670" type="curve" smooth="yes"/>
      <point x="226" y="639"/>
      <point x="201" y="615"/>
      <point x="170" y="615" type="curve" smooth="yes"/>
      <point x="140" y="615"/>
      <point x="115" y="639"/>
    </contour>
  </outline>
</glyph>
<glyph name="aring" format="1">
  <advance width="527"/>
  <unicode hex="00E5"/>
  <outline>
    <contour>
      <point x="267" y="610" type="curve" smooth="yes"/>
      <point x="296" y="610"/>
      <point x="313" y="631"/>
      <point x="313" y="658" type="curve" smooth="yes"/>
      <point x="313" y="685"/>
      <point x="296" y="706"/>
      <point x="267" y="706" type="curve" smooth="yes"/>
      <point x="241" y="706"/>
      <point x="223" y="685"/>
      <point x="223" y="656" type="curve" smooth="yes"/>
      <point x="223" y="633"/>
      <point x="240" y="610"/>
    </contour>
    <contour>
      <point x="267" y="568" type="curve" smooth="yes"/>
      <point x="208" y="568"/>
      <point x="166" y="606"/>
      <point x="166" y="656" type="curve" smooth="yes"/>
      <point x="166" y="709"/>
      <point x="209" y="748"/>
      <point x="268" y="748" type="curve" smooth="yes"/>
      <point x="328" y="748"/>
      <point x="368" y="711"/>
      <point x="368" y="657" type="curve" smooth="yes"/>
      <point x="368" y="605"/>
      <point x="324" y="568"/>
    </contour>
    <contour>
      <point x="459" y="313" type="curve" name="hr01"/>
      <point x="459" y="171" type="line" smooth="yes"/>
      <point x="459" y="98"/>
      <point x="463" y="44"/>
      <point x="475" y="0" type="curve"/>
      <point x="396" y="0" type="line"/>
      <point x="374" y="13"/>
      <point x="360" y="41"/>
      <point x="358" y="67" type="curve"/>
      <point x="307" y="1"/>
      <point x="255" y="-11"/>
      <point x="205" y="-11" type="curve" smooth="yes" name="hr02"/>
      <point x="103" y="-11"/>
      <point x="40" y="53"/>
      <point x="40" y="134" type="curve" smooth="yes"/>
      <point x="40" y="230"/>
      <point x="110" y="284"/>
      <point x="317" y="305" type="curve"/>
      <point x="312" y="275"/>
      <point x="296" y="232"/>
      <point x="246" y="224" type="curve" smooth="yes"/>
      <point x="169" y="211"/>
      <point x="150" y="178"/>
      <point x="150" y="142" type="curve" smooth="yes"/>
      <point x="150" y="103"/>
      <point x="180" y="70"/>
      <point x="226" y="70" type="curve" smooth="yes"/>
      <point x="269" y="70"/>
      <point x="315" y="93"/>
      <point x="353" y="142" type="curve"/>
      <point x="353" y="318" type="line" smooth="yes"/>
      <point x="353" y="394"/>
      <point x="316" y="446"/>
      <point x="231" y="446" type="curve" smooth="yes"/>
      <point x="196" y="446"/>
      <point x="163" y="440"/>
      <point x="115" y="423" type="curve"/>
      <point x="89" y="492" type="line"/>
      <point x="152" y="520"/>
      <point x="206" y="527"/>
      <point x="251" y="527" type="curve" smooth="yes"/>
      <point x="383" y="527"/>
      <point x="459" y="450"/>
    </contour>
  </outline>
</glyph>
<glyph name="ae" format="1">
  <advance width="850"/>
  <unicode hex="00E6"/>
  <outline>
    <contour>
      <point x="578" y="317" type="curve"/>
      <point x="694" y="317" type="line"/>
      <point x="703" y="389"/>
      <point x="657" y="449"/>
      <point x="593" y="449" type="curve" smooth="yes"/>
      <point x="518" y="449"/>
      <point x="459" y="385"/>
      <point x="459" y="265" type="curve" smooth="yes"/>
      <point x="459" y="147"/>
      <point x="523" y="70"/>
      <point x="612" y="70" type="curve" smooth="yes"/>
      <point x="658" y="70"/>
      <point x="696" y="78"/>
      <point x="753" y="106" type="curve"/>
      <point x="781" y="33" type="line"/>
      <point x="715" y="-1"/>
      <point x="653" y="-11"/>
      <point x="601" y="-11" type="curve" smooth="yes"/>
      <point x="515" y="-11"/>
      <point x="434" y="53"/>
      <point x="408" y="128" type="curve"/>
      <point x="377" y="39"/>
      <point x="297" y="-11"/>
      <point x="212" y="-11" type="curve" smooth="yes"/>
      <point x="107" y="-11"/>
      <point x="40" y="49"/>
      <point x="40" y="134" type="curve" smooth="yes"/>
      <point x="40" y="230"/>
      <point x="110" y="284"/>
      <point x="317" y="305" type="curve"/>
      <point x="312" y="278"/>
      <point x="299" y="240"/>
      <point x="256" y="228" type="curve" smooth="yes"/>
      <point x="177" y="201"/>
      <point x="150" y="189"/>
      <point x="150" y="142" type="curve" smooth="yes"/>
      <point x="150" y="103"/>
      <point x="180" y="70"/>
      <point x="226" y="70" type="curve" smooth="yes"/>
      <point x="306" y="70"/>
      <point x="353" y="142"/>
      <point x="353" y="263" type="curve" smooth="yes"/>
      <point x="353" y="318" type="line" smooth="yes"/>
      <point x="353" y="394"/>
      <point x="316" y="446"/>
      <point x="231" y="446" type="curve" smooth="yes"/>
      <point x="196" y="446"/>
      <point x="163" y="440"/>
      <point x="115" y="423" type="curve"/>
      <point x="89" y="492" type="line"/>
      <point x="152" y="520"/>
      <point x="206" y="527"/>
      <point x="251" y="527" type="curve" smooth="yes" name="hr01"/>
      <point x="324" y="527"/>
      <point x="386" y="485"/>
      <point x="416" y="419" type="curve"/>
      <point x="451" y="483"/>
      <point x="526" y="528"/>
      <point x="603" y="528" type="curve" smooth="yes" name="hr02"/>
      <point x="743" y="528"/>
      <point x="831" y="397"/>
      <point x="782" y="246" type="curve"/>
      <point x="495" y="246" type="line"/>
      <point x="509" y="286"/>
      <point x="534" y="317"/>
    </contour>
  </outline>
</glyph>
<glyph name="ccedilla" format="1">
  <advance width="427"/>
  <unicode hex="00E7"/>
  <outline>
    <contour>
      <point x="284" y="-11" type="curve" smooth="yes" name="hr00"/>
      <point x="283" y="-11"/>
      <point x="282" y="-11"/>
      <point x="281" y="-11" type="curve"/>
      <point x="271" y="-48" type="line"/>
      <point x="310" y="-53"/>
      <point x="352" y="-81"/>
      <point x="352" y="-123" type="curve" smooth="yes"/>
      <point x="352" y="-183"/>
      <point x="290" y="-208"/>
      <point x="234" y="-208" type="curve" smooth="yes"/>
      <point x="211" y="-208"/>
      <point x="186" y="-203"/>
      <point x="154" y="-189" type="curve"/>
      <point x="170" y="-142" type="line"/>
      <point x="195" y="-152"/>
      <point x="214" y="-155"/>
      <point x="234" y="-155" type="curve" smooth="yes"/>
      <point x="257" y="-155"/>
      <point x="283" y="-147"/>
      <point x="283" y="-126" type="curve" smooth="yes"/>
      <point x="283" y="-102"/>
      <point x="256" y="-91"/>
      <point x="209" y="-86" type="curve"/>
      <point x="230" y="-6" type="line"/>
      <point x="119" y="15"/>
      <point x="35" y="104"/>
      <point x="35" y="259" type="curve" smooth="yes"/>
      <point x="35" y="434"/>
      <point x="152" y="528"/>
      <point x="284" y="528" type="curve" smooth="yes"/>
      <point x="320" y="528"/>
      <point x="365" y="522"/>
      <point x="405" y="507" type="curve"/>
      <point x="378" y="433" type="line"/>
      <point x="343" y="443"/>
      <point x="311" y="447"/>
      <point x="284" y="447" type="curve" smooth="yes"/>
      <point x="209" y="447"/>
      <point x="148" y="384"/>
      <point x="148" y="259" type="curve" smooth="yes"/>
      <point x="148" y="133"/>
      <point x="208" y="70"/>
      <point x="284" y="70" type="curve" smooth="yes"/>
      <point x="312" y="70"/>
      <point x="346" y="78"/>
      <point x="391" y="98" type="curve"/>
      <point x="419" y="24" type="line"/>
      <point x="365" y="-2"/>
      <point x="317" y="-11"/>
    </contour>
  </outline>
</glyph>
<glyph name="egrave" format="1">
  <advance width="544"/>
  <unicode hex="00E8"/>
  <outline>
    <contour>
      <point x="219" y="636" type="curve" name="hr00"/>
      <point x="149" y="740" type="line"/>
      <point x="256" y="740" type="line"/>
      <point x="329" y="602" type="line"/>
      <point x="295" y="594"/>
      <point x="248" y="600"/>
    </contour>
    <contour>
      <point x="275" y="317" type="curve"/>
      <point x="391" y="317" type="line"/>
      <point x="400" y="389"/>
      <point x="354" y="449"/>
      <point x="290" y="449" type="curve" smooth="yes"/>
      <point x="215" y="449"/>
      <point x="156" y="385"/>
      <point x="156" y="265" type="curve" smooth="yes"/>
      <point x="156" y="147"/>
      <point x="220" y="70"/>
      <point x="309" y="70" type="curve" smooth="yes"/>
      <point x="355" y="70"/>
      <point x="393" y="78"/>
      <point x="450" y="106" type="curve"/>
      <point x="478" y="33" type="line"/>
      <point x="412" y="-1"/>
      <point x="350" y="-11"/>
      <point x="298" y="-11" type="curve" smooth="yes"/>
      <point x="141" y="-11"/>
      <point x="50" y="114"/>
      <point x="50" y="264" type="curve" smooth="yes"/>
      <point x="50" y="427"/>
      <point x="150" y="528"/>
      <point x="300" y="528" type="curve" smooth="yes"/>
      <point x="440" y="528"/>
      <point x="528" y="397"/>
      <point x="479" y="246" type="curve"/>
      <point x="192" y="246" type="line"/>
      <point x="206" y="286"/>
      <point x="231" y="317"/>
    </contour>
  </outline>
</glyph>
<glyph name="ecircumflex" format="1">
  <advance width="544"/>
  <unicode hex="00EA"/>
  <outline>
    <contour>
      <point x="256" y="743" type="line" name="hr00"/>
      <point x="327" y="743" type="line"/>
      <point x="437" y="599" type="line"/>
      <point x="376" y="589" type="line"/>
      <point x="291" y="669" type="line"/>
      <point x="206" y="588" type="line"/>
      <point x="148" y="599" type="line"/>
    </contour>
    <contour>
      <point x="275" y="317" type="curve"/>
      <point x="391" y="317" type="line"/>
      <point x="399" y="389"/>
      <point x="354" y="449"/>
      <point x="290" y="449" type="curve" smooth="yes"/>
      <point x="214" y="449"/>
      <point x="155" y="385"/>
      <point x="155" y="265" type="curve" smooth="yes"/>
      <point x="155" y="147"/>
      <point x="220" y="70"/>
      <point x="309" y="70" type="curve" smooth="yes"/>
      <point x="355" y="70"/>
      <point x="393" y="78"/>
      <point x="450" y="106" type="curve"/>
      <point x="478" y="33" type="line"/>
      <point x="411" y="-1"/>
      <point x="349" y="-11"/>
      <point x="297" y="-11" type="curve" smooth="yes"/>
      <point x="140" y="-11"/>
      <point x="49" y="114"/>
      <point x="49" y="264" type="curve" smooth="yes"/>
      <point x="49" y="427"/>
      <point x="150" y="528"/>
      <point x="299" y="528" type="curve" smooth="yes"/>
      <point x="439" y="528"/>
      <point x="527" y="397"/>
      <point x="479" y="246" type="curve"/>
      <point x="192" y="246" type="line"/>
      <point x="206" y="286"/>
      <point x="231" y="317"/>
    </contour>
  </outline>
</glyph>
<glyph name="edieresis" format="1">
  <advance width="544"/>
  <unicode hex="00EB"/>
  <outline>
    <contour>
      <point x="327" y="670" type="curve" smooth="yes"/>
      <point x="327" y="701"/>
      <point x="352" y="725"/>
      <point x="383" y="725" type="curve" smooth="yes"/>
      <point x="413" y="725"/>
      <point x="438" y="701"/>
      <point x="438" y="670" type="curve" smooth="yes"/>
      <point x="438" y="639"/>
      <point x="413" y="615"/>
      <point x="383" y="615" type="curve" smooth="yes"/>
      <point x="352" y="615"/>
      <point x="327" y="639"/>
    </contour>
    <contour>
      <point x="133" y="670" type="curve" smooth="yes"/>
      <point x="133" y="701"/>
      <point x="158" y="725"/>
      <point x="188" y="725" type="curve" smooth="yes"/>
      <point x="218" y="725"/>
      <point x="244" y="701"/>
      <point x="244" y="670" type="curve" smooth="yes"/>
      <point x="244" y="639"/>
      <point x="218" y="615"/>
      <point x="188" y="615" type="curve" smooth="yes"/>
      <point x="158" y="615"/>
      <point x="133" y="639"/>
    </contour>
    <contour>
      <point x="275" y="317" type="curve"/>
      <point x="391" y="317" type="line"/>
      <point x="400" y="389"/>
      <point x="354" y="449"/>
      <point x="290" y="449" type="curve" smooth="yes"/>
      <point x="215" y="449"/>
      <point x="156" y="385"/>
      <point x="156" y="265" type="curve" smooth="yes" name="hr01"/>
      <point x="156" y="147"/>
      <point x="220" y="70"/>
      <point x="309" y="70" type="curve" smooth="yes"/>
      <point x="355" y="70"/>
      <point x="393" y="78"/>
      <point x="450" y="106" type="curve"/>
      <point x="478" y="33" type="line"/>
      <point x="412" y="-1"/>
      <point x="350" y="-11"/>
      <point x="298" y="-11" type="curve" smooth="yes"/>
      <point x="141" y="-11"/>
      <point x="50" y="114"/>
      <point x="50" y="264" type="curve" smooth="yes"/>
      <point x="50" y="427"/>
      <point x="150" y="528"/>
      <point x="300" y="528" type="curve" smooth="yes"/>
      <point x="440" y="528"/>
      <point x="528" y="397"/>
      <point x="479" y="246" type="curve"/>
      <point x="192" y="246" type="line"/>
      <point x="206" y="286"/>
      <point x="231" y="317"/>
    </contour>
  </outline>
</glyph>
<glyph name="igrave" format="1">
  <advance width="276"/>
  <unicode hex="00EC"/>
  <outline>
    <contour>
      <point x="83" y="636" type="curve" name="hr00"/>
      <point x="13" y="740" type="line"/>
      <point x="120" y="740" type="line"/>
      <point x="193" y="602" type="line"/>
      <point x="159" y="594"/>
      <point x="112" y="600"/>
    </contour>
    <contour>
      <point x="213" y="0" type="line"/>
      <point x="104" y="0" type="line"/>
      <point x="104" y="517" type="line"/>
      <point x="213" y="517" type="line"/>
    </contour>
  </outline>
</glyph>
<glyph name="iacute" format="1">
  <advance width="273"/>
  <unicode hex="00ED"/>
  <outline>
    <contour>
      <point x="264" y="740" type="line" name="hr00"/>
      <point x="179" y="635" type="line" smooth="yes"/>
      <point x="149" y="598"/>
      <point x="100" y="593"/>
      <point x="67" y="602" type="curve"/>
      <point x="155" y="740" type="line"/>
    </contour>
    <contour>
      <point x="172" y="0" type="line"/>
      <point x="64" y="0" type="line"/>
      <point x="64" y="517" type="line"/>
      <point x="172" y="517" type="line"/>
    </contour>
  </outline>
</glyph>
<glyph name="icircumflex" format="1">
  <advance width="337"/>
  <unicode hex="00EE"/>
  <outline>
    <contour>
      <point x="132" y="743" type="line" name="hr00"/>
      <point x="203" y="743" type="line"/>
      <point x="313" y="599" type="line"/>
      <point x="252" y="589" type="line"/>
      <point x="167" y="669" type="line"/>
      <point x="82" y="588" type="line"/>
      <point x="24" y="599" type="line"/>
    </contour>
    <contour>
      <point x="221" y="0" type="line"/>
      <point x="113" y="0" type="line"/>
      <point x="113" y="517" type="line"/>
      <point x="221" y="517" type="line"/>
    </contour>
  </outline>
</glyph>
